{
.appVersion = "3525";
.formatVersion = 3;
DisplayStrings = (
"HHZHHOOYOO
AÁĂẮẶẰẲẴǍÂẤẬẦẨẪȀÄẠÀẢȂĀĄÅǺÃÆǼBCĆČÇĈĊDǱǄĎÐĐḌǲǅÐEÉĔĚÊẾỆỀỂỄȄËĖẸÈẺȆĒĘẼƏFGĞǦĜĢĠHĦĤḤIĲÍĬǏÎȈÏİỊÌỈȊĪĮĨJ/Jacute ĴKĶLǇĹĽĻĿǈŁMNǊŃŇŅṄƝǋÑŊOÓŎǑÔỐỘỒỔỖȌÖȪȰỌÒỎƠỚỢỜỞỠŐȎŌǪØǾÕȬŒPÞQRŔŘŖȐṚȒSŚŠŞŜȘṢẞTŦŤŢȚṬUÚŬǓÛȔÜǗǙǛǕỤÙỦƯỨỰỪỬỮŰȖŪŲŮŨVWẂŴẄẀXYÝŶŸỴỲỶȲỸZŹŽŻẒ
/Y.loclGUA/Yacute.loclGUA/Ycircumflex.loclGUA/Ydieresis.loclGUA/Ydotbelow.loclGUA/Ygrave.loclGUA/Yhookabove.loclGUA/Ytilde.loclGUA/Cacute.loclPLK/Nacute.loclPLK/Oacute.loclPLK/Sacute.loclPLK/Zacute.loclPLK 

nnq/g.ss01/y.loclGUA nnoosoo
Hamburgefonstiv
aáăắặ/brevecomb_gravecomb ằẳẵǎâấậầẩẫȁäạàảȃāąåǻãæǽbcćčçĉċdďđḍǳǆðeéĕěêếệềể/circumflexcomb_tildecomb ễȅëėẹèẻȇēęẽəfgğǧĝģġhħĥḥiıíĭǐîȉï/idotaccent ịìỉȋīįĩĳjȷ/jacute ĵkķĸlĺľļŀjǉłmnńŉňņṅɲǌñŋoóŏǒôốộồổỗȍöȫȱọòỏơớợờởỡőȏōooǫøǿõȭœpþqrŕřŗȑṛȓsśšşŝșṣßfſtŧťţțṭuúŭǔûȕüǘǚǜǖụùủưứựừửữűȗūųůũvwẃŵẅẁxyýŷÿỵỳỷȳỹzźžżẓ

glyphs = (
{
glyphname = A;
kernLeft = A;
kernRight = A;
layers = (
{
anchors = (
{
name = bottom;
pos = (307,0);
},
{
name = ogonek;
pos = (631,0);
},
{
name = top;
pos = (307,700);
}
);
background = {
anchors = (
{
name = bottom;
pos = (307,0);
},
{
name = ogonek;
pos = (631,0);
},
{
name = top;
pos = (307,700);
}
);
shapes = (
{
closed = 1;
nodes = (
(94,0,l),
(290,552,ls),
(297,571,o),
(300,591,o),
(304,610,c),
(306,610,l),
(309,591,o),
(315,570,o),
(321,552,cs),
(518,0,l),
(608,0,l),
(356,700,l),
(257,700,l),
(4,0,l)
);
},
{
closed = 1;
nodes = (
(484,180,l),
(484,254,l),
(125,254,l),
(125,180,l)
);
}
);
};
layerId = UUID0;
shapes = (
{
closed = 1;
nodes = (
(94,0,l),
(290,552,ls),
(297,571,o),
(300,591,o),
(304,610,c),
(306,610,l),
(309,591,o),
(315,570,o),
(321,552,cs),
(518,0,l),
(608,0,l),
(356,700,l),
(257,700,l),
(4,0,l)
);
},
{
closed = 1;
nodes = (
(484,180,l),
(484,254,l),
(125,254,l),
(125,180,l)
);
}
);
width = 613;
},
{
anchors = (
{
name = bottom;
pos = (246,0);
},
{
name = ogonek;
pos = (511,0);
},
{
name = top;
pos = (246,700);
}
);
background = {
anchors = (
{
name = bottom;
pos = (246,0);
},
{
name = ogonek;
pos = (511,0);
},
{
name = top;
pos = (246,700);
}
);
shapes = (
{
closed = 1;
nodes = (
(88,0,l),
(231,528,ls),
(236,547,o),
(239,570,o),
(243,589,c),
(248,589,l),
(251,570,o),
(254,547,o),
(259,528,cs),
(401,0,l),
(491,0,l),
(296,700,l),
(194,700,l),
(-2,0,l)
);
},
{
closed = 1;
nodes = (
(387,180,l),
(387,254,l),
(103,254,l),
(103,180,l)
);
}
);
};
layerId = "76F17502-367F-435E-B23E-ED9D928E777B";
shapes = (
{
closed = 1;
nodes = (
(88,0,l),
(231,528,ls),
(236,547,o),
(239,570,o),
(243,589,c),
(248,589,l),
(251,570,o),
(254,547,o),
(259,528,cs),
(401,0,l),
(491,0,l),
(296,700,l),
(194,700,l),
(-2,0,l)
);
},
{
closed = 1;
nodes = (
(387,180,l),
(387,254,l),
(103,254,l),
(103,180,l)
);
}
);
width = 490;
},
{
anchors = (
{
name = bottom;
pos = (246,0);
},
{
name = ogonek;
pos = (528,0);
},
{
name = top;
pos = (246,700);
}
);
background = {
anchors = (
{
name = bottom;
pos = (246,0);
},
{
name = ogonek;
pos = (528,0);
},
{
name = top;
pos = (246,700);
}
);
shapes = (
{
closed = 1;
nodes = (
(51,0,l),
(202,528,ls),
(218,585,o),
(235,641,o),
(243,669,c),
(248,669,l),
(254,641,o),
(272,585,o),
(288,528,cs),
(439,0,l),
(479,0,l),
(276,700,l),
(214,700,l),
(11,0,l)
);
},
{
closed = 1;
nodes = (
(403,200,l),
(403,233,l),
(88,233,l),
(88,200,l)
);
}
);
};
layerId = "534F5340-05B5-45BC-BA3B-B28DD92592EB";
shapes = (
{
closed = 1;
nodes = (
(51,0,l),
(202,528,ls),
(218,585,o),
(235,641,o),
(243,669,c),
(248,669,l),
(254,641,o),
(272,585,o),
(288,528,cs),
(439,0,l),
(479,0,l),
(276,700,l),
(214,700,l),
(11,0,l)
);
},
{
closed = 1;
nodes = (
(403,200,l),
(403,233,l),
(88,233,l),
(88,200,l)
);
}
);
width = 490;
},
{
anchors = (
{
name = bottom;
pos = (308,0);
},
{
name = ogonek;
pos = (669,0);
},
{
name = top;
pos = (308,700);
}
);
background = {
anchors = (
{
name = bottom;
pos = (308,0);
},
{
name = ogonek;
pos = (669,0);
},
{
name = top;
pos = (308,700);
}
);
shapes = (
{
closed = 1;
nodes = (
(45,0,l),
(261,552,ls),
(278,595,o),
(291,631,o),
(306,669,c),
(308,669,l),
(321,631,o),
(334,593,o),
(350,552,cs),
(568,0,l),
(609,0,l),
(336,700,l),
(276,700,l),
(4,0,l)
);
},
{
closed = 1;
nodes = (
(505,200,l),
(505,233,l),
(106,233,l),
(106,200,l)
);
}
);
};
layerId = "84AA6C20-0662-4373-B7CF-A8F69217EDA9";
shapes = (
{
closed = 1;
nodes = (
(45,0,l),
(261,552,ls),
(278,595,o),
(291,631,o),
(306,669,c),
(308,669,l),
(321,631,o),
(334,593,o),
(350,552,cs),
(568,0,l),
(609,0,l),
(336,700,l),
(276,700,l),
(4,0,l)
);
},
{
closed = 1;
nodes = (
(505,200,l),
(505,233,l),
(106,233,l),
(106,200,l)
);
}
);
width = 613;
},
{
anchors = (
{
name = bottom;
pos = (245,0);
},
{
name = ogonek;
pos = (512,0);
},
{
name = top;
pos = (245,700);
}
);
background = {
anchors = (
{
name = bottom;
pos = (245,0);
},
{
name = ogonek;
pos = (512,0);
},
{
name = top;
pos = (245,700);
}
);
shapes = (
{
closed = 1;
nodes = (
(169,0,l),
(233,485,ls),
(235,503,o),
(239,527,o),
(241,551,c),
(246,551,l),
(249,527,o),
(253,503,o),
(255,485,cs),
(322,0,l),
(501,0,l),
(376,700,l),
(113,700,l),
(-10,0,l)
);
},
{
closed = 1;
nodes = (
(378,121,l),
(378,272,l),
(111,272,l),
(111,121,l)
);
}
);
};
layerId = "A5A92505-053D-4D0C-ACDC-6F8463E28DE4";
shapes = (
{
closed = 1;
nodes = (
(169,0,l),
(233,485,ls),
(235,503,o),
(239,527,o),
(241,551,c),
(246,551,l),
(249,527,o),
(253,503,o),
(255,485,cs),
(322,0,l),
(501,0,l),
(376,700,l),
(113,700,l),
(-10,0,l)
);
},
{
closed = 1;
nodes = (
(378,121,l),
(378,272,l),
(111,272,l),
(111,121,l)
);
}
);
width = 490;
},
{
anchors = (
{
name = bottom;
pos = (307,0);
},
{
name = ogonek;
pos = (648,0);
},
{
name = top;
pos = (307,700);
}
);
background = {
anchors = (
{
name = bottom;
pos = (307,0);
},
{
name = ogonek;
pos = (648,0);
},
{
name = top;
pos = (307,700);
}
);
shapes = (
{
closed = 1;
nodes = (
(165,0,l),
(289,451,ls),
(295,472,o),
(300,494,o),
(304,515,c),
(308,515,l),
(312,494,o),
(317,472,o),
(323,451,cs),
(450,0,l),
(637,0,l),
(420,700,l),
(194,700,l),
(-22,0,l)
);
},
{
closed = 1;
nodes = (
(477,121,l),
(477,273,l),
(135,273,l),
(135,121,l)
);
}
);
};
layerId = "ACEF5F79-87A6-4D8B-B169-2BFCF1568BF8";
shapes = (
{
closed = 1;
nodes = (
(165,0,l),
(289,451,ls),
(295,472,o),
(300,494,o),
(304,515,c),
(308,515,l),
(312,494,o),
(317,472,o),
(323,451,cs),
(450,0,l),
(637,0,l),
(420,700,l),
(194,700,l),
(-22,0,l)
);
},
{
closed = 1;
nodes = (
(477,121,l),
(477,273,l),
(135,273,l),
(135,121,l)
);
}
);
width = 613;
},
{
anchors = (
{
name = bottom;
pos = (368,0);
},
{
name = ogonek;
pos = (768,0);
},
{
name = top;
pos = (368,700);
}
);
background = {
anchors = (
{
name = bottom;
pos = (368,0);
},
{
name = ogonek;
pos = (768,0);
},
{
name = top;
pos = (368,700);
}
);
shapes = (
{
closed = 1;
nodes = (
(188,0,l),
(346,471,ls),
(353,491,o),
(361,514,o),
(365,535,c),
(369,535,l),
(373,514,o),
(381,491,o),
(388,471,cs),
(548,0,l),
(748,0,l),
(485,700,l),
(249,700,l),
(-12,0,l)
);
},
{
closed = 1;
nodes = (
(537,121,l),
(537,273,l),
(195,273,l),
(195,121,l)
);
}
);
};
layerId = "2EA36C28-4342-4323-91EA-7DB25AD3237F";
shapes = (
{
closed = 1;
nodes = (
(188,0,l),
(346,471,ls),
(353,491,o),
(361,514,o),
(365,535,c),
(369,535,l),
(373,514,o),
(381,491,o),
(388,471,cs),
(548,0,l),
(748,0,l),
(485,700,l),
(249,700,l),
(-12,0,l)
);
},
{
closed = 1;
nodes = (
(537,121,l),
(537,273,l),
(195,273,l),
(195,121,l)
);
}
);
width = 735;
},
{
anchors = (
{
name = bottom;
pos = (368,0);
},
{
name = ogonek;
pos = (754,0);
},
{
name = top;
pos = (368,700);
}
);
background = {
anchors = (
{
name = bottom;
pos = (368,0);
},
{
name = ogonek;
pos = (754,0);
},
{
name = top;
pos = (368,700);
}
);
shapes = (
{
closed = 1;
nodes = (
(107,0,l),
(333,548,ls),
(345,578,o),
(361,617,o),
(367,640,c),
(369,640,l),
(375,613,o),
(390,574,o),
(401,548,cs),
(625,0,l),
(719,0,l),
(426,700,l),
(309,700,l),
(16,0,l)
);
},
{
closed = 1;
nodes = (
(575,180,l),
(575,254,l),
(156,254,l),
(156,180,l)
);
}
);
};
layerId = "8ED31224-68B7-412A-B4C3-E53F784CF4E5";
shapes = (
{
closed = 1;
nodes = (
(107,0,l),
(333,548,ls),
(345,578,o),
(361,617,o),
(367,640,c),
(369,640,l),
(375,613,o),
(390,574,o),
(401,548,cs),
(625,0,l),
(719,0,l),
(426,700,l),
(309,700,l),
(16,0,l)
);
},
{
closed = 1;
nodes = (
(575,180,l),
(575,254,l),
(156,254,l),
(156,180,l)
);
}
);
width = 735;
},
{
anchors = (
{
name = bottom;
pos = (368,0);
},
{
name = ogonek;
pos = (791,0);
},
{
name = top;
pos = (368,700);
}
);
background = {
anchors = (
{
name = bottom;
pos = (368,0);
},
{
name = ogonek;
pos = (791,0);
},
{
name = top;
pos = (368,700);
}
);
shapes = (
{
closed = 1;
nodes = (
(55,0,l),
(313,552,ls),
(331,591,o),
(349,631,o),
(367,670,c),
(369,670,l),
(387,631,o),
(405,591,o),
(423,552,cs),
(680,0,l),
(721,0,l),
(397,700,l),
(338,700,l),
(14,0,l)
);
},
{
closed = 1;
nodes = (
(596,200,l),
(596,233,l),
(137,233,l),
(137,200,l)
);
}
);
};
layerId = "79DB91E0-15EF-4446-816D-FE9384315D55";
shapes = (
{
closed = 1;
nodes = (
(55,0,l),
(313,552,ls),
(331,591,o),
(349,631,o),
(367,670,c),
(369,670,l),
(387,631,o),
(405,591,o),
(423,552,cs),
(680,0,l),
(721,0,l),
(397,700,l),
(338,700,l),
(14,0,l)
);
},
{
closed = 1;
nodes = (
(596,200,l),
(596,233,l),
(137,233,l),
(137,200,l)
);
}
);
width = 735;
}
);
unicode = 65;
userData = {
RMXScaler = {
source = A;
};
};
},
{
glyphname = AE;
kernLeft = AE;
kernRight = E;
layers = (
{
anchors = (
{
name = bottom;
pos = (463,0);
},
{
name = top;
pos = (463,700);
}
);
background = {
anchors = (
{
name = bottom;
pos = (463,0);
},
{
name = top;
pos = (463,700);
}
);
shapes = (
{
closed = 1;
nodes = (
(60,-2,ls),
(80,-2,o),
(94,2,o),
(100,14,cs),
(382,608,l),
(386,608,l),
(466,30,ls),
(469,9,o),
(475,0,o),
(497,0,cs),
(796,0,ls),
(810,0,o),
(816,9,o),
(816,30,cs),
(816,46,ls),
(816,67,o),
(810,76,o),
(796,76,cs),
(550,76,l),
(516,320,l),
(765,320,ls),
(779,320,o),
(785,329,o),
(785,350,cs),
(785,366,ls),
(785,387,o),
(779,396,o),
(765,396,cs),
(506,396,l),
(474,624,l),
(795,624,ls),
(809,624,o),
(815,633,o),
(815,654,cs),
(815,670,ls),
(815,691,o),
(809,700,o),
(795,700,cs),
(366,700,ls),
(343,700,o),
(331,694,o),
(326,684,cs),
(15,29,ls),
(12,23,o),
(11,19,o),
(11,15,cs),
(11,4,o),
(25,-2,o),
(55,-2,cs)
);
},
{
closed = 1;
nodes = (
(484,180,l),
(484,254,l),
(151,254,l),
(151,180,l)
);
}
);
};
layerId = UUID0;
shapes = (
{
closed = 1;
nodes = (
(93,0,l),
(382,608,l),
(386,608,l),
(470,0,l),
(816,0,l),
(816,76,l),
(550,76,l),
(516,320,l),
(785,320,l),
(785,396,l),
(506,396,l),
(474,624,l),
(815,624,l),
(815,700,l),
(334,700,l),
(1,0,l)
);
},
{
closed = 1;
nodes = (
(484,180,l),
(484,254,l),
(151,254,l),
(151,180,l)
);
}
);
width = 865;
},
{
anchors = (
{
name = bottom;
pos = (365,0);
},
{
name = top;
pos = (365,700);
}
);
background = {
anchors = (
{
name = bottom;
pos = (365,0);
},
{
name = top;
pos = (365,700);
}
);
shapes = (
{
closed = 1;
nodes = (
(57,-2,ls),
(75,-2,o),
(88,2,o),
(93,14,cs),
(312,587,l),
(316,587,l),
(386,30,ls),
(389,9,o),
(395,0,o),
(417,0,cs),
(660,0,ls),
(674,0,o),
(680,9,o),
(680,30,cs),
(680,46,ls),
(680,67,o),
(674,76,o),
(660,76,cs),
(471,76,l),
(440,320,l),
(637,320,ls),
(651,320,o),
(657,329,o),
(657,350,cs),
(657,366,ls),
(657,387,o),
(651,396,o),
(637,396,cs),
(431,396,l),
(402,624,l),
(660,624,ls),
(674,624,o),
(680,633,o),
(680,654,cs),
(680,670,ls),
(680,691,o),
(674,700,o),
(660,700,cs),
(301,700,ls),
(278,700,o),
(266,694,o),
(261,681,cs),
(6,28,ls),
(4,23,o),
(3,19,o),
(3,15,cs),
(3,5,o),
(15,-2,o),
(41,-2,cs)
);
},
{
closed = 1;
nodes = (
(397,180,l),
(397,254,l),
(103,254,l),
(103,180,l)
);
}
);
};
layerId = "76F17502-367F-435E-B23E-ED9D928E777B";
shapes = (
{
closed = 1;
nodes = (
(87,0,l),
(312,587,l),
(316,587,l),
(390,0,l),
(680,0,l),
(680,76,l),
(471,76,l),
(440,320,l),
(657,320,l),
(657,396,l),
(431,396,l),
(402,624,l),
(680,624,l),
(680,700,l),
(268,700,l),
(-5,0,l)
);
},
{
closed = 1;
nodes = (
(397,180,l),
(397,254,l),
(103,254,l),
(103,180,l)
);
}
);
width = 690;
},
{
anchors = (
{
name = bottom;
pos = (365,0);
},
{
name = top;
pos = (365,700);
}
);
background = {
anchors = (
{
name = bottom;
pos = (365,0);
},
{
name = top;
pos = (365,700);
}
);
shapes = (
{
closed = 1;
nodes = (
(36,-2,ls),
(46,-2,o),
(51,2,o),
(54,10,cs),
(325,667,l),
(329,667,l),
(412,14,ls),
(413,4,o),
(417,0,o),
(428,0,cs),
(629,0,ls),
(637,0,o),
(641,4,o),
(641,14,cs),
(641,22,ls),
(641,32,o),
(637,36,o),
(629,36,cs),
(450,36,l),
(410,340,l),
(604,340,ls),
(612,340,o),
(616,344,o),
(616,354,cs),
(616,362,ls),
(616,372,o),
(612,376,o),
(604,376,cs),
(406,376,l),
(369,664,l),
(627,664,ls),
(635,664,o),
(639,668,o),
(639,678,cs),
(639,686,ls),
(639,696,o),
(635,700,o),
(627,700,cs),
(321,700,ls),
(304,700,o),
(296,694,o),
(291,681,cs),
(17,21,ls),
(14,14,o),
(13,10,o),
(13,8,cs),
(13,1,o),
(18,-2,o),
(28,-2,cs)
);
},
{
closed = 1;
nodes = (
(403,200,l),
(403,233,l),
(118,233,l),
(118,200,l)
);
}
);
};
layerId = "534F5340-05B5-45BC-BA3B-B28DD92592EB";
shapes = (
{
closed = 1;
nodes = (
(50,0,l),
(325,667,l),
(329,667,l),
(414,0,l),
(641,0,l),
(641,36,l),
(450,36,l),
(410,340,l),
(616,340,l),
(616,376,l),
(406,376,l),
(369,664,l),
(639,664,l),
(639,700,l),
(299,700,l),
(8,0,l)
);
},
{
closed = 1;
nodes = (
(403,200,l),
(403,233,l),
(118,233,l),
(118,200,l)
);
}
);
width = 690;
},
{
anchors = (
{
name = bottom;
pos = (463,0);
},
{
name = top;
pos = (463,700);
}
);
background = {
anchors = (
{
name = bottom;
pos = (463,0);
},
{
name = top;
pos = (463,700);
}
);
shapes = (
{
closed = 1;
nodes = (
(28,-2,ls),
(42,-2,o),
(45,-1,o),
(51,10,cs),
(395,667,l),
(399,667,l),
(491,14,ls),
(492,4,o),
(496,0,o),
(507,0,cs),
(805,0,ls),
(813,0,o),
(817,4,o),
(817,14,cs),
(817,22,ls),
(817,32,o),
(813,36,o),
(805,36,cs),
(528,36,l),
(485,340,l),
(775,340,ls),
(783,340,o),
(787,344,o),
(787,354,cs),
(787,362,ls),
(787,372,o),
(783,376,o),
(775,376,cs),
(480,376,l),
(440,664,l),
(805,664,ls),
(813,664,o),
(817,668,o),
(817,678,cs),
(817,686,ls),
(817,696,o),
(813,700,o),
(805,700,cs),
(390,700,ls),
(374,700,o),
(367,695,o),
(361,684,cs),
(11,17,ls),
(9,13,o),
(8,11,o),
(8,8,cs),
(8,2,o),
(13,-2,o),
(23,-2,cs)
);
},
{
closed = 1;
nodes = (
(491,200,l),
(491,233,l),
(136,233,l),
(136,200,l)
);
}
);
};
layerId = "84AA6C20-0662-4373-B7CF-A8F69217EDA9";
shapes = (
{
closed = 1;
nodes = (
(46,0,l),
(395,667,l),
(399,667,l),
(493,0,l),
(817,0,l),
(817,36,l),
(528,36,l),
(485,340,l),
(787,340,l),
(787,376,l),
(480,376,l),
(440,664,l),
(817,664,l),
(817,700,l),
(369,700,l),
(2,0,l)
);
},
{
closed = 1;
nodes = (
(491,200,l),
(491,233,l),
(136,233,l),
(136,200,l)
);
}
);
width = 865;
},
{
anchors = (
{
name = bottom;
pos = (345,0);
},
{
name = top;
pos = (345,700);
}
);
background = {
anchors = (
{
name = bottom;
pos = (345,0);
},
{
name = top;
pos = (345,700);
}
);
shapes = (
{
closed = 1;
nodes = (
(106,-2,ls),
(138,-2,o),
(167,3,o),
(174,34,cs),
(288,549,l),
(292,549,l),
(339,40,ls),
(342,12,o),
(356,0,o),
(396,0,cs),
(636,0,ls),
(664,0,o),
(676,18,o),
(676,60,cs),
(676,111,ls),
(676,153,o),
(664,171,o),
(636,171,cs),
(507,171,l),
(498,273,l),
(616,273,ls),
(644,273,o),
(656,291,o),
(656,333,cs),
(656,384,ls),
(656,426,o),
(644,444,o),
(616,444,cs),
(482,444,l),
(474,529,l),
(636,529,ls),
(664,529,o),
(676,547,o),
(676,589,cs),
(676,640,ls),
(676,682,o),
(664,700,o),
(636,700,cs),
(268,700,ls),
(191,700,o),
(163,688,o),
(151,642,cs),
(-6,58,ls),
(-9,47,o),
(-11,37,o),
(-11,30,cs),
(-11,6,o),
(13,-2,o),
(53,-2,cs)
);
},
{
closed = 1;
nodes = (
(418,121,l),
(418,272,l),
(121,272,l),
(121,121,l)
);
}
);
};
layerId = "A5A92505-053D-4D0C-ACDC-6F8463E28DE4";
shapes = (
{
closed = 1;
nodes = (
(166,0,l),
(288,549,l),
(292,549,l),
(343,0,l),
(676,0,l),
(676,171,l),
(507,171,l),
(498,273,l),
(656,273,l),
(656,444,l),
(482,444,l),
(474,529,l),
(676,529,l),
(676,700,l),
(166,700,l),
(-21,0,l)
);
},
{
closed = 1;
nodes = (
(418,121,l),
(418,272,l),
(121,272,l),
(121,121,l)
);
}
);
width = 690;
},
{
anchors = (
{
name = bottom;
pos = (433,0);
},
{
name = top;
pos = (433,700);
}
);
background = {
anchors = (
{
name = bottom;
pos = (433,0);
},
{
name = top;
pos = (433,700);
}
);
shapes = (
{
closed = 1;
nodes = (
(111,-2,ls),
(155,-2,o),
(169,4,o),
(181,37,cs),
(360,513,l),
(364,513,l),
(419,40,ls),
(422,12,o),
(436,0,o),
(476,0,cs),
(800,0,ls),
(828,0,o),
(840,18,o),
(840,60,cs),
(840,111,ls),
(840,153,o),
(828,171,o),
(800,171,cs),
(590,171,l),
(578,273,l),
(772,273,ls),
(800,273,o),
(812,291,o),
(812,333,cs),
(812,384,ls),
(812,426,o),
(800,444,o),
(772,444,cs),
(558,444,l),
(548,529,l),
(799,529,ls),
(827,529,o),
(839,547,o),
(839,589,cs),
(839,640,ls),
(839,682,o),
(827,700,o),
(799,700,cs),
(322,700,ls),
(279,700,o),
(263,693,o),
(246,652,cs),
(1,74,ls),
(-7,56,o),
(-13,41,o),
(-13,28,cs),
(-13,9,o),
(2,-2,o),
(46,-2,cs)
);
},
{
closed = 1;
nodes = (
(487,121,l),
(487,273,l),
(145,273,l),
(145,121,l)
);
}
);
};
layerId = "ACEF5F79-87A6-4D8B-B169-2BFCF1568BF8";
shapes = (
{
closed = 1;
nodes = (
(167,0,l),
(360,513,l),
(364,513,l),
(424,0,l),
(840,0,l),
(840,171,l),
(590,171,l),
(578,273,l),
(812,273,l),
(812,444,l),
(558,444,l),
(548,529,l),
(839,529,l),
(839,700,l),
(267,700,l),
(-31,0,l)
);
},
{
closed = 1;
nodes = (
(487,121,l),
(487,273,l),
(145,273,l),
(145,121,l)
);
}
);
width = 865;
},
{
anchors = (
{
name = bottom;
pos = (520,0);
},
{
name = top;
pos = (520,700);
}
);
background = {
anchors = (
{
name = bottom;
pos = (520,0);
},
{
name = top;
pos = (520,700);
}
);
shapes = (
{
closed = 1;
nodes = (
(136,-2,ls),
(180,-2,o),
(192,6,o),
(206,37,cs),
(435,533,l),
(439,533,l),
(510,40,ls),
(514,12,o),
(527,0,o),
(567,0,cs),
(932,0,ls),
(960,0,o),
(972,18,o),
(972,60,cs),
(972,111,ls),
(972,153,o),
(960,171,o),
(932,171,cs),
(684,171,l),
(669,273,l),
(904,273,ls),
(932,273,o),
(944,291,o),
(944,333,cs),
(944,384,ls),
(944,426,o),
(932,444,o),
(904,444,cs),
(645,444,l),
(632,529,l),
(931,529,ls),
(959,529,o),
(971,547,o),
(971,589,cs),
(971,640,ls),
(971,682,o),
(959,700,o),
(931,700,cs),
(391,700,ls),
(332,700,o),
(319,690,o),
(300,652,cs),
(11,74,ls),
(2,56,o),
(-4,42,o),
(-4,29,cs),
(-4,10,o),
(12,-2,o),
(56,-2,cs)
);
},
{
closed = 1;
nodes = (
(577,121,l),
(577,273,l),
(165,273,l),
(165,121,l)
);
}
);
};
layerId = "2EA36C28-4342-4323-91EA-7DB25AD3237F";
shapes = (
{
closed = 1;
nodes = (
(189,0,l),
(435,533,l),
(439,533,l),
(516,0,l),
(972,0,l),
(972,171,l),
(684,171,l),
(669,273,l),
(944,273,l),
(944,444,l),
(645,444,l),
(632,529,l),
(971,529,l),
(971,700,l),
(324,700,l),
(-26,0,l)
);
},
{
closed = 1;
nodes = (
(577,121,l),
(577,273,l),
(165,273,l),
(165,121,l)
);
}
);
width = 1020;
},
{
anchors = (
{
name = bottom;
pos = (540,0);
},
{
name = top;
pos = (540,700);
}
);
background = {
anchors = (
{
name = bottom;
pos = (540,0);
},
{
name = top;
pos = (540,700);
}
);
shapes = (
{
closed = 1;
nodes = (
(73,-2,ls),
(93,-2,o),
(105,0,o),
(114,17,cs),
(460,638,l),
(464,638,l),
(557,30,ls),
(560,9,o),
(566,0,o),
(588,0,cs),
(946,0,ls),
(960,0,o),
(966,9,o),
(966,30,cs),
(966,46,ls),
(966,67,o),
(960,76,o),
(946,76,cs),
(641,76,l),
(604,320,l),
(915,320,ls),
(929,320,o),
(935,329,o),
(935,350,cs),
(935,366,ls),
(935,387,o),
(929,396,o),
(915,396,cs),
(592,396,l),
(557,624,l),
(945,624,ls),
(959,624,o),
(965,633,o),
(965,654,cs),
(965,670,ls),
(965,691,o),
(959,700,o),
(945,700,cs),
(444,700,ls),
(416,700,o),
(402,694,o),
(394,679,cs),
(26,29,ls),
(23,23,o),
(21,19,o),
(21,15,cs),
(21,4,o),
(36,-2,o),
(66,-2,cs)
);
},
{
closed = 1;
nodes = (
(575,180,l),
(575,254,l),
(176,254,l),
(176,180,l)
);
}
);
};
layerId = "8ED31224-68B7-412A-B4C3-E53F784CF4E5";
shapes = (
{
closed = 1;
nodes = (
(105,0,l),
(460,638,l),
(464,638,l),
(561,0,l),
(966,0,l),
(966,76,l),
(641,76,l),
(604,320,l),
(935,320,l),
(935,396,l),
(592,396,l),
(557,624,l),
(965,624,l),
(965,700,l),
(406,700,l),
(9,0,l)
);
},
{
closed = 1;
nodes = (
(575,180,l),
(575,254,l),
(176,254,l),
(176,180,l)
);
}
);
width = 1020;
},
{
anchors = (
{
name = bottom;
pos = (550,0);
},
{
name = top;
pos = (550,700);
}
);
background = {
anchors = (
{
name = bottom;
pos = (550,0);
},
{
name = top;
pos = (550,700);
}
);
shapes = (
{
closed = 1;
nodes = (
(39,-2,ls),
(53,-2,o),
(55,-1,o),
(62,10,cs),
(471,668,l),
(475,668,l),
(582,14,ls),
(584,4,o),
(587,0,o),
(598,0,cs),
(968,0,ls),
(976,0,o),
(980,4,o),
(980,14,cs),
(980,22,ls),
(980,32,o),
(976,36,o),
(968,36,cs),
(619,36,l),
(569,340,l),
(938,340,ls),
(946,340,o),
(950,344,o),
(950,354,cs),
(950,362,ls),
(950,372,o),
(946,376,o),
(938,376,cs),
(563,376,l),
(516,664,l),
(968,664,ls),
(976,664,o),
(980,668,o),
(980,678,cs),
(980,686,ls),
(980,696,o),
(976,700,o),
(968,700,cs),
(466,700,ls),
(449,700,o),
(442,694,o),
(436,684,cs),
(22,17,ls),
(20,14,o),
(18,10,o),
(18,7,cs),
(18,1,o),
(24,-2,o),
(34,-2,cs)
);
},
{
closed = 1;
nodes = (
(569,200,l),
(569,233,l),
(167,233,l),
(167,200,l)
);
}
);
};
layerId = "79DB91E0-15EF-4446-816D-FE9384315D55";
shapes = (
{
closed = 1;
nodes = (
(56,0,l),
(471,668,l),
(475,668,l),
(584,0,l),
(980,0,l),
(980,36,l),
(619,36,l),
(569,340,l),
(950,340,l),
(950,376,l),
(563,376,l),
(516,664,l),
(980,664,l),
(980,700,l),
(446,700,l),
(11,0,l)
);
},
{
closed = 1;
nodes = (
(569,200,l),
(569,233,l),
(167,233,l),
(167,200,l)
);
}
);
width = 1020;
}
);
metricRight = E;
unicode = 198;
userData = {
RMXScaler = {
source = AE;
};
};
},
{
glyphname = B;
kernLeft = H;
kernRight = B;
layers = (
{
anchors = (
{
name = bottom;
pos = (297,0);
},
{
name = top;
pos = (297,700);
}
);
background = {
anchors = (
{
name = bottom;
pos = (297,0);
},
{
name = top;
pos = (297,700);
}
);
shapes = (
{
closed = 1;
nodes = (
(299,0,ls),
(467,0,o),
(560,62,o),
(560,201,cs),
(560,283,o),
(507,345,o),
(420,365,c),
(420,369,l),
(478,385,o),
(530,455,o),
(530,523,cs),
(530,628,o),
(455,700,o),
(306,700,cs),
(128,700,ls),
(106,700,o),
(97,691,o),
(97,670,cs),
(97,30,ls),
(97,9,o),
(106,0,o),
(128,0,cs)
);
},
{
closed = 1;
nodes = (
(187,320,l),
(314,320,ls),
(417,320,o),
(469,275,o),
(469,200,cs),
(469,123,o),
(417,76,o),
(331,76,cs),
(187,76,l)
);
},
{
closed = 1;
nodes = (
(187,624,l),
(297,624,ls),
(397,624,o),
(439,589,o),
(439,515,cs),
(439,449,o),
(382,396,o),
(301,396,cs),
(187,396,l)
);
}
);
};
layerId = UUID0;
shapes = (
{
closed = 1;
nodes = (
(299,0,ls),
(467,0,o),
(560,62,o),
(560,201,cs),
(560,283,o),
(507,345,o),
(420,365,c),
(420,369,l),
(478,385,o),
(530,455,o),
(530,523,cs),
(530,628,o),
(455,700,o),
(306,700,cs),
(97,700,l),
(97,0,l)
);
},
{
closed = 1;
nodes = (
(187,320,l),
(314,320,ls),
(417,320,o),
(469,275,o),
(469,200,cs),
(469,123,o),
(417,76,o),
(331,76,cs),
(187,76,l)
);
},
{
closed = 1;
nodes = (
(187,624,l),
(297,624,ls),
(397,624,o),
(439,589,o),
(439,515,cs),
(439,449,o),
(382,396,o),
(301,396,cs),
(187,396,l)
);
}
);
width = 593;
},
{
anchors = (
{
name = bottom;
pos = (251,0);
},
{
name = top;
pos = (251,700);
}
);
background = {
anchors = (
{
name = bottom;
pos = (251,0);
},
{
name = top;
pos = (251,700);
}
);
shapes = (
{
closed = 1;
nodes = (
(256,0,ls),
(394,0,o),
(464,67,o),
(464,198,cs),
(464,277,o),
(421,340,o),
(351,365,c),
(351,369,l),
(405,391,o),
(437,444,o),
(437,510,cs),
(437,636,o),
(373,700,o),
(245,700,cs),
(110,700,ls),
(90,700,o),
(82,691,o),
(82,670,cs),
(82,30,ls),
(82,9,o),
(91,0,o),
(113,0,cs)
);
},
{
closed = 1;
nodes = (
(172,320,l),
(245,320,ls),
(329,320,o),
(373,274,o),
(373,198,cs),
(373,117,o),
(334,76,o),
(256,76,cs),
(172,76,l)
);
},
{
closed = 1;
nodes = (
(172,624,l),
(245,624,ls),
(313,624,o),
(348,586,o),
(348,510,cs),
(348,439,o),
(309,396,o),
(245,396,cs),
(172,396,l)
);
}
);
};
guides = (
{
pos = (287,198);
},
{
pos = (276,510);
}
);
layerId = "76F17502-367F-435E-B23E-ED9D928E777B";
shapes = (
{
closed = 1;
nodes = (
(256,0,ls),
(394,0,o),
(464,67,o),
(464,198,cs),
(464,277,o),
(421,340,o),
(351,365,c),
(351,369,l),
(405,391,o),
(437,444,o),
(437,510,cs),
(437,636,o),
(373,700,o),
(245,700,cs),
(82,700,l),
(82,0,l)
);
},
{
closed = 1;
nodes = (
(172,320,l),
(245,320,ls),
(329,320,o),
(373,274,o),
(373,198,cs),
(373,117,o),
(334,76,o),
(256,76,cs),
(172,76,l)
);
},
{
closed = 1;
nodes = (
(172,624,l),
(245,624,ls),
(313,624,o),
(348,586,o),
(348,510,cs),
(348,439,o),
(309,396,o),
(245,396,cs),
(172,396,l)
);
}
);
width = 474;
},
{
anchors = (
{
name = bottom;
pos = (251,0);
},
{
name = top;
pos = (251,700);
}
);
background = {
anchors = (
{
name = bottom;
pos = (251,0);
},
{
name = top;
pos = (251,700);
}
);
shapes = (
{
closed = 1;
nodes = (
(252,0,ls),
(386,0,o),
(454,61,o),
(454,181,cs),
(454,272,o),
(415,332,o),
(339,359,c),
(339,364,l),
(399,385,o),
(430,439,o),
(430,523,cs),
(430,640,o),
(370,700,o),
(252,700,cs),
(124,700,ls),
(113,700,o),
(108,696,o),
(108,686,cs),
(108,14,ls),
(108,4,o),
(113,0,o),
(124,0,cs)
);
},
{
closed = 1;
nodes = (
(148,340,l),
(252,340,ls),
(358,340,o),
(412,286,o),
(412,181,cs),
(412,85,o),
(358,36,o),
(252,36,cs),
(148,36,l)
);
},
{
closed = 1;
nodes = (
(148,664,l),
(252,664,ls),
(343,664,o),
(389,616,o),
(389,523,cs),
(389,426,o),
(343,376,o),
(252,376,cs),
(148,376,l)
);
}
);
};
layerId = "534F5340-05B5-45BC-BA3B-B28DD92592EB";
shapes = (
{
closed = 1;
nodes = (
(252,0,ls),
(386,0,o),
(454,61,o),
(454,181,cs),
(454,272,o),
(415,332,o),
(339,359,c),
(339,364,l),
(399,385,o),
(430,439,o),
(430,523,cs),
(430,640,o),
(370,700,o),
(252,700,cs),
(108,700,l),
(108,0,l)
);
},
{
closed = 1;
nodes = (
(148,340,l),
(252,340,ls),
(358,340,o),
(412,286,o),
(412,181,cs),
(412,85,o),
(358,36,o),
(252,36,cs),
(148,36,l)
);
},
{
closed = 1;
nodes = (
(148,664,l),
(252,664,ls),
(343,664,o),
(389,616,o),
(389,523,cs),
(389,426,o),
(343,376,o),
(252,376,cs),
(148,376,l)
);
}
);
width = 474;
},
{
anchors = (
{
name = bottom;
pos = (297,0);
},
{
name = top;
pos = (297,700);
}
);
background = {
anchors = (
{
name = bottom;
pos = (297,0);
},
{
name = top;
pos = (297,700);
}
);
shapes = (
{
closed = 1;
nodes = (
(316,0,ls),
(476,0,o),
(558,61,o),
(558,181,cs),
(558,277,o),
(512,337,o),
(421,357,c),
(421,362,l),
(496,383,o),
(534,438,o),
(534,523,cs),
(534,640,o),
(461,700,o),
(316,700,cs),
(138,700,ls),
(127,700,o),
(122,696,o),
(122,686,cs),
(122,14,ls),
(122,4,o),
(127,0,o),
(138,0,cs)
);
},
{
closed = 1;
nodes = (
(162,340,l),
(326,340,ls),
(449,340,o),
(516,286,o),
(516,181,cs),
(516,85,o),
(449,36,o),
(316,36,cs),
(162,36,l)
);
},
{
closed = 1;
nodes = (
(162,664,l),
(316,664,ls),
(433,664,o),
(492,616,o),
(492,523,cs),
(492,426,o),
(433,376,o),
(326,376,cs),
(162,376,l)
);
}
);
};
layerId = "84AA6C20-0662-4373-B7CF-A8F69217EDA9";
shapes = (
{
closed = 1;
nodes = (
(316,0,ls),
(476,0,o),
(558,61,o),
(558,181,cs),
(558,277,o),
(512,337,o),
(421,357,c),
(421,362,l),
(496,383,o),
(534,438,o),
(534,523,cs),
(534,640,o),
(461,700,o),
(316,700,cs),
(122,700,l),
(122,0,l)
);
},
{
closed = 1;
nodes = (
(162,340,l),
(326,340,ls),
(449,340,o),
(516,286,o),
(516,181,cs),
(516,85,o),
(449,36,o),
(316,36,cs),
(162,36,l)
);
},
{
closed = 1;
nodes = (
(162,664,l),
(316,664,ls),
(433,664,o),
(492,616,o),
(492,523,cs),
(492,426,o),
(433,376,o),
(326,376,cs),
(162,376,l)
);
}
);
width = 593;
},
{
anchors = (
{
name = bottom;
pos = (230,0);
},
{
name = top;
pos = (230,700);
}
);
background = {
anchors = (
{
name = bottom;
pos = (230,0);
},
{
name = top;
pos = (230,700);
}
);
shapes = (
{
closed = 1;
nodes = (
(251,0,ls),
(406,0,o),
(479,84,o),
(479,197,cs),
(479,283,o),
(441,342,o),
(378,362,c),
(377,366,l),
(427,392,o),
(462,436,o),
(462,506,cs),
(462,630,o),
(396,700,o),
(251,700,cs),
(92,700,ls),
(52,700,o),
(35,688,o),
(35,660,cs),
(35,40,ls),
(35,12,o),
(52,0,o),
(92,0,cs)
);
},
{
closed = 1;
nodes = (
(204,288,l),
(251,288,ls),
(287,288,o),
(303,270,o),
(303,227,cs),
(303,184,o),
(287,166,o),
(251,166,cs),
(204,166,l)
);
},
{
closed = 1;
nodes = (
(204,534,l),
(251,534,ls),
(283,534,o),
(297,519,o),
(297,482,cs),
(297,445,o),
(283,429,o),
(251,429,cs),
(204,429,l)
);
}
);
};
layerId = "A5A92505-053D-4D0C-ACDC-6F8463E28DE4";
shapes = (
{
closed = 1;
nodes = (
(251,0,ls),
(406,0,o),
(479,84,o),
(479,197,cs),
(479,283,o),
(441,342,o),
(378,362,c),
(377,366,l),
(427,392,o),
(462,436,o),
(462,506,cs),
(462,630,o),
(396,700,o),
(251,700,cs),
(35,700,l),
(35,0,l)
);
},
{
closed = 1;
nodes = (
(204,288,l),
(251,288,ls),
(287,288,o),
(303,270,o),
(303,227,cs),
(303,184,o),
(287,166,o),
(251,166,cs),
(204,166,l)
);
},
{
closed = 1;
nodes = (
(204,534,l),
(251,534,ls),
(283,534,o),
(297,519,o),
(297,482,cs),
(297,445,o),
(283,429,o),
(251,429,cs),
(204,429,l)
);
}
);
width = 474;
},
{
anchors = (
{
name = bottom;
pos = (304,0);
},
{
name = top;
pos = (304,700);
}
);
background = {
anchors = (
{
name = bottom;
pos = (304,0);
},
{
name = top;
pos = (304,700);
}
);
shapes = (
{
closed = 1;
nodes = (
(328,0,ls),
(496,0,o),
(576,74,o),
(576,203,cs),
(576,280,o),
(528,351,o),
(458,367,c),
(457,371,l),
(513,394,o),
(558,449,o),
(558,513,cs),
(558,624,o),
(489,700,o),
(314,700,cs),
(107,700,ls),
(67,700,o),
(50,688,o),
(50,660,cs),
(50,40,ls),
(50,12,o),
(67,0,o),
(107,0,cs)
);
},
{
closed = 1;
nodes = (
(230,288,l),
(308,288,ls),
(356,288,o),
(376,270,o),
(376,227,cs),
(376,184,o),
(356,166,o),
(308,166,cs),
(230,166,l)
);
},
{
closed = 1;
nodes = (
(230,534,l),
(303,534,ls),
(346,534,o),
(364,518,o),
(364,481,cs),
(364,444,o),
(345,429,o),
(301,429,cs),
(230,429,l)
);
}
);
};
layerId = "ACEF5F79-87A6-4D8B-B169-2BFCF1568BF8";
shapes = (
{
closed = 1;
nodes = (
(328,0,ls),
(496,0,o),
(576,74,o),
(576,203,cs),
(576,280,o),
(528,351,o),
(458,367,c),
(457,371,l),
(513,394,o),
(558,449,o),
(558,513,cs),
(558,624,o),
(489,700,o),
(314,700,cs),
(50,700,l),
(50,0,l)
);
},
{
closed = 1;
nodes = (
(230,288,l),
(308,288,ls),
(356,288,o),
(376,270,o),
(376,227,cs),
(376,184,o),
(356,166,o),
(308,166,cs),
(230,166,l)
);
},
{
closed = 1;
nodes = (
(230,534,l),
(303,534,ls),
(346,534,o),
(364,518,o),
(364,481,cs),
(364,444,o),
(345,429,o),
(301,429,cs),
(230,429,l)
);
}
);
width = 593;
},
{
anchors = (
{
name = bottom;
pos = (322,0);
},
{
name = top;
pos = (322,700);
}
);
background = {
anchors = (
{
name = bottom;
pos = (322,0);
},
{
name = top;
pos = (322,700);
}
);
shapes = (
{
closed = 1;
nodes = (
(446,0,ls),
(600,0,o),
(674,74,o),
(674,203,cs),
(674,280,o),
(626,351,o),
(556,367,c),
(555,371,l),
(611,394,o),
(656,449,o),
(656,513,cs),
(656,624,o),
(593,700,o),
(432,700,cs),
(125,700,ls),
(85,700,o),
(68,688,o),
(68,660,cs),
(68,40,ls),
(68,12,o),
(85,0,o),
(125,0,cs)
);
},
{
closed = 1;
nodes = (
(259,288,l),
(396,288,ls),
(451,288,o),
(474,270,o),
(474,227,cs),
(474,184,o),
(451,166,o),
(396,166,cs),
(259,166,l)
);
},
{
closed = 1;
nodes = (
(259,534,l),
(391,534,ls),
(441,534,o),
(462,518,o),
(462,481,cs),
(462,444,o),
(440,429,o),
(389,429,cs),
(259,429,l)
);
}
);
};
layerId = "2EA36C28-4342-4323-91EA-7DB25AD3237F";
shapes = (
{
closed = 1;
nodes = (
(446,0,ls),
(600,0,o),
(674,74,o),
(674,203,cs),
(674,280,o),
(626,351,o),
(556,367,c),
(555,371,l),
(611,394,o),
(656,449,o),
(656,513,cs),
(656,624,o),
(593,700,o),
(432,700,cs),
(68,700,l),
(68,0,l)
);
},
{
closed = 1;
nodes = (
(259,288,l),
(396,288,ls),
(451,288,o),
(474,270,o),
(474,227,cs),
(474,184,o),
(451,166,o),
(396,166,cs),
(259,166,l)
);
},
{
closed = 1;
nodes = (
(259,534,l),
(391,534,ls),
(441,534,o),
(462,518,o),
(462,481,cs),
(462,444,o),
(440,429,o),
(389,429,cs),
(259,429,l)
);
}
);
width = 700;
},
{
anchors = (
{
name = bottom;
pos = (315,0);
},
{
name = top;
pos = (315,700);
}
);
background = {
anchors = (
{
name = bottom;
pos = (315,0);
},
{
name = top;
pos = (315,700);
}
);
shapes = (
{
closed = 1;
nodes = (
(405,0,ls),
(578,0,o),
(666,68,o),
(666,201,cs),
(666,283,o),
(613,345,o),
(526,365,c),
(526,369,l),
(594,388,o),
(636,446,o),
(636,523,cs),
(636,628,o),
(561,700,o),
(412,700,cs),
(146,700,ls),
(124,700,o),
(115,691,o),
(115,670,cs),
(115,30,ls),
(115,9,o),
(124,0,o),
(146,0,cs)
);
},
{
closed = 1;
nodes = (
(205,320,l),
(420,320,ls),
(523,320,o),
(575,275,o),
(575,200,cs),
(575,118,o),
(528,76,o),
(437,76,cs),
(205,76,l)
);
},
{
closed = 1;
nodes = (
(205,624,l),
(403,624,ls),
(503,624,o),
(545,589,o),
(545,515,cs),
(545,436,o),
(498,396,o),
(407,396,cs),
(205,396,l)
);
}
);
};
layerId = "8ED31224-68B7-412A-B4C3-E53F784CF4E5";
shapes = (
{
closed = 1;
nodes = (
(405,0,ls),
(578,0,o),
(666,68,o),
(666,201,cs),
(666,283,o),
(613,345,o),
(526,365,c),
(526,369,l),
(594,388,o),
(636,446,o),
(636,523,cs),
(636,628,o),
(561,700,o),
(412,700,cs),
(115,700,l),
(115,0,l)
);
},
{
closed = 1;
nodes = (
(205,320,l),
(420,320,ls),
(523,320,o),
(575,275,o),
(575,200,cs),
(575,118,o),
(528,76,o),
(437,76,cs),
(205,76,l)
);
},
{
closed = 1;
nodes = (
(205,624,l),
(403,624,ls),
(503,624,o),
(545,589,o),
(545,515,cs),
(545,436,o),
(498,396,o),
(407,396,cs),
(205,396,l)
);
}
);
width = 700;
},
{
anchors = (
{
name = bottom;
pos = (297,0);
},
{
name = top;
pos = (297,700);
}
);
background = {
anchors = (
{
name = bottom;
pos = (297,0);
},
{
name = top;
pos = (297,700);
}
);
shapes = (
{
closed = 1;
nodes = (
(346,0,ls),
(536,0,o),
(628,61,o),
(628,181,cs),
(628,288,o),
(570,347,o),
(455,357,c),
(455,362,l),
(554,373,o),
(604,427,o),
(604,523,cs),
(604,640,o),
(520,700,o),
(346,700,cs),
(138,700,ls),
(127,700,o),
(122,696,o),
(122,686,cs),
(122,14,ls),
(122,4,o),
(127,0,o),
(138,0,cs)
);
},
{
closed = 1;
nodes = (
(162,340,l),
(356,340,ls),
(512,340,o),
(586,286,o),
(586,181,cs),
(586,85,o),
(508,36,o),
(346,36,cs),
(162,36,l)
);
},
{
closed = 1;
nodes = (
(162,664,l),
(346,664,ls),
(493,664,o),
(562,616,o),
(562,523,cs),
(562,426,o),
(496,376,o),
(356,376,cs),
(162,376,l)
);
}
);
};
layerId = "79DB91E0-15EF-4446-816D-FE9384315D55";
shapes = (
{
closed = 1;
nodes = (
(346,0,ls),
(536,0,o),
(628,61,o),
(628,181,cs),
(628,288,o),
(570,347,o),
(455,357,c),
(455,362,l),
(554,373,o),
(604,427,o),
(604,523,cs),
(604,640,o),
(520,700,o),
(346,700,cs),
(122,700,l),
(122,0,l)
);
},
{
closed = 1;
nodes = (
(162,340,l),
(356,340,ls),
(512,340,o),
(586,286,o),
(586,181,cs),
(586,85,o),
(508,36,o),
(346,36,cs),
(162,36,l)
);
},
{
closed = 1;
nodes = (
(162,664,l),
(346,664,ls),
(493,664,o),
(562,616,o),
(562,523,cs),
(562,426,o),
(496,376,o),
(356,376,cs),
(162,376,l)
);
}
);
width = 700;
}
);
unicode = 66;
userData = {
RMXScaler = {
source = B;
};
};
},
{
glyphname = C;
kernLeft = O;
kernRight = C;
layers = (
{
anchors = (
{
name = bottom;
pos = (372,0);
},
{
name = top;
pos = (365,700);
}
);
background = {
anchors = (
{
name = bottom;
pos = (372,0);
},
{
name = top;
pos = (365,700);
}
);
shapes = (
{
closed = 1;
nodes = (
(454,-6,o),
(518,13,o),
(554,33,cs),
(574,44,o),
(586,55,o),
(586,67,cs),
(586,78,o),
(574,115,o),
(557,115,cs),
(543,115,o),
(483,70,o),
(379,70,cs),
(222,70,o),
(148,157,o),
(148,349,cs),
(148,546,o),
(223,630,o),
(383,630,cs),
(476,630,o),
(525,593,o),
(541,593,cs),
(557,593,o),
(572,629,o),
(572,644,cs),
(572,652,o),
(563,661,o),
(548,670,cs),
(514,689,o),
(449,706,o),
(381,706,cs),
(167,706,o),
(57,589,o),
(57,350,cs),
(57,106,o),
(160,-6,o),
(379,-6,cs)
);
}
);
};
layerId = UUID0;
shapes = (
{
closed = 1;
nodes = (
(466,-6,o),
(538,22,o),
(581,45,c),
(575,120,l),
(512,91,o),
(444,70,o),
(371,70,cs),
(241,70,o),
(148,139,o),
(148,349,cs),
(148,546,o),
(225,630,o),
(380,630,cs),
(436,630,o),
(486,618,o),
(555,594,c),
(569,667,l),
(516,689,o),
(446,706,o),
(377,706,cs),
(206,706,o),
(57,627,o),
(57,350,cs),
(57,73,o),
(197,-6,o),
(366,-6,cs)
);
}
);
width = 619;
},
{
anchors = (
{
name = bottom;
pos = (285,0);
},
{
name = top;
pos = (285,700);
}
);
background = {
anchors = (
{
name = bottom;
pos = (285,0);
},
{
name = top;
pos = (285,700);
}
);
shapes = (
{
closed = 1;
nodes = (
(348,-6,o),
(389,5,o),
(417,19,cs),
(430,26,o),
(433,33,o),
(433,40,cs),
(433,63,o),
(424,91,o),
(410,91,cs),
(398,91,o),
(364,70,o),
(302,70,cs),
(183,70,o),
(133,153,o),
(133,352,cs),
(133,548,o),
(183,630,o),
(303,630,cs),
(356,630,o),
(382,617,o),
(399,617,cs),
(414,617,o),
(421,645,o),
(421,665,cs),
(421,677,o),
(415,683,o),
(404,687,cs),
(379,698,o),
(341,706,o),
(303,706,cs),
(128,706,o),
(42,593,o),
(42,352,cs),
(42,107,o),
(125,-6,o),
(302,-6,cs)
);
}
);
};
guides = (
{
angle = 79.992;
pos = (422,690);
}
);
layerId = "76F17502-367F-435E-B23E-ED9D928E777B";
shapes = (
{
closed = 1;
nodes = (
(336,-6,o),
(376,2,o),
(427,22,c),
(422,94,l),
(378,77,o),
(335,70,o),
(297,70,cs),
(182,70,o),
(133,159,o),
(133,352,cs),
(133,556,o),
(188,630,o),
(302,630,cs),
(333,630,o),
(368,624,o),
(408,613,c),
(421,685,l),
(381,700,o),
(340,706,o),
(297,706,cs),
(165,706,o),
(42,636,o),
(42,352,cs),
(42,107,o),
(127,-6,o),
(292,-6,cs)
);
}
);
width = 450;
},
{
anchors = (
{
name = bottom;
pos = (299,0);
},
{
name = top;
pos = (285,700);
}
);
background = {
shapes = (
{
closed = 1;
nodes = (
(338,-6,o),
(381,3,o),
(434,27,c),
(428,63,l),
(379,41,o),
(337,32,o),
(297,32,cs),
(169,32,o),
(110,150,o),
(110,352,cs),
(110,549,o),
(166,668,o),
(300,668,cs),
(329,668,o),
(364,662,o),
(401,651,c),
(407,687,l),
(366,700,o),
(329,706,o),
(295,706,cs),
(151,706,o),
(68,591,o),
(68,352,cs),
(68,113,o),
(151,-6,o),
(293,-6,cs)
);
}
);
};
guides = (
{
angle = 79.992;
pos = (413,720);
}
);
layerId = "534F5340-05B5-45BC-BA3B-B28DD92592EB";
shapes = (
{
closed = 1;
nodes = (
(338,-6,o),
(379,3,o),
(432,27,c),
(430,63,l),
(381,41,o),
(337,32,o),
(297,32,cs),
(169,32,o),
(110,150,o),
(110,352,cs),
(110,549,o),
(166,668,o),
(300,668,cs),
(329,668,o),
(364,662,o),
(401,651,c),
(407,687,l),
(366,700,o),
(329,706,o),
(295,706,cs),
(151,706,o),
(68,591,o),
(68,352,cs),
(68,113,o),
(151,-6,o),
(293,-6,cs)
);
}
);
width = 450;
},
{
anchors = (
{
name = bottom;
pos = (374,0);
},
{
name = top;
pos = (374,700);
}
);
background = {
shapes = (
{
closed = 1;
nodes = (
(440,-6,o),
(522,26,o),
(571,57,c),
(565,94,l),
(494,54,o),
(429,32,o),
(358,32,cs),
(220,32,o),
(124,125,o),
(124,352,cs),
(124,592,o),
(237,668,o),
(366,668,cs),
(432,668,o),
(502,648,o),
(564,621,c),
(570,657,l),
(515,684,o),
(444,706,o),
(366,706,cs),
(216,706,o),
(82,625,o),
(82,352,cs),
(82,72,o),
(217,-6,o),
(357,-6,cs)
);
}
);
};
guides = (
{
angle = 79.992;
pos = (576,690);
}
);
layerId = "84AA6C20-0662-4373-B7CF-A8F69217EDA9";
shapes = (
{
closed = 1;
nodes = (
(440,-6,o),
(520,26,o),
(569,57,c),
(567,94,l),
(496,54,o),
(429,32,o),
(358,32,cs),
(220,32,o),
(124,125,o),
(124,352,cs),
(124,592,o),
(237,668,o),
(366,668,cs),
(432,668,o),
(502,648,o),
(564,621,c),
(570,657,l),
(515,684,o),
(444,706,o),
(366,706,cs),
(216,706,o),
(82,625,o),
(82,352,cs),
(82,72,o),
(217,-6,o),
(357,-6,cs)
);
}
);
width = 619;
},
{
anchors = (
{
name = bottom;
pos = (285,0);
},
{
name = top;
pos = (285,700);
}
);
background = {
shapes = (
{
closed = 1;
nodes = (
(346,-8,o),
(401,4,o),
(445,18,c),
(417,178,l),
(379,169,o),
(346,163,o),
(318,163,cs),
(242,163,o),
(203,206,o),
(203,350,cs),
(203,490,o),
(239,537,o),
(316,537,cs),
(341,537,o),
(371,532,o),
(406,523,c),
(434,683,l),
(402,698,o),
(351,708,o),
(297,708,cs),
(157,708,o),
(16,635,o),
(16,350,cs),
(16,63,o),
(155,-8,o),
(290,-8,cs)
);
}
);
};
layerId = "A5A92505-053D-4D0C-ACDC-6F8463E28DE4";
shapes = (
{
closed = 1;
nodes = (
(346,-8,o),
(396,4,o),
(440,18,c),
(424,178,l),
(386,169,o),
(346,163,o),
(318,163,cs),
(242,163,o),
(203,206,o),
(203,350,cs),
(203,490,o),
(239,537,o),
(316,537,cs),
(341,537,o),
(371,532,o),
(406,523,c),
(434,683,l),
(402,698,o),
(351,708,o),
(297,708,cs),
(157,708,o),
(16,635,o),
(16,350,cs),
(16,63,o),
(155,-8,o),
(290,-8,cs)
);
}
);
width = 450;
},
{
anchors = (
{
name = bottom;
pos = (368,0);
},
{
name = top;
pos = (368,700);
}
);
background = {
anchors = (
{
name = bottom;
pos = (368,0);
},
{
name = top;
pos = (368,700);
}
);
shapes = (
{
closed = 1;
nodes = (
(434,-8,o),
(517,9,o),
(567,37,cs),
(597,54,o),
(602,62,o),
(602,85,cs),
(602,109,o),
(577,200,o),
(542,200,cs),
(523,200,o),
(469,163,o),
(376,163,cs),
(271,163,o),
(223,207,o),
(223,350,cs),
(223,494,o),
(271,537,o),
(376,537,cs),
(466,537,o),
(511,508,o),
(533,508,cs),
(561,508,o),
(594,597,o),
(594,630,cs),
(594,646,o),
(583,657,o),
(567,666,cs),
(524,692,o),
(439,708,o),
(372,708,cs),
(147,708,o),
(30,585,o),
(30,350,cs),
(30,115,o),
(147,-8,o),
(371,-8,cs)
);
}
);
};
guides = (
{
angle = 79.992;
pos = (593,700);
}
);
layerId = "ACEF5F79-87A6-4D8B-B169-2BFCF1568BF8";
shapes = (
{
closed = 1;
nodes = (
(451,-8,o),
(525,11,o),
(600,44,c),
(583,203,l),
(507,179,o),
(433,163,o),
(376,163,cs),
(271,163,o),
(223,208,o),
(223,350,cs),
(223,494,o),
(270,537,o),
(381,537,cs),
(441,537,o),
(503,518,o),
(558,500,c),
(585,662,l),
(526,689,o),
(450,708,o),
(369,708,cs),
(189,708,o),
(30,624,o),
(30,350,cs),
(30,88,o),
(177,-8,o),
(362,-8,cs)
);
}
);
width = 619;
},
{
anchors = (
{
name = bottom;
pos = (428,0);
},
{
name = top;
pos = (428,700);
}
);
background = {
anchors = (
{
name = bottom;
pos = (428,0);
},
{
name = top;
pos = (428,700);
}
);
shapes = (
{
closed = 1;
nodes = (
(499,-8,o),
(627,13,o),
(680,43,cs),
(709,59,o),
(712,67,o),
(712,91,cs),
(712,115,o),
(698,199,o),
(670,199,cs),
(642,199,o),
(569,163,o),
(439,163,cs),
(308,163,o),
(242,206,o),
(242,350,cs),
(242,494,o),
(308,537,o),
(439,537,cs),
(570,537,o),
(629,509,o),
(661,509,cs),
(690,509,o),
(706,589,o),
(706,622,cs),
(706,638,o),
(695,649,o),
(679,658,cs),
(634,685,o),
(519,708,o),
(439,708,cs),
(176,708,o),
(43,587,o),
(43,350,cs),
(43,113,o),
(169,-8,o),
(419,-8,cs)
);
}
);
};
guides = (
{
angle = 79.992;
pos = (703,690);
}
);
layerId = "2EA36C28-4342-4323-91EA-7DB25AD3237F";
shapes = (
{
closed = 1;
nodes = (
(511,-8,o),
(608,12,o),
(708,46,c),
(693,206,l),
(606,181,o),
(522,163,o),
(439,163,cs),
(306,163,o),
(242,209,o),
(242,350,cs),
(242,495,o),
(309,537,o),
(447,537,cs),
(519,537,o),
(600,522,o),
(671,504,c),
(698,661,l),
(614,693,o),
(521,708,o),
(432,708,cs),
(205,708,o),
(43,611,o),
(43,350,cs),
(43,87,o),
(199,-8,o),
(414,-8,cs)
);
}
);
width = 740;
},
{
anchors = (
{
name = bottom;
pos = (410,0);
},
{
name = top;
pos = (410,700);
}
);
background = {
anchors = (
{
name = bottom;
pos = (410,0);
},
{
name = top;
pos = (410,700);
}
);
shapes = (
{
closed = 1;
nodes = (
(497,-6,o),
(574,7,o),
(634,30,cs),
(669,43,o),
(679,48,o),
(679,63,cs),
(679,72,o),
(671,113,o),
(654,113,cs),
(640,113,o),
(572,70,o),
(438,70,cs),
(241,70,o),
(141,145,o),
(141,352,cs),
(141,556,o),
(241,630,o),
(438,630,cs),
(554,630,o),
(623,595,o),
(638,595,cs),
(654,595,o),
(665,629,o),
(665,644,cs),
(665,658,o),
(660,662,o),
(628,675,cs),
(581,694,o),
(499,706,o),
(438,706,cs),
(181,706,o),
(50,587,o),
(50,352,cs),
(50,115,o),
(171,-6,o),
(428,-6,cs)
);
}
);
};
guides = (
{
angle = 79.992;
pos = (663,690);
}
);
layerId = "8ED31224-68B7-412A-B4C3-E53F784CF4E5";
shapes = (
{
closed = 1;
nodes = (
(514,-6,o),
(599,15,o),
(676,45,c),
(671,116,l),
(616,96,o),
(528,70,o),
(426,70,cs),
(261,70,o),
(141,131,o),
(141,352,cs),
(141,574,o),
(263,630,o),
(436,630,cs),
(519,630,o),
(595,611,o),
(646,597,c),
(659,670,l),
(590,693,o),
(509,706,o),
(432,706,cs),
(210,706,o),
(50,612,o),
(50,352,cs),
(50,81,o),
(213,-6,o),
(419,-6,cs)
);
}
);
width = 740;
},
{
anchors = (
{
name = bottom;
pos = (430,0);
},
{
name = top;
pos = (430,700);
}
);
background = {
anchors = (
{
name = bottom;
pos = (430,0);
},
{
name = top;
pos = (430,700);
}
);
shapes = (
{
closed = 1;
nodes = (
(522,-6,o),
(592,12,o),
(636,31,cs),
(665,44,o),
(683,56,o),
(683,64,cs),
(683,69,o),
(676,87,o),
(668,87,cs),
(655,87,o),
(599,32,o),
(429,32,cs),
(210,32,o),
(98,130,o),
(98,352,cs),
(98,571,o),
(213,668,o),
(439,668,cs),
(575,668,o),
(647,623,o),
(657,623,cs),
(668,623,o),
(673,640,o),
(673,646,cs),
(673,654,o),
(655,665,o),
(624,677,cs),
(588,691,o),
(510,706,o),
(439,706,cs),
(185,706,o),
(56,587,o),
(56,352,cs),
(56,115,o),
(182,-6,o),
(426,-6,cs)
);
}
);
};
guides = (
{
angle = 79.992;
pos = (692,790);
}
);
layerId = "79DB91E0-15EF-4446-816D-FE9384315D55";
shapes = (
{
closed = 1;
nodes = (
(537,-6,o),
(617,23,o),
(677,48,c),
(675,84,l),
(607,57,o),
(529,32,o),
(427,32,cs),
(235,32,o),
(98,109,o),
(98,352,cs),
(98,601,o),
(251,668,o),
(431,668,cs),
(528,668,o),
(602,649,o),
(663,629,c),
(669,665,l),
(610,688,o),
(519,706,o),
(436,706,cs),
(221,706,o),
(56,619,o),
(56,352,cs),
(56,73,o),
(231,-6,o),
(422,-6,cs)
);
}
);
width = 740;
}
);
unicode = 67;
userData = {
RMXScaler = {
source = C;
};
};
},
{
glyphname = D;
kernLeft = H;
kernRight = O;
layers = (
{
anchors = (
{
name = bottom;
pos = (338,0);
},
{
name = center;
pos = (348,350);
},
{
name = top;
pos = (338,700);
}
);
background = {
anchors = (
{
name = bottom;
pos = (338,0);
},
{
name = center;
pos = (348,350);
},
{
name = top;
pos = (338,700);
}
);
shapes = (
{
closed = 1;
nodes = (
(329,0,ls),
(530,0,o),
(638,122,o),
(638,352,cs),
(638,582,o),
(530,700,o),
(329,700,cs),
(128,700,ls),
(106,700,o),
(97,691,o),
(97,670,cs),
(97,30,ls),
(97,9,o),
(106,0,o),
(128,0,cs)
);
},
{
closed = 1;
nodes = (
(187,624,l),
(329,624,ls),
(470,624,o),
(547,532,o),
(547,352,cs),
(547,172,o),
(470,76,o),
(329,76,cs),
(187,76,l)
);
}
);
};
layerId = UUID0;
shapes = (
{
closed = 1;
nodes = (
(329,0,ls),
(530,0,o),
(638,122,o),
(638,352,cs),
(638,582,o),
(530,700,o),
(329,700,cs),
(97,700,l),
(97,0,l)
);
},
{
closed = 1;
nodes = (
(187,624,l),
(329,624,ls),
(470,624,o),
(547,532,o),
(547,352,cs),
(547,172,o),
(470,76,o),
(329,76,cs),
(187,76,l)
);
}
);
width = 695;
},
{
anchors = (
{
name = bottom;
pos = (270,0);
},
{
name = center;
pos = (280,350);
},
{
name = top;
pos = (270,700);
}
);
background = {
anchors = (
{
name = bottom;
pos = (270,0);
},
{
name = center;
pos = (280,350);
},
{
name = top;
pos = (270,700);
}
);
shapes = (
{
closed = 1;
nodes = (
(268,0,ls),
(429,0,o),
(518,113,o),
(518,352,cs),
(518,591,o),
(429,700,o),
(268,700,cs),
(113,700,ls),
(91,700,o),
(82,691,o),
(82,670,cs),
(82,30,ls),
(82,9,o),
(91,0,o),
(113,0,cs)
);
},
{
closed = 1;
nodes = (
(172,624,l),
(268,624,ls),
(377,624,o),
(427,539,o),
(427,352,cs),
(427,163,o),
(377,76,o),
(268,76,cs),
(172,76,l)
);
}
);
};
layerId = "76F17502-367F-435E-B23E-ED9D928E777B";
shapes = (
{
closed = 1;
nodes = (
(268,0,ls),
(429,0,o),
(518,113,o),
(518,352,cs),
(518,591,o),
(429,700,o),
(268,700,cs),
(82,700,l),
(82,0,l)
);
},
{
closed = 1;
nodes = (
(172,624,l),
(268,624,ls),
(377,624,o),
(427,539,o),
(427,352,cs),
(427,163,o),
(377,76,o),
(268,76,cs),
(172,76,l)
);
}
);
width = 560;
},
{
anchors = (
{
name = bottom;
pos = (270,0);
},
{
name = center;
pos = (280,350);
},
{
name = top;
pos = (270,700);
}
);
background = {
anchors = (
{
name = bottom;
pos = (270,0);
},
{
name = center;
pos = (280,350);
},
{
name = top;
pos = (270,700);
}
);
shapes = (
{
closed = 1;
nodes = (
(267,0,ls),
(415,0,o),
(492,121,o),
(492,352,cs),
(492,581,o),
(415,700,o),
(267,700,cs),
(124,700,ls),
(113,700,o),
(108,696,o),
(108,686,cs),
(108,14,ls),
(108,4,o),
(113,0,o),
(124,0,cs)
);
},
{
closed = 1;
nodes = (
(148,664,l),
(267,664,ls),
(387,664,o),
(450,557,o),
(450,352,cs),
(450,145,o),
(387,36,o),
(267,36,cs),
(148,36,l)
);
}
);
};
layerId = "534F5340-05B5-45BC-BA3B-B28DD92592EB";
shapes = (
{
closed = 1;
nodes = (
(267,0,ls),
(415,0,o),
(492,121,o),
(492,352,cs),
(492,581,o),
(415,700,o),
(267,700,cs),
(108,700,l),
(108,0,l)
);
},
{
closed = 1;
nodes = (
(148,664,l),
(267,664,ls),
(387,664,o),
(450,557,o),
(450,352,cs),
(450,145,o),
(387,36,o),
(267,36,cs),
(148,36,l)
);
}
);
width = 560;
},
{
anchors = (
{
name = bottom;
pos = (338,0);
},
{
name = center;
pos = (348,350);
},
{
name = top;
pos = (338,700);
}
);
background = {
anchors = (
{
name = bottom;
pos = (338,0);
},
{
name = center;
pos = (348,350);
},
{
name = top;
pos = (338,700);
}
);
shapes = (
{
closed = 1;
nodes = (
(329,0,ls),
(516,0,o),
(613,121,o),
(613,352,cs),
(613,581,o),
(516,700,o),
(329,700,cs),
(138,700,ls),
(127,700,o),
(122,696,o),
(122,686,cs),
(122,14,ls),
(122,4,o),
(127,0,o),
(138,0,cs)
);
},
{
closed = 1;
nodes = (
(162,664,l),
(329,664,ls),
(488,664,o),
(571,557,o),
(571,352,cs),
(571,145,o),
(488,36,o),
(329,36,cs),
(162,36,l)
);
}
);
};
layerId = "84AA6C20-0662-4373-B7CF-A8F69217EDA9";
shapes = (
{
closed = 1;
nodes = (
(329,0,ls),
(516,0,o),
(613,121,o),
(613,352,cs),
(613,581,o),
(516,700,o),
(329,700,cs),
(122,700,l),
(122,0,l)
);
},
{
closed = 1;
nodes = (
(162,664,l),
(329,664,ls),
(488,664,o),
(571,557,o),
(571,352,cs),
(571,145,o),
(488,36,o),
(329,36,cs),
(162,36,l)
);
}
);
width = 695;
},
{
anchors = (
{
name = bottom;
pos = (270,0);
},
{
name = center;
pos = (280,350);
},
{
name = top;
pos = (270,700);
}
);
background = {
anchors = (
{
name = bottom;
pos = (270,0);
},
{
name = center;
pos = (280,350);
},
{
name = top;
pos = (270,700);
}
);
shapes = (
{
closed = 1;
nodes = (
(268,0,ls),
(450,0,o),
(544,120,o),
(544,350,cs),
(544,580,o),
(450,700,o),
(268,700,cs),
(92,700,ls),
(52,700,o),
(35,688,o),
(35,660,cs),
(35,40,ls),
(35,12,o),
(52,0,o),
(92,0,cs)
);
},
{
closed = 1;
nodes = (
(214,529,l),
(268,529,ls),
(331,529,o),
(357,478,o),
(357,350,cs),
(357,222,o),
(331,171,o),
(268,171,cs),
(214,171,l)
);
}
);
};
layerId = "A5A92505-053D-4D0C-ACDC-6F8463E28DE4";
shapes = (
{
closed = 1;
nodes = (
(268,0,ls),
(450,0,o),
(544,120,o),
(544,350,cs),
(544,580,o),
(450,700,o),
(268,700,cs),
(35,700,l),
(35,0,l)
);
},
{
closed = 1;
nodes = (
(214,529,l),
(268,529,ls),
(331,529,o),
(357,478,o),
(357,350,cs),
(357,222,o),
(331,171,o),
(268,171,cs),
(214,171,l)
);
}
);
width = 560;
},
{
anchors = (
{
name = bottom;
pos = (328,0);
},
{
name = center;
pos = (348,350);
},
{
name = top;
pos = (328,700);
}
);
background = {
anchors = (
{
name = bottom;
pos = (328,0);
},
{
name = center;
pos = (348,350);
},
{
name = top;
pos = (328,700);
}
);
shapes = (
{
closed = 1;
nodes = (
(330,0,ls),
(550,0,o),
(665,120,o),
(665,350,cs),
(665,580,o),
(550,700,o),
(330,700,cs),
(107,700,ls),
(67,700,o),
(50,688,o),
(50,660,cs),
(50,40,ls),
(50,12,o),
(67,0,o),
(107,0,cs)
);
},
{
closed = 1;
nodes = (
(235,529,l),
(330,529,ls),
(427,529,o),
(472,473,o),
(472,350,cs),
(472,227,o),
(427,171,o),
(330,171,cs),
(235,171,l)
);
}
);
};
layerId = "ACEF5F79-87A6-4D8B-B169-2BFCF1568BF8";
shapes = (
{
closed = 1;
nodes = (
(330,0,ls),
(550,0,o),
(665,120,o),
(665,350,cs),
(665,580,o),
(550,700,o),
(330,700,cs),
(50,700,l),
(50,0,l)
);
},
{
closed = 1;
nodes = (
(235,529,l),
(330,529,ls),
(427,529,o),
(472,473,o),
(472,350,cs),
(472,227,o),
(427,171,o),
(330,171,cs),
(235,171,l)
);
}
);
width = 695;
},
{
anchors = (
{
name = bottom;
pos = (397,0);
},
{
name = center;
pos = (417,350);
},
{
name = top;
pos = (397,700);
}
);
background = {
anchors = (
{
name = bottom;
pos = (397,0);
},
{
name = center;
pos = (417,350);
},
{
name = top;
pos = (397,700);
}
);
shapes = (
{
closed = 1;
nodes = (
(396,0,ls),
(656,0,o),
(791,120,o),
(791,350,cs),
(791,580,o),
(656,700,o),
(396,700,cs),
(125,700,ls),
(85,700,o),
(68,688,o),
(68,660,cs),
(68,40,ls),
(68,12,o),
(85,0,o),
(125,0,cs)
);
},
{
closed = 1;
nodes = (
(259,529,l),
(396,529,ls),
(525,529,o),
(592,468,o),
(592,350,cs),
(592,232,o),
(525,171,o),
(396,171,cs),
(259,171,l)
);
}
);
};
layerId = "2EA36C28-4342-4323-91EA-7DB25AD3237F";
shapes = (
{
closed = 1;
nodes = (
(396,0,ls),
(656,0,o),
(791,120,o),
(791,350,cs),
(791,580,o),
(656,700,o),
(396,700,cs),
(68,700,l),
(68,0,l)
);
},
{
closed = 1;
nodes = (
(259,529,l),
(396,529,ls),
(525,529,o),
(592,468,o),
(592,350,cs),
(592,232,o),
(525,171,o),
(396,171,cs),
(259,171,l)
);
}
);
width = 834;
},
{
anchors = (
{
name = bottom;
pos = (407,0);
},
{
name = center;
pos = (417,350);
},
{
name = top;
pos = (407,700);
}
);
background = {
anchors = (
{
name = bottom;
pos = (407,0);
},
{
name = center;
pos = (417,350);
},
{
name = top;
pos = (407,700);
}
);
shapes = (
{
closed = 1;
nodes = (
(395,0,ls),
(651,0,o),
(784,121,o),
(784,352,cs),
(784,581,o),
(651,700,o),
(395,700,cs),
(128,700,ls),
(106,700,o),
(97,691,o),
(97,670,cs),
(97,30,ls),
(97,9,o),
(106,0,o),
(128,0,cs)
);
},
{
closed = 1;
nodes = (
(187,624,l),
(395,624,ls),
(591,624,o),
(693,531,o),
(693,352,cs),
(693,171,o),
(591,76,o),
(395,76,cs),
(187,76,l)
);
}
);
};
layerId = "8ED31224-68B7-412A-B4C3-E53F784CF4E5";
shapes = (
{
closed = 1;
nodes = (
(395,0,ls),
(651,0,o),
(784,121,o),
(784,352,cs),
(784,581,o),
(651,700,o),
(395,700,cs),
(97,700,l),
(97,0,l)
);
},
{
closed = 1;
nodes = (
(187,624,l),
(395,624,ls),
(591,624,o),
(693,531,o),
(693,352,cs),
(693,171,o),
(591,76,o),
(395,76,cs),
(187,76,l)
);
}
);
width = 834;
},
{
anchors = (
{
name = bottom;
pos = (417,0);
},
{
name = center;
pos = (417,350);
},
{
name = top;
pos = (417,700);
}
);
background = {
anchors = (
{
name = bottom;
pos = (417,0);
},
{
name = center;
pos = (417,350);
},
{
name = top;
pos = (417,700);
}
);
shapes = (
{
closed = 1;
nodes = (
(395,0,ls),
(647,0,o),
(778,121,o),
(778,352,cs),
(778,581,o),
(647,700,o),
(395,700,cs),
(156,700,ls),
(145,700,o),
(140,696,o),
(140,686,cs),
(140,14,ls),
(140,4,o),
(145,0,o),
(156,0,cs)
);
},
{
closed = 1;
nodes = (
(180,664,l),
(395,664,ls),
(619,664,o),
(736,557,o),
(736,352,cs),
(736,145,o),
(619,36,o),
(395,36,cs),
(180,36,l)
);
}
);
};
layerId = "79DB91E0-15EF-4446-816D-FE9384315D55";
shapes = (
{
closed = 1;
nodes = (
(395,0,ls),
(647,0,o),
(778,121,o),
(778,352,cs),
(778,581,o),
(647,700,o),
(395,700,cs),
(140,700,l),
(140,0,l)
);
},
{
closed = 1;
nodes = (
(180,664,l),
(395,664,ls),
(619,664,o),
(736,557,o),
(736,352,cs),
(736,145,o),
(619,36,o),
(395,36,cs),
(180,36,l)
);
}
);
width = 834;
}
);
unicode = 68;
userData = {
RMXScaler = {
source = D;
};
};
},
{
glyphname = Eth;
kernLeft = H;
kernRight = O;
layers = (
{
background = {
shapes = (
{
closed = 1;
nodes = (
(360,320,ls),
(373,320,o),
(379,329,o),
(379,350,cs),
(379,366,ls),
(379,387,o),
(373,396,o),
(360,396,cs),
(29,396,ls),
(16,396,o),
(10,387,o),
(10,366,cs),
(10,350,ls),
(10,329,o),
(16,320,o),
(29,320,cs)
);
},
{
ref = D;
}
);
};
layerId = UUID0;
shapes = (
{
closed = 1;
nodes = (
(379,320,l),
(379,396,l),
(10,396,l),
(10,320,l)
);
},
{
ref = D;
}
);
width = 695;
},
{
background = {
shapes = (
{
closed = 1;
nodes = (
(280,320,ls),
(293,320,o),
(299,329,o),
(299,350,cs),
(299,366,ls),
(299,387,o),
(293,396,o),
(280,396,cs),
(29,396,ls),
(16,396,o),
(10,387,o),
(10,366,cs),
(10,350,ls),
(10,329,o),
(16,320,o),
(29,320,cs)
);
},
{
ref = D;
}
);
};
layerId = "76F17502-367F-435E-B23E-ED9D928E777B";
shapes = (
{
closed = 1;
nodes = (
(299,320,l),
(299,396,l),
(10,396,l),
(10,320,l)
);
},
{
ref = D;
}
);
width = 560;
},
{
background = {
shapes = (
{
closed = 1;
nodes = (
(283,341,ls),
(291,341,o),
(295,345,o),
(295,355,cs),
(295,363,ls),
(295,373,o),
(291,377,o),
(283,377,cs),
(22,377,ls),
(14,377,o),
(10,373,o),
(10,363,cs),
(10,355,ls),
(10,345,o),
(14,341,o),
(22,341,cs)
);
},
{
ref = D;
}
);
};
layerId = "534F5340-05B5-45BC-BA3B-B28DD92592EB";
shapes = (
{
closed = 1;
nodes = (
(295,341,l),
(295,377,l),
(10,377,l),
(10,341,l)
);
},
{
ref = D;
}
);
width = 560;
},
{
background = {
shapes = (
{
closed = 1;
nodes = (
(363,341,ls),
(371,341,o),
(375,345,o),
(375,355,cs),
(375,363,ls),
(375,373,o),
(371,377,o),
(363,377,cs),
(22,377,ls),
(14,377,o),
(10,373,o),
(10,363,cs),
(10,355,ls),
(10,345,o),
(14,341,o),
(22,341,cs)
);
},
{
ref = D;
}
);
};
layerId = "84AA6C20-0662-4373-B7CF-A8F69217EDA9";
shapes = (
{
closed = 1;
nodes = (
(375,341,l),
(375,377,l),
(10,377,l),
(10,341,l)
);
},
{
ref = D;
}
);
width = 695;
},
{
background = {
shapes = (
{
closed = 1;
nodes = (
(259,276,ls),
(284,276,o),
(293,296,o),
(293,341,cs),
(293,371,ls),
(293,416,o),
(284,436,o),
(259,436,cs),
(19,436,ls),
(-6,436,o),
(-15,416,o),
(-15,371,cs),
(-15,341,ls),
(-15,296,o),
(-6,276,o),
(19,276,cs)
);
},
{
ref = D;
}
);
};
layerId = "A5A92505-053D-4D0C-ACDC-6F8463E28DE4";
shapes = (
{
closed = 1;
nodes = (
(293,276,l),
(293,436,l),
(-15,436,l),
(-15,276,l)
);
},
{
ref = D;
}
);
width = 560;
},
{
background = {
shapes = (
{
closed = 1;
nodes = (
(339,276,ls),
(364,276,o),
(373,296,o),
(373,341,cs),
(373,371,ls),
(373,416,o),
(364,436,o),
(339,436,cs),
(19,436,ls),
(-6,436,o),
(-15,416,o),
(-15,371,cs),
(-15,341,ls),
(-15,296,o),
(-6,276,o),
(19,276,cs)
);
},
{
ref = D;
}
);
};
layerId = "ACEF5F79-87A6-4D8B-B169-2BFCF1568BF8";
shapes = (
{
closed = 1;
nodes = (
(372,276,l),
(372,436,l),
(-14,436,l),
(-14,276,l)
);
},
{
ref = D;
}
);
width = 695;
},
{
background = {
shapes = (
{
closed = 1;
nodes = (
(419,276,ls),
(444,276,o),
(453,296,o),
(453,341,cs),
(453,371,ls),
(453,416,o),
(444,436,o),
(419,436,cs),
(19,436,ls),
(-6,436,o),
(-15,416,o),
(-15,371,cs),
(-15,341,ls),
(-15,296,o),
(-6,276,o),
(19,276,cs)
);
},
{
ref = D;
}
);
};
layerId = "2EA36C28-4342-4323-91EA-7DB25AD3237F";
shapes = (
{
closed = 1;
nodes = (
(453,276,l),
(453,436,l),
(-14,436,l),
(-14,276,l)
);
},
{
ref = D;
}
);
width = 834;
},
{
background = {
shapes = (
{
closed = 1;
nodes = (
(440,320,ls),
(453,320,o),
(459,329,o),
(459,350,cs),
(459,366,ls),
(459,387,o),
(453,396,o),
(440,396,cs),
(29,396,ls),
(16,396,o),
(10,387,o),
(10,366,cs),
(10,350,ls),
(10,329,o),
(16,320,o),
(29,320,cs)
);
},
{
ref = D;
}
);
};
layerId = "8ED31224-68B7-412A-B4C3-E53F784CF4E5";
shapes = (
{
closed = 1;
nodes = (
(459,320,l),
(459,396,l),
(10,396,l),
(10,320,l)
);
},
{
ref = D;
}
);
width = 834;
},
{
background = {
shapes = (
{
closed = 1;
nodes = (
(443,341,ls),
(451,341,o),
(455,345,o),
(455,355,cs),
(455,363,ls),
(455,373,o),
(451,377,o),
(443,377,cs),
(22,377,ls),
(14,377,o),
(10,373,o),
(10,363,cs),
(10,355,ls),
(10,345,o),
(14,341,o),
(22,341,cs)
);
},
{
ref = D;
}
);
};
layerId = "79DB91E0-15EF-4446-816D-FE9384315D55";
shapes = (
{
closed = 1;
nodes = (
(455,341,l),
(455,377,l),
(10,377,l),
(10,341,l)
);
},
{
ref = D;
}
);
width = 834;
}
);
unicode = 208;
userData = {
RMXScaler = {
source = Eth;
};
};
},
{
glyphname = E;
kernLeft = H;
kernRight = E;
layers = (
{
anchors = (
{
name = bottom;
pos = (301,0);
},
{
name = ogonek;
pos = (497,0);
},
{
name = top;
pos = (302,700);
}
);
background = {
anchors = (
{
name = bottom;
pos = (301,0);
},
{
name = ogonek;
pos = (497,0);
},
{
name = top;
pos = (302,700);
}
);
shapes = (
{
closed = 1;
nodes = (
(477,0,ls),
(491,0,o),
(497,9,o),
(497,30,cs),
(497,46,ls),
(497,67,o),
(491,76,o),
(477,76,cs),
(187,76,l),
(187,320,l),
(446,320,ls),
(460,320,o),
(466,329,o),
(466,350,cs),
(466,366,ls),
(466,387,o),
(460,396,o),
(446,396,cs),
(187,396,l),
(187,624,l),
(476,624,ls),
(490,624,o),
(496,633,o),
(496,654,cs),
(496,670,ls),
(496,691,o),
(490,700,o),
(476,700,cs),
(128,700,ls),
(106,700,o),
(97,691,o),
(97,670,cs),
(97,30,ls),
(97,9,o),
(106,0,o),
(128,0,cs)
);
}
);
};
layerId = UUID0;
shapes = (
{
closed = 1;
nodes = (
(497,0,l),
(497,76,l),
(187,76,l),
(187,320,l),
(456,320,l),
(456,396,l),
(187,396,l),
(187,624,l),
(496,624,l),
(496,700,l),
(97,700,l),
(97,0,l)
);
}
);
width = 546;
},
{
anchors = (
{
name = bottom;
pos = (257,0);
},
{
name = ogonek;
pos = (416,0);
},
{
name = top;
pos = (254,700);
}
);
background = {
anchors = (
{
name = bottom;
pos = (257,0);
},
{
name = ogonek;
pos = (416,0);
},
{
name = top;
pos = (254,700);
}
);
shapes = (
{
closed = 1;
nodes = (
(396,0,ls),
(410,0,o),
(416,9,o),
(416,30,cs),
(416,46,ls),
(416,67,o),
(410,76,o),
(396,76,cs),
(172,76,l),
(172,320,l),
(373,320,ls),
(387,320,o),
(393,329,o),
(393,350,cs),
(393,366,ls),
(393,387,o),
(387,396,o),
(373,396,cs),
(172,396,l),
(172,624,l),
(396,624,ls),
(410,624,o),
(416,633,o),
(416,654,cs),
(416,670,ls),
(416,691,o),
(410,700,o),
(396,700,cs),
(113,700,ls),
(91,700,o),
(82,691,o),
(82,670,cs),
(82,30,ls),
(82,9,o),
(91,0,o),
(113,0,cs)
);
}
);
};
layerId = "76F17502-367F-435E-B23E-ED9D928E777B";
shapes = (
{
closed = 1;
nodes = (
(416,0,l),
(416,76,l),
(172,76,l),
(172,320,l),
(383,320,l),
(383,396,l),
(172,396,l),
(172,624,l),
(416,624,l),
(416,700,l),
(82,700,l),
(82,0,l)
);
}
);
width = 426;
},
{
anchors = (
{
name = bottom;
pos = (252,0);
},
{
name = ogonek;
pos = (377,0);
},
{
name = top;
pos = (249,700);
}
);
background = {
anchors = (
{
name = bottom;
pos = (252,0);
},
{
name = ogonek;
pos = (377,0);
},
{
name = top;
pos = (249,700);
}
);
shapes = (
{
closed = 1;
nodes = (
(365,0,ls),
(373,0,o),
(377,4,o),
(377,14,cs),
(377,22,ls),
(377,32,o),
(373,36,o),
(365,36,cs),
(148,36,l),
(148,340,l),
(340,340,ls),
(348,340,o),
(352,344,o),
(352,354,cs),
(352,362,ls),
(352,372,o),
(348,376,o),
(340,376,cs),
(148,376,l),
(148,664,l),
(363,664,ls),
(371,664,o),
(375,668,o),
(375,678,cs),
(375,686,ls),
(375,696,o),
(371,700,o),
(363,700,cs),
(124,700,ls),
(113,700,o),
(108,696,o),
(108,686,cs),
(108,14,ls),
(108,4,o),
(113,0,o),
(124,0,cs)
);
}
);
};
layerId = "534F5340-05B5-45BC-BA3B-B28DD92592EB";
shapes = (
{
closed = 1;
nodes = (
(377,0,l),
(377,36,l),
(148,36,l),
(148,340,l),
(352,340,l),
(352,376,l),
(148,376,l),
(148,664,l),
(375,664,l),
(375,700,l),
(108,700,l),
(108,0,l)
);
}
);
width = 426;
},
{
anchors = (
{
name = bottom;
pos = (321,0);
},
{
name = ogonek;
pos = (498,0);
},
{
name = top;
pos = (317,700);
}
);
background = {
anchors = (
{
name = bottom;
pos = (321,0);
},
{
name = ogonek;
pos = (498,0);
},
{
name = top;
pos = (317,700);
}
);
shapes = (
{
closed = 1;
nodes = (
(486,0,ls),
(494,0,o),
(498,4,o),
(498,14,cs),
(498,22,ls),
(498,32,o),
(494,36,o),
(486,36,cs),
(162,36,l),
(162,340,l),
(456,340,ls),
(464,340,o),
(468,344,o),
(468,354,cs),
(468,362,ls),
(468,372,o),
(464,376,o),
(456,376,cs),
(162,376,l),
(162,664,l),
(486,664,ls),
(494,664,o),
(498,668,o),
(498,678,cs),
(498,686,ls),
(498,696,o),
(494,700,o),
(486,700,cs),
(138,700,ls),
(127,700,o),
(122,696,o),
(122,686,cs),
(122,14,ls),
(122,4,o),
(127,0,o),
(138,0,cs)
);
}
);
};
layerId = "84AA6C20-0662-4373-B7CF-A8F69217EDA9";
shapes = (
{
closed = 1;
nodes = (
(498,0,l),
(498,36,l),
(162,36,l),
(162,340,l),
(458,340,l),
(458,376,l),
(162,376,l),
(162,664,l),
(498,664,l),
(498,700,l),
(122,700,l),
(122,0,l)
);
}
);
width = 546;
},
{
anchors = (
{
name = bottom;
pos = (225,0);
},
{
name = ogonek;
pos = (412,0);
},
{
name = top;
pos = (226,700);
}
);
background = {
anchors = (
{
name = bottom;
pos = (225,0);
},
{
name = ogonek;
pos = (412,0);
},
{
name = top;
pos = (226,700);
}
);
shapes = (
{
closed = 1;
nodes = (
(372,0,ls),
(400,0,o),
(412,18,o),
(412,60,cs),
(412,111,ls),
(412,153,o),
(400,171,o),
(372,171,cs),
(214,171,l),
(214,273,l),
(352,273,ls),
(380,273,o),
(392,291,o),
(392,333,cs),
(392,384,ls),
(392,426,o),
(380,444,o),
(352,444,cs),
(214,444,l),
(214,529,l),
(372,529,ls),
(400,529,o),
(412,547,o),
(412,589,cs),
(412,640,ls),
(412,682,o),
(400,700,o),
(372,700,cs),
(92,700,ls),
(52,700,o),
(35,688,o),
(35,660,cs),
(35,40,ls),
(35,12,o),
(52,0,o),
(92,0,cs)
);
}
);
};
layerId = "A5A92505-053D-4D0C-ACDC-6F8463E28DE4";
shapes = (
{
closed = 1;
nodes = (
(412,0,l),
(412,171,l),
(214,171,l),
(214,278,l),
(382,278,l),
(382,439,l),
(214,439,l),
(214,529,l),
(412,529,l),
(412,700,l),
(35,700,l),
(35,0,l)
);
}
);
width = 426;
},
{
anchors = (
{
name = bottom;
pos = (295,0);
},
{
name = ogonek;
pos = (521,0);
},
{
name = top;
pos = (286,700);
}
);
background = {
anchors = (
{
name = bottom;
pos = (295,0);
},
{
name = ogonek;
pos = (521,0);
},
{
name = top;
pos = (286,700);
}
);
shapes = (
{
closed = 1;
nodes = (
(481,0,ls),
(509,0,o),
(521,18,o),
(521,60,cs),
(521,111,ls),
(521,153,o),
(509,171,o),
(481,171,cs),
(235,171,l),
(235,273,l),
(453,273,ls),
(481,273,o),
(493,291,o),
(493,333,cs),
(493,384,ls),
(493,426,o),
(481,444,o),
(453,444,cs),
(235,444,l),
(235,529,l),
(480,529,ls),
(508,529,o),
(520,547,o),
(520,589,cs),
(520,640,ls),
(520,682,o),
(508,700,o),
(480,700,cs),
(107,700,ls),
(67,700,o),
(50,688,o),
(50,660,cs),
(50,40,ls),
(50,12,o),
(67,0,o),
(107,0,cs)
);
}
);
};
layerId = "ACEF5F79-87A6-4D8B-B169-2BFCF1568BF8";
shapes = (
{
closed = 1;
nodes = (
(521,0,l),
(521,171,l),
(235,171,l),
(235,278,l),
(478,278,l),
(478,439,l),
(235,439,l),
(235,529,l),
(520,529,l),
(520,700,l),
(50,700,l),
(50,0,l)
);
}
);
width = 546;
},
{
anchors = (
{
name = bottom;
pos = (356,0);
},
{
name = ogonek;
pos = (630,0);
},
{
name = top;
pos = (357,700);
}
);
background = {
anchors = (
{
name = bottom;
pos = (356,0);
},
{
name = ogonek;
pos = (630,0);
},
{
name = top;
pos = (347,700);
}
);
shapes = (
{
closed = 1;
nodes = (
(590,0,ls),
(618,0,o),
(630,18,o),
(630,60,cs),
(630,111,ls),
(630,153,o),
(618,171,o),
(590,171,cs),
(259,171,l),
(259,273,l),
(562,273,ls),
(590,273,o),
(602,291,o),
(602,333,cs),
(602,384,ls),
(602,426,o),
(590,444,o),
(562,444,cs),
(259,444,l),
(259,529,l),
(589,529,ls),
(617,529,o),
(629,547,o),
(629,589,cs),
(629,640,ls),
(629,682,o),
(617,700,o),
(589,700,cs),
(125,700,ls),
(85,700,o),
(68,688,o),
(68,660,cs),
(68,40,ls),
(68,12,o),
(85,0,o),
(125,0,cs)
);
}
);
};
layerId = "2EA36C28-4342-4323-91EA-7DB25AD3237F";
shapes = (
{
closed = 1;
nodes = (
(630,0,l),
(630,171,l),
(259,171,l),
(259,278,l),
(561,278,l),
(561,439,l),
(259,439,l),
(259,529,l),
(629,529,l),
(629,700,l),
(68,700,l),
(68,0,l)
);
}
);
width = 678;
},
{
anchors = (
{
name = bottom;
pos = (392,0);
},
{
name = ogonek;
pos = (624,0);
},
{
name = top;
pos = (388,700);
}
);
background = {
anchors = (
{
name = bottom;
pos = (392,0);
},
{
name = ogonek;
pos = (624,0);
},
{
name = top;
pos = (388,700);
}
);
shapes = (
{
closed = 1;
nodes = (
(604,0,ls),
(618,0,o),
(624,9,o),
(624,30,cs),
(624,46,ls),
(624,67,o),
(618,76,o),
(604,76,cs),
(205,76,l),
(205,320,l),
(573,320,ls),
(587,320,o),
(593,329,o),
(593,350,cs),
(593,366,ls),
(593,387,o),
(587,396,o),
(573,396,cs),
(205,396,l),
(205,624,l),
(603,624,ls),
(617,624,o),
(623,633,o),
(623,654,cs),
(623,670,ls),
(623,691,o),
(617,700,o),
(603,700,cs),
(146,700,ls),
(124,700,o),
(115,691,o),
(115,670,cs),
(115,30,ls),
(115,9,o),
(124,0,o),
(146,0,cs)
);
}
);
};
layerId = "8ED31224-68B7-412A-B4C3-E53F784CF4E5";
shapes = (
{
closed = 1;
nodes = (
(624,0,l),
(624,76,l),
(205,76,l),
(205,320,l),
(573,320,l),
(573,396,l),
(205,396,l),
(205,624,l),
(623,624,l),
(623,700,l),
(115,700,l),
(115,0,l)
);
}
);
width = 678;
},
{
anchors = (
{
name = bottom;
pos = (400,0);
},
{
name = ogonek;
pos = (638,0);
},
{
name = top;
pos = (396,700);
}
);
background = {
anchors = (
{
name = bottom;
pos = (400,0);
},
{
name = ogonek;
pos = (638,0);
},
{
name = top;
pos = (396,700);
}
);
shapes = (
{
closed = 1;
nodes = (
(626,0,ls),
(634,0,o),
(638,4,o),
(638,14,cs),
(638,22,ls),
(638,32,o),
(634,36,o),
(626,36,cs),
(180,36,l),
(180,340,l),
(596,340,ls),
(604,340,o),
(608,344,o),
(608,354,cs),
(608,362,ls),
(608,372,o),
(604,376,o),
(596,376,cs),
(180,376,l),
(180,664,l),
(626,664,ls),
(634,664,o),
(638,668,o),
(638,678,cs),
(638,686,ls),
(638,696,o),
(634,700,o),
(626,700,cs),
(156,700,ls),
(145,700,o),
(140,696,o),
(140,686,cs),
(140,14,ls),
(140,4,o),
(145,0,o),
(156,0,cs)
);
}
);
};
layerId = "79DB91E0-15EF-4446-816D-FE9384315D55";
shapes = (
{
closed = 1;
nodes = (
(638,0,l),
(638,36,l),
(180,36,l),
(180,340,l),
(588,340,l),
(588,376,l),
(180,376,l),
(180,664,l),
(638,664,l),
(638,700,l),
(140,700,l),
(140,0,l)
);
}
);
width = 678;
}
);
unicode = 69;
userData = {
RMXScaler = {
source = E;
};
};
},
{
glyphname = Schwa;
kernLeft = O;
kernRight = O;
layers = (
{
background = {
shapes = (
{
closed = 1;
nodes = (
(509,-9,o),
(604,106,o),
(604,332,cs),
(604,580,o),
(511,706,o),
(315,706,cs),
(184,706,o),
(79,644,o),
(79,622,cs),
(79,611,o),
(100,572,o),
(114,572,cs),
(130,572,o),
(194,631,o),
(316,631,cs),
(440,631,o),
(509,541,o),
(514,363,c),
(98,363,ls),
(86,363,o),
(65,334,o),
(65,322,cs),
(65,103,o),
(149,-9,o),
(321,-9,cs)
);
},
{
closed = 1;
nodes = (
(209,63,o),
(154,137,o),
(154,291,c),
(514,291,l),
(507,137,o),
(441,63,o),
(324,63,cs)
);
}
);
};
layerId = UUID0;
shapes = (
{
closed = 1;
nodes = (
(509,-9,o),
(604,106,o),
(604,332,cs),
(604,591,o),
(499,706,o),
(322,706,cs),
(244,706,o),
(163,689,o),
(79,646,c),
(93,575,l),
(179,614,o),
(248,631,o),
(315,631,cs),
(438,631,o),
(509,544,o),
(514,363,c),
(78,363,l),
(74,349,o),
(69,317,o),
(69,278,cs),
(69,165,o),
(109,-9,o),
(321,-9,cs)
);
},
{
closed = 1;
nodes = (
(209,63,o),
(154,137,o),
(154,291,c),
(514,291,l),
(507,137,o),
(441,63,o),
(324,63,cs)
);
}
);
width = 672;
},
{
background = {
shapes = (
{
closed = 1;
nodes = (
(397,-9,o),
(479,106,o),
(479,332,cs),
(479,580,o),
(399,706,o),
(230,706,cs),
(121,706,o),
(34,644,o),
(34,622,cs),
(34,611,o),
(55,572,o),
(69,572,cs),
(85,572,o),
(133,631,o),
(231,631,cs),
(330,631,o),
(385,541,o),
(389,363,c),
(53,363,ls),
(41,363,o),
(20,334,o),
(20,322,cs),
(20,103,o),
(93,-9,o),
(236,-9,cs)
);
},
{
closed = 1;
nodes = (
(153,63,o),
(109,130,o),
(109,291,c),
(389,291,l),
(383,130,o),
(333,63,o),
(239,63,cs)
);
}
);
};
layerId = "76F17502-367F-435E-B23E-ED9D928E777B";
shapes = (
{
closed = 1;
nodes = (
(397,-9,o),
(479,106,o),
(479,332,cs),
(479,577,o),
(405,706,o),
(222,706,cs),
(162,706,o),
(102,692,o),
(34,655,c),
(47,583,l),
(113,616,o),
(164,631,o),
(214,631,cs),
(341,631,o),
(386,532,o),
(389,363,c),
(27,363,l),
(24,337,o),
(22,310,o),
(22,281,cs),
(22,144,o),
(69,-9,o),
(236,-9,cs)
);
},
{
closed = 1;
nodes = (
(153,63,o),
(109,130,o),
(109,291,c),
(389,291,l),
(383,130,o),
(333,63,o),
(239,63,cs)
);
}
);
width = 520;
},
{
background = {
shapes = (
{
closed = 1;
nodes = (
(382,-9,o),
(453,106,o),
(453,332,cs),
(453,580,o),
(376,706,o),
(226,706,cs),
(130,706,o),
(53,646,o),
(53,632,cs),
(53,628,o),
(63,612,o),
(69,612,cs),
(85,612,o),
(131,668,o),
(225,668,cs),
(347,668,o),
(411,559,o),
(413,345,c),
(66,345,ls),
(58,345,o),
(44,327,o),
(44,319,cs),
(44,102,o),
(111,-9,o),
(242,-9,cs)
);
},
{
closed = 1;
nodes = (
(137,29,o),
(84,119,o),
(84,310,c),
(413,310,l),
(411,119,o),
(353,29,o),
(242,29,cs)
);
}
);
};
layerId = "534F5340-05B5-45BC-BA3B-B28DD92592EB";
shapes = (
{
closed = 1;
nodes = (
(382,-9,o),
(453,106,o),
(453,332,cs),
(453,617,o),
(354,706,o),
(224,706,cs),
(158,706,o),
(108,687,o),
(53,660,c),
(59,624,l),
(120,654,o),
(165,669,o),
(219,669,cs),
(350,669,o),
(413,553,o),
(413,345,c),
(46,345,l),
(45,328,o),
(44,310,o),
(44,291,cs),
(44,150,o),
(81,-9,o),
(242,-9,cs)
);
},
{
closed = 1;
nodes = (
(137,29,o),
(84,119,o),
(84,310,c),
(413,310,l),
(411,119,o),
(353,29,o),
(242,29,cs)
);
}
);
width = 520;
},
{
background = {
shapes = (
{
closed = 1;
nodes = (
(502,-9,o),
(590,106,o),
(590,332,cs),
(590,580,o),
(497,706,o),
(313,706,cs),
(195,706,o),
(100,646,o),
(100,632,cs),
(100,628,o),
(110,612,o),
(116,612,cs),
(132,612,o),
(194,668,o),
(312,668,cs),
(466,668,o),
(547,559,o),
(550,345,c),
(103,345,ls),
(95,345,o),
(81,327,o),
(81,319,cs),
(81,102,o),
(164,-9,o),
(329,-9,cs)
);
},
{
closed = 1;
nodes = (
(190,29,o),
(120,124,o),
(120,310,c),
(550,310,l),
(548,124,o),
(474,29,o),
(329,29,cs)
);
}
);
};
layerId = "84AA6C20-0662-4373-B7CF-A8F69217EDA9";
shapes = (
{
closed = 1;
nodes = (
(502,-9,o),
(590,106,o),
(590,332,cs),
(590,619,o),
(461,706,o),
(319,706,cs),
(237,706,o),
(160,679,o),
(100,644,c),
(106,607,l),
(181,647,o),
(246,668,o),
(313,668,cs),
(456,668,o),
(550,567,o),
(550,345,c),
(85,345,l),
(83,328,o),
(82,310,o),
(82,290,cs),
(82,165,o),
(128,-9,o),
(329,-9,cs)
);
},
{
closed = 1;
nodes = (
(190,29,o),
(120,124,o),
(120,310,c),
(550,310,l),
(548,124,o),
(474,29,o),
(329,29,cs)
);
}
);
width = 672;
},
{
background = {
shapes = (
{
closed = 1;
nodes = (
(417,-1,o),
(507,111,o),
(507,332,cs),
(507,581,o),
(410,708,o),
(221,708,cs),
(134,708,o),
(22,662,o),
(22,625,cs),
(22,588,o),
(61,515,o),
(83,515,cs),
(104,515,o),
(142,552,o),
(211,552,cs),
(286,552,o),
(320,509,o),
(325,406,c),
(61,406,ls),
(38,406,o),
(0,350,o),
(0,317,cs),
(0,106,o),
(80,-1,o),
(239,-1,cs)
);
},
{
closed = 1;
nodes = (
(196,151,o),
(174,188,o),
(174,277,c),
(325,277,l),
(325,188,o),
(302,151,o),
(247,151,cs)
);
}
);
};
layerId = "A5A92505-053D-4D0C-ACDC-6F8463E28DE4";
shapes = (
{
closed = 1;
nodes = (
(417,-1,o),
(507,111,o),
(507,332,cs),
(507,626,o),
(368,708,o),
(223,708,cs),
(152,708,o),
(80,688,o),
(22,664,c),
(50,509,l),
(102,526,o),
(160,544,o),
(209,544,cs),
(274,544,o),
(324,512,o),
(325,406,c),
(11,406,l),
(5,379,o),
(0,342,o),
(0,299,cs),
(0,169,o),
(43,-1,o),
(239,-1,cs)
);
},
{
closed = 1;
nodes = (
(196,151,o),
(174,188,o),
(174,277,c),
(325,277,l),
(325,188,o),
(302,151,o),
(247,151,cs)
);
}
);
width = 520;
},
{
background = {
shapes = (
{
closed = 1;
nodes = (
(532,-1,o),
(642,111,o),
(642,332,cs),
(642,581,o),
(526,708,o),
(296,708,cs),
(188,708,o),
(47,662,o),
(47,625,cs),
(47,588,o),
(86,515,o),
(108,515,cs),
(128,515,o),
(186,552,o),
(286,552,cs),
(397,552,o),
(447,510,o),
(454,411,c),
(74,411,ls),
(51,411,o),
(13,352,o),
(13,317,cs),
(13,106,o),
(114,-1,o),
(314,-1,cs)
);
},
{
closed = 1;
nodes = (
(237,161,o),
(195,198,o),
(195,272,c),
(454,272,l),
(454,198,o),
(410,161,o),
(322,161,cs)
);
}
);
};
layerId = "ACEF5F79-87A6-4D8B-B169-2BFCF1568BF8";
shapes = (
{
closed = 1;
nodes = (
(532,-1,o),
(642,111,o),
(642,332,cs),
(642,620,o),
(478,708,o),
(303,708,cs),
(213,708,o),
(121,685,o),
(47,654,c),
(74,499,l),
(136,524,o),
(215,543,o),
(285,543,cs),
(377,543,o),
(454,509,o),
(454,411,c),
(29,411,l),
(21,379,o),
(14,337,o),
(14,292,cs),
(14,159,o),
(72,-1,o),
(314,-1,cs)
);
},
{
closed = 1;
nodes = (
(237,161,o),
(195,198,o),
(195,272,c),
(454,272,l),
(454,198,o),
(410,161,o),
(322,161,cs)
);
}
);
width = 672;
},
{
background = {
shapes = (
{
closed = 1;
nodes = (
(609,-1,o),
(737,111,o),
(737,332,cs),
(737,581,o),
(603,708,o),
(341,708,cs),
(219,708,o),
(62,662,o),
(62,625,cs),
(62,588,o),
(101,515,o),
(123,515,cs),
(142,515,o),
(219,552,o),
(331,552,cs),
(469,552,o),
(532,510,o),
(543,411,c),
(69,411,ls),
(46,411,o),
(8,352,o),
(8,317,cs),
(8,106,o),
(127,-1,o),
(359,-1,cs)
);
},
{
closed = 1;
nodes = (
(254,161,o),
(196,198,o),
(196,272,c),
(543,272,l),
(543,198,o),
(483,161,o),
(367,161,cs)
);
}
);
};
guides = (
{
pos = (778,537);
}
);
layerId = "2EA36C28-4342-4323-91EA-7DB25AD3237F";
shapes = (
{
closed = 1;
nodes = (
(609,-1,o),
(737,111,o),
(737,332,cs),
(737,600,o),
(577,708,o),
(353,708,cs),
(246,708,o),
(154,685,o),
(62,645,c),
(89,492,l),
(139,516,o),
(242,542,o),
(336,542,cs),
(439,542,o),
(533,511,o),
(543,411,c),
(29,411,l),
(17,369,o),
(10,328,o),
(10,289,cs),
(10,129,o),
(115,-1,o),
(359,-1,cs)
);
},
{
closed = 1;
nodes = (
(254,161,o),
(196,198,o),
(196,272,c),
(543,272,l),
(543,198,o),
(483,161,o),
(367,161,cs)
);
}
);
width = 780;
},
{
background = {
shapes = (
{
closed = 1;
nodes = (
(608,-9,o),
(730,106,o),
(730,332,cs),
(730,580,o),
(611,706,o),
(361,706,cs),
(202,706,o),
(75,644,o),
(75,622,cs),
(75,611,o),
(96,570,o),
(110,570,cs),
(126,570,o),
(210,629,o),
(362,629,cs),
(536,629,o),
(633,540,o),
(640,363,c),
(64,363,ls),
(52,363,o),
(31,334,o),
(31,322,cs),
(31,103,o),
(144,-9,o),
(367,-9,cs)
);
},
{
closed = 1;
nodes = (
(204,65,o),
(120,141,o),
(120,291,c),
(640,291,l),
(638,141,o),
(547,65,o),
(370,65,cs)
);
}
);
};
layerId = "8ED31224-68B7-412A-B4C3-E53F784CF4E5";
shapes = (
{
closed = 1;
nodes = (
(608,-9,o),
(730,106,o),
(730,332,cs),
(730,622,o),
(558,706,o),
(368,706,cs),
(251,706,o),
(151,678,o),
(75,635,c),
(88,560,l),
(168,602,o),
(266,629,o),
(358,629,cs),
(518,629,o),
(630,557,o),
(640,363,c),
(39,363,l),
(36,343,o),
(34,320,o),
(34,296,cs),
(34,163,o),
(96,-9,o),
(367,-9,cs)
);
},
{
closed = 1;
nodes = (
(204,65,o),
(120,141,o),
(120,291,c),
(640,291,l),
(638,141,o),
(547,65,o),
(370,65,cs)
);
}
);
width = 780;
},
{
background = {
shapes = (
{
closed = 1;
nodes = (
(610,-9,o),
(725,106,o),
(725,332,cs),
(725,580,o),
(605,706,o),
(368,706,cs),
(211,706,o),
(85,646,o),
(85,632,cs),
(85,628,o),
(95,612,o),
(101,612,cs),
(117,612,o),
(207,668,o),
(367,668,cs),
(573,668,o),
(681,559,o),
(685,345,c),
(78,345,ls),
(70,345,o),
(56,327,o),
(56,319,cs),
(56,102,o),
(166,-9,o),
(384,-9,cs)
);
},
{
closed = 1;
nodes = (
(192,29,o),
(95,124,o),
(95,310,c),
(685,310,l),
(682,124,o),
(581,29,o),
(384,29,cs)
);
}
);
};
layerId = "79DB91E0-15EF-4446-816D-FE9384315D55";
shapes = (
{
closed = 1;
nodes = (
(610,-9,o),
(725,106,o),
(725,332,cs),
(725,578,o),
(603,706,o),
(371,706,cs),
(283,706,o),
(190,689,o),
(85,644,c),
(91,608,l),
(183,646,o),
(278,668,o),
(363,668,cs),
(565,668,o),
(685,569,o),
(685,345,c),
(58,345,l),
(57,331,o),
(56,317,o),
(56,304,cs),
(56,98,o),
(179,-9,o),
(384,-9,cs)
);
},
{
closed = 1;
nodes = (
(192,29,o),
(95,124,o),
(95,310,c),
(685,310,l),
(682,124,o),
(581,29,o),
(384,29,cs)
);
}
);
width = 780;
}
);
unicode = 399;
userData = {
RMXScaler = {
source = Schwa;
};
};
},
{
glyphname = F;
kernLeft = H;
kernRight = F;
layers = (
{
anchors = (
{
name = bottom;
pos = (282,0);
},
{
name = top;
pos = (282,700);
}
);
background = {
anchors = (
{
name = bottom;
pos = (282,0);
},
{
name = top;
pos = (282,700);
}
);
shapes = (
{
closed = 1;
nodes = (
(146,-2,ls),
(176,-2,o),
(187,6,o),
(187,20,cs),
(187,295,l),
(419,295,ls),
(433,295,o),
(439,304,o),
(439,325,cs),
(439,341,ls),
(439,362,o),
(433,371,o),
(419,371,cs),
(187,371,l),
(187,624,l),
(435,624,ls),
(448,624,o),
(454,633,o),
(454,654,cs),
(454,670,ls),
(454,691,o),
(448,700,o),
(435,700,cs),
(128,700,ls),
(106,700,o),
(97,691,o),
(97,670,cs),
(97,20,ls),
(97,6,o),
(108,-2,o),
(138,-2,cs)
);
}
);
};
layerId = UUID0;
shapes = (
{
closed = 1;
nodes = (
(187,0,l),
(187,295,l),
(429,295,l),
(429,371,l),
(187,371,l),
(187,624,l),
(454,624,l),
(454,700,l),
(97,700,l),
(97,0,l)
);
}
);
width = 503;
},
{
anchors = (
{
name = bottom;
pos = (242,0);
},
{
name = top;
pos = (242,700);
}
);
background = {
anchors = (
{
name = bottom;
pos = (242,0);
},
{
name = top;
pos = (242,700);
}
);
shapes = (
{
closed = 1;
nodes = (
(131,-2,ls),
(161,-2,o),
(172,6,o),
(172,20,cs),
(172,300,l),
(358,300,ls),
(372,300,o),
(378,309,o),
(378,330,cs),
(378,346,ls),
(378,367,o),
(372,376,o),
(358,376,cs),
(172,376,l),
(172,624,l),
(374,624,ls),
(387,624,o),
(393,633,o),
(393,654,cs),
(393,670,ls),
(393,691,o),
(387,700,o),
(374,700,cs),
(113,700,ls),
(91,700,o),
(82,691,o),
(82,670,cs),
(82,20,ls),
(82,6,o),
(93,-2,o),
(123,-2,cs)
);
}
);
};
layerId = "76F17502-367F-435E-B23E-ED9D928E777B";
shapes = (
{
closed = 1;
nodes = (
(172,0,l),
(172,300,l),
(368,300,l),
(368,376,l),
(172,376,l),
(172,624,l),
(393,624,l),
(393,700,l),
(82,700,l),
(82,0,l)
);
}
);
width = 403;
},
{
anchors = (
{
name = bottom;
pos = (242,0);
},
{
name = top;
pos = (242,700);
}
);
background = {
anchors = (
{
name = bottom;
pos = (242,0);
},
{
name = top;
pos = (242,700);
}
);
shapes = (
{
closed = 1;
nodes = (
(132,-2,ls),
(143,-2,o),
(148,2,o),
(148,10,cs),
(148,320,l),
(324,320,ls),
(332,320,o),
(336,324,o),
(336,334,cs),
(336,342,ls),
(336,352,o),
(332,356,o),
(324,356,cs),
(148,356,l),
(148,664,l),
(342,664,ls),
(350,664,o),
(354,668,o),
(354,678,cs),
(354,686,ls),
(354,696,o),
(350,700,o),
(342,700,cs),
(124,700,ls),
(113,700,o),
(108,696,o),
(108,686,cs),
(108,10,ls),
(108,2,o),
(113,-2,o),
(124,-2,cs)
);
}
);
};
layerId = "534F5340-05B5-45BC-BA3B-B28DD92592EB";
shapes = (
{
closed = 1;
nodes = (
(148,0,l),
(148,320,l),
(336,320,l),
(336,356,l),
(148,356,l),
(148,664,l),
(354,664,l),
(354,700,l),
(108,700,l),
(108,0,l)
);
}
);
width = 403;
},
{
anchors = (
{
name = bottom;
pos = (302,0);
},
{
name = top;
pos = (302,700);
}
);
background = {
anchors = (
{
name = bottom;
pos = (302,0);
},
{
name = top;
pos = (302,700);
}
);
shapes = (
{
closed = 1;
nodes = (
(146,-2,ls),
(157,-2,o),
(162,2,o),
(162,10,cs),
(162,315,l),
(446,315,ls),
(454,315,o),
(458,319,o),
(458,329,cs),
(458,337,ls),
(458,347,o),
(454,351,o),
(446,351,cs),
(162,351,l),
(162,664,l),
(467,664,ls),
(475,664,o),
(479,668,o),
(479,678,cs),
(479,686,ls),
(479,696,o),
(475,700,o),
(467,700,cs),
(138,700,ls),
(127,700,o),
(122,696,o),
(122,686,cs),
(122,10,ls),
(122,2,o),
(127,-2,o),
(138,-2,cs)
);
}
);
};
layerId = "84AA6C20-0662-4373-B7CF-A8F69217EDA9";
shapes = (
{
closed = 1;
nodes = (
(162,0,l),
(162,315,l),
(448,315,l),
(448,351,l),
(162,351,l),
(162,664,l),
(479,664,l),
(479,700,l),
(122,700,l),
(122,0,l)
);
}
);
width = 503;
},
{
anchors = (
{
name = bottom;
pos = (232,0);
},
{
name = top;
pos = (232,700);
}
);
background = {
anchors = (
{
name = bottom;
pos = (232,0);
},
{
name = top;
pos = (232,700);
}
);
shapes = (
{
closed = 1;
nodes = (
(134,-2,ls),
(190,-2,o),
(214,14,o),
(214,41,cs),
(214,243,l),
(329,243,ls),
(357,243,o),
(369,261,o),
(369,303,cs),
(369,354,ls),
(369,396,o),
(357,414,o),
(329,414,cs),
(214,414,l),
(214,529,l),
(349,529,ls),
(377,529,o),
(389,547,o),
(389,589,cs),
(389,640,ls),
(389,682,o),
(377,700,o),
(349,700,cs),
(92,700,ls),
(52,700,o),
(35,688,o),
(35,660,cs),
(35,41,ls),
(35,14,o),
(59,-2,o),
(115,-2,cs)
);
}
);
};
layerId = "A5A92505-053D-4D0C-ACDC-6F8463E28DE4";
shapes = (
{
closed = 1;
nodes = (
(214,0,l),
(214,248,l),
(359,248,l),
(359,409,l),
(214,409,l),
(214,529,l),
(389,529,l),
(389,700,l),
(35,700,l),
(35,0,l)
);
}
);
width = 403;
},
{
anchors = (
{
name = bottom;
pos = (272,0);
},
{
name = top;
pos = (272,700);
}
);
background = {
anchors = (
{
name = bottom;
pos = (272,0);
},
{
name = top;
pos = (272,700);
}
);
shapes = (
{
closed = 1;
nodes = (
(155,-2,ls),
(211,-2,o),
(235,14,o),
(235,41,cs),
(235,233,l),
(418,233,ls),
(446,233,o),
(458,251,o),
(458,293,cs),
(458,344,ls),
(458,386,o),
(446,404,o),
(418,404,cs),
(235,404,l),
(235,529,l),
(438,529,ls),
(466,529,o),
(478,547,o),
(478,589,cs),
(478,640,ls),
(478,682,o),
(466,700,o),
(438,700,cs),
(107,700,ls),
(67,700,o),
(50,688,o),
(50,660,cs),
(50,41,ls),
(50,14,o),
(74,-2,o),
(130,-2,cs)
);
}
);
};
layerId = "ACEF5F79-87A6-4D8B-B169-2BFCF1568BF8";
shapes = (
{
closed = 1;
nodes = (
(235,5,l),
(235,238,l),
(438,238,l),
(438,404,l),
(235,404,l),
(235,534,l),
(478,534,l),
(478,705,l),
(50,705,l),
(50,5,l)
);
}
);
width = 503;
},
{
anchors = (
{
name = bottom;
pos = (342,0);
},
{
name = top;
pos = (342,700);
}
);
background = {
anchors = (
{
name = bottom;
pos = (342,0);
},
{
name = top;
pos = (342,700);
}
);
shapes = (
{
closed = 1;
nodes = (
(179,-2,ls),
(235,-2,o),
(259,14,o),
(259,41,cs),
(259,223,l),
(513,223,ls),
(541,223,o),
(553,241,o),
(553,283,cs),
(553,334,ls),
(553,376,o),
(541,394,o),
(513,394,cs),
(259,394,l),
(259,529,l),
(533,529,ls),
(561,529,o),
(573,547,o),
(573,589,cs),
(573,640,ls),
(573,682,o),
(561,700,o),
(533,700,cs),
(125,700,ls),
(85,700,o),
(68,688,o),
(68,660,cs),
(68,41,ls),
(68,14,o),
(92,-2,o),
(148,-2,cs)
);
}
);
};
layerId = "2EA36C28-4342-4323-91EA-7DB25AD3237F";
shapes = (
{
closed = 1;
nodes = (
(259,0,l),
(259,228,l),
(523,228,l),
(523,389,l),
(259,389,l),
(259,529,l),
(573,529,l),
(573,700,l),
(68,700,l),
(68,0,l)
);
}
);
width = 603;
},
{
anchors = (
{
name = bottom;
pos = (352,0);
},
{
name = top;
pos = (352,700);
}
);
background = {
anchors = (
{
name = bottom;
pos = (352,0);
},
{
name = top;
pos = (352,700);
}
);
shapes = (
{
closed = 1;
nodes = (
(164,-2,ls),
(194,-2,o),
(205,6,o),
(205,20,cs),
(205,290,l),
(542,290,ls),
(556,290,o),
(562,299,o),
(562,320,cs),
(562,336,ls),
(562,357,o),
(556,366,o),
(542,366,cs),
(205,366,l),
(205,624,l),
(558,624,ls),
(571,624,o),
(577,633,o),
(577,654,cs),
(577,670,ls),
(577,691,o),
(571,700,o),
(558,700,cs),
(146,700,ls),
(124,700,o),
(115,691,o),
(115,670,cs),
(115,20,ls),
(115,6,o),
(126,-2,o),
(156,-2,cs)
);
}
);
};
layerId = "8ED31224-68B7-412A-B4C3-E53F784CF4E5";
shapes = (
{
closed = 1;
nodes = (
(205,0,l),
(205,290,l),
(541,290,l),
(541,366,l),
(205,366,l),
(205,624,l),
(577,624,l),
(577,700,l),
(115,700,l),
(115,0,l)
);
}
);
width = 603;
},
{
anchors = (
{
name = bottom;
pos = (352,0);
},
{
name = top;
pos = (352,700);
}
);
background = {
anchors = (
{
name = bottom;
pos = (352,0);
},
{
name = top;
pos = (352,700);
}
);
shapes = (
{
closed = 1;
nodes = (
(164,-2,ls),
(175,-2,o),
(180,2,o),
(180,10,cs),
(180,310,l),
(521,310,ls),
(529,310,o),
(533,314,o),
(533,324,cs),
(533,332,ls),
(533,342,o),
(529,346,o),
(521,346,cs),
(180,346,l),
(180,664,l),
(551,664,ls),
(559,664,o),
(563,668,o),
(563,678,cs),
(563,686,ls),
(563,696,o),
(559,700,o),
(551,700,cs),
(156,700,ls),
(145,700,o),
(140,696,o),
(140,686,cs),
(140,10,ls),
(140,2,o),
(145,-2,o),
(156,-2,cs)
);
}
);
};
layerId = "79DB91E0-15EF-4446-816D-FE9384315D55";
shapes = (
{
closed = 1;
nodes = (
(180,0,l),
(180,310,l),
(513,310,l),
(513,346,l),
(180,346,l),
(180,664,l),
(563,664,l),
(563,700,l),
(140,700,l),
(140,0,l)
);
}
);
width = 603;
}
);
unicode = 70;
userData = {
RMXScaler = {
source = F;
};
};
},
{
glyphname = G;
kernLeft = O;
kernRight = G;
layers = (
{
anchors = (
{
name = bottom;
pos = (355,0);
},
{
name = top;
pos = (355,700);
}
);
background = {
anchors = (
{
name = bottom;
pos = (355,0);
},
{
name = top;
pos = (355,700);
}
);
shapes = (
{
closed = 1;
nodes = (
(454,-6,o),
(518,13,o),
(569,42,cs),
(584,50,o),
(589,56,o),
(589,78,cs),
(589,350,ls),
(589,371,o),
(580,380,o),
(558,380,cs),
(364,380,ls),
(350,380,o),
(344,371,o),
(344,350,cs),
(344,335,ls),
(344,314,o),
(350,305,o),
(364,305,cs),
(501,305,l),
(501,49,l),
(513,102,l),
(491,83,o),
(435,70,o),
(379,70,cs),
(222,70,o),
(148,157,o),
(148,349,cs),
(148,546,o),
(223,630,o),
(383,630,cs),
(476,630,o),
(522,593,o),
(538,593,cs),
(554,593,o),
(572,629,o),
(572,644,cs),
(572,652,o),
(563,661,o),
(548,670,cs),
(514,689,o),
(449,706,o),
(381,706,cs),
(167,706,o),
(57,589,o),
(57,350,cs),
(57,106,o),
(160,-6,o),
(379,-6,cs)
);
}
);
};
layerId = UUID0;
shapes = (
{
closed = 1;
nodes = (
(471,-6,o),
(541,22,o),
(589,49,c),
(589,380,l),
(344,380,l),
(344,305,l),
(501,305,l),
(501,49,l),
(513,102,l),
(491,83,o),
(435,70,o),
(379,70,cs),
(222,70,o),
(148,157,o),
(148,349,cs),
(148,546,o),
(225,630,o),
(380,630,cs),
(436,630,o),
(486,618,o),
(555,594,c),
(569,667,l),
(516,689,o),
(446,706,o),
(377,706,cs),
(206,706,o),
(57,627,o),
(57,350,cs),
(57,69,o),
(199,-6,o),
(374,-6,cs)
);
}
);
width = 672;
},
{
anchors = (
{
name = bottom;
pos = (285,0);
},
{
name = top;
pos = (285,700);
}
);
background = {
anchors = (
{
name = bottom;
pos = (285,0);
},
{
name = top;
pos = (285,700);
}
);
shapes = (
{
closed = 1;
nodes = (
(350,-6,o),
(416,10,o),
(451,34,cs),
(468,46,o),
(472,55,o),
(472,71,cs),
(472,350,ls),
(472,371,o),
(463,380,o),
(441,380,cs),
(288,380,ls),
(274,380,o),
(268,371,o),
(268,350,cs),
(268,334,ls),
(268,313,o),
(274,304,o),
(288,304,cs),
(385,304,l),
(385,49,l),
(403,93,l),
(382,82,o),
(345,70,o),
(302,70,cs),
(183,70,o),
(133,153,o),
(133,352,cs),
(133,548,o),
(186,630,o),
(313,630,cs),
(372,630,o),
(400,617,o),
(417,617,cs),
(432,617,o),
(441,645,o),
(441,665,cs),
(441,677,o),
(435,682,o),
(424,687,cs),
(399,698,o),
(355,706,o),
(313,706,cs),
(131,706,o),
(42,593,o),
(42,352,cs),
(42,107,o),
(129,-6,o),
(295,-6,cs)
);
}
);
};
layerId = "76F17502-367F-435E-B23E-ED9D928E777B";
shapes = (
{
closed = 1;
nodes = (
(373,-6,o),
(427,18,o),
(472,44,c),
(472,380,l),
(268,380,l),
(268,304,l),
(385,304,l),
(385,49,l),
(403,93,l),
(382,82,o),
(345,70,o),
(302,70,cs),
(183,70,o),
(133,153,o),
(133,352,cs),
(133,556,o),
(192,630,o),
(312,630,cs),
(348,630,o),
(388,623,o),
(428,612,c),
(441,684,l),
(401,698,o),
(357,706,o),
(310,706,cs),
(169,706,o),
(42,636,o),
(42,352,cs),
(42,72,o),
(158,-6,o),
(294,-6,cs)
);
}
);
width = 530;
},
{
anchors = (
{
name = bottom;
pos = (295,0);
},
{
name = top;
pos = (295,700);
}
);
background = {
anchors = (
{
name = bottom;
pos = (295,0);
},
{
name = top;
pos = (295,700);
}
);
shapes = (
{
closed = 1;
nodes = (
(335,-6,o),
(381,-1,o),
(432,17,cs),
(451,24,o),
(454,28,o),
(454,45,cs),
(454,352,ls),
(454,362,o),
(449,366,o),
(438,366,cs),
(279,366,ls),
(271,366,o),
(267,362,o),
(267,352,cs),
(267,344,ls),
(267,334,o),
(271,330,o),
(279,330,cs),
(415,330,l),
(415,29,l),
(438,61,l),
(406,45,o),
(351,32,o),
(297,32,cs),
(173,32,o),
(110,140,o),
(110,352,cs),
(110,561,o),
(178,668,o),
(312,668,cs),
(364,668,o),
(401,652,o),
(413,652,cs),
(421,652,o),
(427,663,o),
(427,677,cs),
(427,682,o),
(425,685,o),
(421,687,cs),
(398,697,o),
(363,706,o),
(312,706,cs),
(150,706,o),
(68,587,o),
(68,352,cs),
(68,115,o),
(145,-6,o),
(297,-6,cs)
);
}
);
};
layerId = "534F5340-05B5-45BC-BA3B-B28DD92592EB";
shapes = (
{
closed = 1;
nodes = (
(358,-6,o),
(411,8,o),
(454,25,c),
(454,366,l),
(267,366,l),
(267,330,l),
(415,330,l),
(415,29,l),
(438,61,l),
(406,45,o),
(351,32,o),
(297,32,cs),
(173,32,o),
(110,140,o),
(110,352,cs),
(110,549,o),
(170,668,o),
(312,668,cs),
(345,668,o),
(384,661,o),
(421,650,c),
(427,686,l),
(389,700,o),
(348,706,o),
(311,706,cs),
(153,706,o),
(68,591,o),
(68,352,cs),
(68,62,o),
(182,-6,o),
(299,-6,cs)
);
}
);
width = 530;
},
{
anchors = (
{
name = bottom;
pos = (363,0);
},
{
name = top;
pos = (363,700);
}
);
background = {
anchors = (
{
name = bottom;
pos = (363,0);
},
{
name = top;
pos = (363,700);
}
);
shapes = (
{
closed = 1;
nodes = (
(422,-6,o),
(485,2,o),
(556,27,cs),
(575,34,o),
(578,38,o),
(578,55,cs),
(578,352,ls),
(578,362,o),
(573,366,o),
(562,366,cs),
(343,366,ls),
(335,366,o),
(331,362,o),
(331,352,cs),
(331,344,ls),
(331,334,o),
(335,330,o),
(343,330,cs),
(539,330,l),
(539,39,l),
(562,73,l),
(530,54,o),
(468,32,o),
(370,32,cs),
(209,32,o),
(124,142,o),
(124,352,cs),
(124,560,o),
(209,668,o),
(370,668,cs),
(488,668,o),
(537,606,o),
(553,606,cs),
(561,606,o),
(572,620,o),
(572,628,cs),
(572,634,o),
(552,653,o),
(519,670,cs),
(487,686,o),
(442,706,o),
(370,706,cs),
(181,706,o),
(82,585,o),
(82,352,cs),
(82,117,o),
(181,-6,o),
(370,-6,cs)
);
}
);
};
layerId = "84AA6C20-0662-4373-B7CF-A8F69217EDA9";
shapes = (
{
closed = 1;
nodes = (
(451,-6,o),
(521,12,o),
(578,35,c),
(578,366,l),
(331,366,l),
(331,330,l),
(539,330,l),
(539,39,l),
(562,73,l),
(530,54,o),
(468,32,o),
(370,32,cs),
(209,32,o),
(124,142,o),
(124,352,cs),
(124,584,o),
(229,668,o),
(370,668,cs),
(435,668,o),
(501,647,o),
(561,612,c),
(567,649,l),
(508,684,o),
(438,706,o),
(366,706,cs),
(209,706,o),
(82,615,o),
(82,352,cs),
(82,68,o),
(224,-6,o),
(369,-6,cs)
);
}
);
width = 672;
},
{
anchors = (
{
name = bottom;
pos = (285,0);
},
{
name = top;
pos = (285,700);
}
);
background = {
anchors = (
{
name = bottom;
pos = (285,0);
},
{
name = top;
pos = (285,700);
}
);
shapes = (
{
closed = 1;
nodes = (
(352,-8,o),
(415,3,o),
(457,23,cs),
(491,40,o),
(500,50,o),
(500,82,cs),
(500,380,ls),
(500,408,o),
(483,420,o),
(443,420,cs),
(312,420,ls),
(284,420,o),
(272,402,o),
(272,370,cs),
(272,324,ls),
(272,282,o),
(284,264,o),
(312,264,cs),
(341,264,l),
(341,79,l),
(399,172,l),
(365,159,o),
(345,155,o),
(316,155,cs),
(230,155,o),
(203,200,o),
(203,350,cs),
(203,484,o),
(239,537,o),
(328,537,cs),
(373,537,o),
(399,526,o),
(420,526,cs),
(447,526,o),
(467,617,o),
(467,652,cs),
(467,675,o),
(457,684,o),
(431,693,cs),
(411,700,o),
(363,708,o),
(317,708,cs),
(117,708,o),
(16,588,o),
(16,350,cs),
(16,103,o),
(127,-8,o),
(310,-8,cs)
);
}
);
};
layerId = "A5A92505-053D-4D0C-ACDC-6F8463E28DE4";
shapes = (
{
closed = 1;
nodes = (
(381,-8,o),
(454,15,o),
(500,45,c),
(500,420,l),
(272,420,l),
(272,264,l),
(341,264,l),
(341,79,l),
(399,172,l),
(365,159,o),
(345,155,o),
(316,155,cs),
(230,155,o),
(203,200,o),
(203,350,cs),
(203,490,o),
(243,537,o),
(331,537,cs),
(360,537,o),
(404,529,o),
(439,521,c),
(467,681,l),
(428,697,o),
(371,708,o),
(317,708,cs),
(160,708,o),
(16,635,o),
(16,350,cs),
(16,75,o),
(154,-8,o),
(306,-8,cs)
);
}
);
width = 530;
},
{
anchors = (
{
name = bottom;
pos = (351,0);
},
{
name = top;
pos = (351,700);
}
);
background = {
anchors = (
{
name = bottom;
pos = (351,0);
},
{
name = top;
pos = (351,700);
}
);
shapes = (
{
closed = 1;
nodes = (
(434,-8,o),
(516,13,o),
(565,39,cs),
(615,65,o),
(624,74,o),
(624,106,cs),
(624,380,ls),
(624,408,o),
(607,420,o),
(567,420,cs),
(396,420,ls),
(368,420,o),
(356,402,o),
(356,370,cs),
(356,324,ls),
(356,282,o),
(368,264,o),
(396,264,cs),
(459,264,l),
(459,79,l),
(523,194,l),
(489,173,o),
(429,158,o),
(381,158,cs),
(273,158,o),
(223,219,o),
(223,350,cs),
(223,479,o),
(272,537,o),
(381,537,cs),
(471,537,o),
(509,508,o),
(530,508,cs),
(558,508,o),
(594,597,o),
(594,630,cs),
(594,646,o),
(583,657,o),
(567,666,cs),
(524,692,o),
(439,708,o),
(371,708,cs),
(147,708,o),
(30,588,o),
(30,350,cs),
(30,115,o),
(147,-8,o),
(371,-8,cs)
);
}
);
};
layerId = "ACEF5F79-87A6-4D8B-B169-2BFCF1568BF8";
shapes = (
{
closed = 1;
nodes = (
(466,-8,o),
(563,29,o),
(624,72,c),
(624,420,l),
(356,420,l),
(356,264,l),
(459,264,l),
(459,79,l),
(523,194,l),
(489,173,o),
(429,158,o),
(381,158,cs),
(273,158,o),
(223,219,o),
(223,350,cs),
(223,494,o),
(284,537,o),
(381,537,cs),
(443,537,o),
(503,518,o),
(558,500,c),
(585,662,l),
(526,689,o),
(450,708,o),
(369,708,cs),
(186,708,o),
(30,624,o),
(30,350,cs),
(30,81,o),
(182,-8,o),
(369,-8,cs)
);
}
);
width = 672;
},
{
anchors = (
{
name = bottom;
pos = (416,0);
},
{
name = top;
pos = (416,700);
}
);
background = {
anchors = (
{
name = bottom;
pos = (416,0);
},
{
name = top;
pos = (416,700);
}
);
shapes = (
{
closed = 1;
nodes = (
(523,-8,o),
(616,14,o),
(683,47,cs),
(733,72,o),
(742,82,o),
(742,114,cs),
(742,380,ls),
(742,408,o),
(725,420,o),
(685,420,cs),
(444,420,ls),
(416,420,o),
(404,402,o),
(404,370,cs),
(404,324,ls),
(404,282,o),
(416,264,o),
(444,264,cs),
(571,264,l),
(571,79,l),
(641,199,l),
(607,178,o),
(511,163,o),
(439,163,cs),
(308,163,o),
(242,226,o),
(242,350,cs),
(242,474,o),
(308,537,o),
(439,537,cs),
(564,537,o),
(617,509,o),
(648,509,cs),
(683,509,o),
(706,589,o),
(706,622,cs),
(706,638,o),
(695,649,o),
(679,658,cs),
(634,685,o),
(519,708,o),
(439,708,cs),
(176,708,o),
(43,587,o),
(43,350,cs),
(43,113,o),
(176,-8,o),
(439,-8,cs)
);
}
);
};
layerId = "2EA36C28-4342-4323-91EA-7DB25AD3237F";
shapes = (
{
closed = 1;
nodes = (
(550,-9,o),
(665,29,o),
(742,74,c),
(742,420,l),
(404,420,l),
(404,264,l),
(571,264,l),
(571,79,l),
(641,199,l),
(607,178,o),
(511,163,o),
(439,163,cs),
(308,163,o),
(242,226,o),
(242,350,cs),
(242,495,o),
(331,537,o),
(442,537,cs),
(514,537,o),
(600,522,o),
(671,504,c),
(698,661,l),
(614,693,o),
(523,708,o),
(434,708,cs),
(205,708,o),
(43,611,o),
(43,350,cs),
(43,79,o),
(220,-9,o),
(433,-9,cs)
);
}
);
width = 805;
},
{
anchors = (
{
name = bottom;
pos = (413,0);
},
{
name = top;
pos = (413,700);
}
);
background = {
anchors = (
{
name = bottom;
pos = (413,0);
},
{
name = top;
pos = (413,700);
}
);
shapes = (
{
closed = 1;
nodes = (
(527,-6,o),
(628,14,o),
(682,42,cs),
(697,50,o),
(702,56,o),
(702,78,cs),
(702,350,ls),
(702,371,o),
(693,380,o),
(671,380,cs),
(437,380,ls),
(423,380,o),
(417,371,o),
(417,350,cs),
(417,335,ls),
(417,314,o),
(423,305,o),
(437,305,cs),
(614,305,l),
(614,49,l),
(626,102,l),
(599,83,o),
(522,70,o),
(448,70,cs),
(244,70,o),
(141,165,o),
(141,352,cs),
(141,536,o),
(244,630,o),
(448,630,cs),
(570,630,o),
(635,593,o),
(651,593,cs),
(667,593,o),
(685,629,o),
(685,644,cs),
(685,652,o),
(676,661,o),
(661,670,cs),
(627,689,o),
(512,706,o),
(448,706,cs),
(184,706,o),
(50,587,o),
(50,352,cs),
(50,115,o),
(184,-6,o),
(448,-6,cs)
);
}
);
};
layerId = "8ED31224-68B7-412A-B4C3-E53F784CF4E5";
shapes = (
{
closed = 1;
nodes = (
(540,-6,o),
(625,15,o),
(702,48,c),
(702,380,l),
(417,380,l),
(417,305,l),
(614,305,l),
(614,49,l),
(626,102,l),
(599,83,o),
(522,70,o),
(448,70,cs),
(244,70,o),
(141,165,o),
(141,352,cs),
(141,574,o),
(288,630,o),
(449,630,cs),
(529,630,o),
(605,611,o),
(668,590,c),
(681,663,l),
(614,688,o),
(522,706,o),
(445,706,cs),
(212,705,o),
(50,612,o),
(50,352,cs),
(50,86,o),
(217,-6,o),
(447,-6,cs)
);
}
);
width = 805;
},
{
anchors = (
{
name = bottom;
pos = (413,0);
},
{
name = top;
pos = (413,700);
}
);
background = {
anchors = (
{
name = bottom;
pos = (413,0);
},
{
name = top;
pos = (413,700);
}
);
shapes = (
{
closed = 1;
nodes = (
(525,-6,o),
(614,3,o),
(666,17,cs),
(685,22,o),
(688,28,o),
(688,45,cs),
(688,352,ls),
(688,362,o),
(683,366,o),
(672,366,cs),
(403,366,ls),
(395,366,o),
(391,362,o),
(391,352,cs),
(391,344,ls),
(391,334,o),
(395,330,o),
(403,330,cs),
(649,330,l),
(649,29,l),
(672,61,l),
(636,44,o),
(534,32,o),
(429,32,cs),
(210,32,o),
(98,142,o),
(98,352,cs),
(98,561,o),
(213,668,o),
(439,668,cs),
(575,668,o),
(644,623,o),
(654,623,cs),
(665,623,o),
(673,640,o),
(673,646,cs),
(673,654,o),
(655,665,o),
(624,677,cs),
(588,691,o),
(510,706,o),
(439,706,cs),
(185,706,o),
(56,587,o),
(56,352,cs),
(56,117,o),
(182,-6,o),
(429,-6,cs)
);
}
);
};
layerId = "79DB91E0-15EF-4446-816D-FE9384315D55";
shapes = (
{
closed = 1;
nodes = (
(523,-6,o),
(619,3,o),
(688,22,c),
(688,366,l),
(391,366,l),
(391,330,l),
(649,330,l),
(649,29,l),
(672,61,l),
(636,44,o),
(534,32,o),
(429,32,cs),
(210,32,o),
(98,142,o),
(98,352,cs),
(98,601,o),
(251,668,o),
(431,668,cs),
(528,668,o),
(602,649,o),
(663,629,c),
(669,665,l),
(610,688,o),
(519,706,o),
(436,706,cs),
(221,706,o),
(56,619,o),
(56,352,cs),
(56,61,o),
(245,-6,o),
(433,-6,cs)
);
}
);
width = 805;
}
);
unicode = 71;
userData = {
RMXScaler = {
source = G;
};
};
},
{
glyphname = H;
kernLeft = H;
kernRight = H;
layers = (
{
anchors = (
{
name = bottom;
pos = (367,0);
},
{
name = center;
pos = (367,535);
},
{
name = top;
pos = (367,700);
}
);
background = {
anchors = (
{
name = bottom;
pos = (367,0);
},
{
name = center;
pos = (367,535);
},
{
name = top;
pos = (367,700);
}
);
shapes = (
{
closed = 1;
nodes = (
(187,0,l),
(187,321,l),
(546,321,l),
(546,0,l),
(636,0,l),
(636,700,l),
(546,700,l),
(546,397,l),
(187,397,l),
(187,700,l),
(97,700,l),
(97,0,l)
);
}
);
};
layerId = UUID0;
shapes = (
{
closed = 1;
nodes = (
(187,0,l),
(187,321,l),
(546,321,l),
(546,0,l),
(636,0,l),
(636,700,l),
(546,700,l),
(546,397,l),
(187,397,l),
(187,700,l),
(97,700,l),
(97,0,l)
);
}
);
width = 733;
},
{
anchors = (
{
name = bottom;
pos = (290,0);
},
{
name = center;
pos = (290,535);
},
{
name = top;
pos = (290,700);
}
);
background = {
anchors = (
{
name = bottom;
pos = (290,0);
},
{
name = center;
pos = (290,535);
},
{
name = top;
pos = (290,700);
}
);
shapes = (
{
closed = 1;
nodes = (
(172,0,l),
(172,321,l),
(409,321,l),
(409,0,l),
(499,0,l),
(499,700,l),
(409,700,l),
(409,397,l),
(172,397,l),
(172,700,l),
(82,700,l),
(82,0,l)
);
}
);
};
layerId = "76F17502-367F-435E-B23E-ED9D928E777B";
shapes = (
{
closed = 1;
nodes = (
(172,0,l),
(172,321,l),
(409,321,l),
(409,0,l),
(499,0,l),
(499,700,l),
(409,700,l),
(409,397,l),
(172,397,l),
(172,700,l),
(82,700,l),
(82,0,l)
);
}
);
width = 581;
},
{
anchors = (
{
name = bottom;
pos = (290,0);
},
{
name = center;
pos = (290,535);
},
{
name = top;
pos = (290,700);
}
);
background = {
anchors = (
{
name = bottom;
pos = (290,0);
},
{
name = center;
pos = (290,535);
},
{
name = top;
pos = (290,700);
}
);
shapes = (
{
closed = 1;
nodes = (
(148,0,l),
(148,341,l),
(433,341,l),
(433,0,l),
(473,0,l),
(473,700,l),
(433,700,l),
(433,377,l),
(148,377,l),
(148,700,l),
(108,700,l),
(108,0,l)
);
}
);
};
layerId = "534F5340-05B5-45BC-BA3B-B28DD92592EB";
shapes = (
{
closed = 1;
nodes = (
(148,0,l),
(148,341,l),
(433,341,l),
(433,0,l),
(473,0,l),
(473,700,l),
(433,700,l),
(433,377,l),
(148,377,l),
(148,700,l),
(108,700,l),
(108,0,l)
);
}
);
width = 581;
},
{
anchors = (
{
name = bottom;
pos = (367,0);
},
{
name = center;
pos = (367,535);
},
{
name = top;
pos = (367,700);
}
);
background = {
anchors = (
{
name = bottom;
pos = (367,0);
},
{
name = center;
pos = (367,535);
},
{
name = top;
pos = (367,700);
}
);
shapes = (
{
closed = 1;
nodes = (
(162,0,l),
(162,341,l),
(571,341,l),
(571,0,l),
(611,0,l),
(611,700,l),
(571,700,l),
(571,377,l),
(162,377,l),
(162,700,l),
(122,700,l),
(122,0,l)
);
}
);
};
layerId = "84AA6C20-0662-4373-B7CF-A8F69217EDA9";
shapes = (
{
closed = 1;
nodes = (
(162,0,l),
(162,341,l),
(571,341,l),
(571,0,l),
(611,0,l),
(611,700,l),
(571,700,l),
(571,377,l),
(162,377,l),
(162,700,l),
(122,700,l),
(122,0,l)
);
}
);
width = 733;
},
{
anchors = (
{
name = bottom;
pos = (291,0);
},
{
name = center;
pos = (291,555);
},
{
name = top;
pos = (291,700);
}
);
background = {
anchors = (
{
name = bottom;
pos = (291,0);
},
{
name = center;
pos = (291,555);
},
{
name = top;
pos = (291,700);
}
);
shapes = (
{
closed = 1;
nodes = (
(214,0,l),
(214,272,l),
(367,272,l),
(367,0,l),
(546,0,l),
(546,700,l),
(367,700,l),
(367,443,l),
(214,443,l),
(214,700,l),
(35,700,l),
(35,0,l)
);
}
);
};
layerId = "A5A92505-053D-4D0C-ACDC-6F8463E28DE4";
shapes = (
{
closed = 1;
nodes = (
(214,0,l),
(214,272,l),
(367,272,l),
(367,0,l),
(546,0,l),
(546,700,l),
(367,700,l),
(367,443,l),
(214,443,l),
(214,700,l),
(35,700,l),
(35,0,l)
);
}
);
width = 581;
},
{
anchors = (
{
name = bottom;
pos = (367,0);
},
{
name = center;
pos = (367,555);
},
{
name = top;
pos = (367,700);
}
);
background = {
anchors = (
{
name = bottom;
pos = (367,0);
},
{
name = center;
pos = (367,555);
},
{
name = top;
pos = (367,700);
}
);
shapes = (
{
closed = 1;
nodes = (
(235,0,l),
(235,272,l),
(498,272,l),
(498,0,l),
(683,0,l),
(683,700,l),
(498,700,l),
(498,443,l),
(235,443,l),
(235,700,l),
(50,700,l),
(50,0,l)
);
}
);
};
layerId = "ACEF5F79-87A6-4D8B-B169-2BFCF1568BF8";
shapes = (
{
closed = 1;
nodes = (
(235,0,l),
(235,272,l),
(498,272,l),
(498,0,l),
(683,0,l),
(683,700,l),
(498,700,l),
(498,443,l),
(235,443,l),
(235,700,l),
(50,700,l),
(50,0,l)
);
}
);
width = 733;
},
{
anchors = (
{
name = bottom;
pos = (429,0);
},
{
name = center;
pos = (429,555);
},
{
name = top;
pos = (429,700);
}
);
background = {
anchors = (
{
name = bottom;
pos = (429,0);
},
{
name = center;
pos = (429,555);
},
{
name = top;
pos = (429,700);
}
);
shapes = (
{
closed = 1;
nodes = (
(259,0,l),
(259,272,l),
(599,272,l),
(599,0,l),
(790,0,l),
(790,700,l),
(599,700,l),
(599,443,l),
(259,443,l),
(259,700,l),
(68,700,l),
(68,0,l)
);
}
);
};
layerId = "2EA36C28-4342-4323-91EA-7DB25AD3237F";
shapes = (
{
closed = 1;
nodes = (
(259,0,l),
(259,272,l),
(599,272,l),
(599,0,l),
(790,0,l),
(790,700,l),
(599,700,l),
(599,443,l),
(259,443,l),
(259,700,l),
(68,700,l),
(68,0,l)
);
}
);
width = 858;
},
{
anchors = (
{
name = bottom;
pos = (429,0);
},
{
name = center;
pos = (429,535);
},
{
name = top;
pos = (429,700);
}
);
background = {
anchors = (
{
name = bottom;
pos = (429,0);
},
{
name = center;
pos = (429,535);
},
{
name = top;
pos = (429,700);
}
);
shapes = (
{
closed = 1;
nodes = (
(205,0,l),
(205,321,l),
(653,321,l),
(653,0,l),
(743,0,l),
(743,700,l),
(653,700,l),
(653,397,l),
(205,397,l),
(205,700,l),
(115,700,l),
(115,0,l)
);
}
);
};
layerId = "8ED31224-68B7-412A-B4C3-E53F784CF4E5";
shapes = (
{
closed = 1;
nodes = (
(205,0,l),
(205,321,l),
(653,321,l),
(653,0,l),
(743,0,l),
(743,700,l),
(653,700,l),
(653,397,l),
(205,397,l),
(205,700,l),
(115,700,l),
(115,0,l)
);
}
);
width = 858;
},
{
anchors = (
{
name = bottom;
pos = (429,0);
},
{
name = center;
pos = (429,535);
},
{
name = top;
pos = (429,700);
}
);
background = {
anchors = (
{
name = bottom;
pos = (429,0);
},
{
name = center;
pos = (429,535);
},
{
name = top;
pos = (429,700);
}
);
shapes = (
{
closed = 1;
nodes = (
(180,0,l),
(180,341,l),
(678,341,l),
(678,0,l),
(718,0,l),
(718,700,l),
(678,700,l),
(678,377,l),
(180,377,l),
(180,700,l),
(140,700,l),
(140,0,l)
);
}
);
};
layerId = "79DB91E0-15EF-4446-816D-FE9384315D55";
shapes = (
{
closed = 1;
nodes = (
(180,0,l),
(180,341,l),
(678,341,l),
(678,0,l),
(718,0,l),
(718,700,l),
(678,700,l),
(678,377,l),
(180,377,l),
(180,700,l),
(140,700,l),
(140,0,l)
);
}
);
width = 858;
}
);
unicode = 72;
userData = {
RMXScaler = {
source = H;
};
};
},
{
glyphname = Hbar;
kernLeft = H;
kernRight = H;
layers = (
{
background = {
shapes = (
{
closed = 1;
nodes = (
(675,501,ls),
(689,501,o),
(695,510,o),
(695,531,cs),
(695,541,ls),
(695,562,o),
(689,571,o),
(675,571,cs),
(58,571,ls),
(44,571,o),
(38,562,o),
(38,541,cs),
(38,531,ls),
(38,510,o),
(44,501,o),
(58,501,cs)
);
},
{
ref = H;
}
);
};
layerId = UUID0;
shapes = (
{
closed = 1;
nodes = (
(695,501,l),
(695,571,l),
(38,571,l),
(38,501,l)
);
},
{
ref = H;
}
);
width = 733;
},
{
background = {
shapes = (
{
closed = 1;
nodes = (
(547,501,ls),
(561,501,o),
(567,510,o),
(567,531,cs),
(567,541,ls),
(567,562,o),
(561,571,o),
(547,571,cs),
(33,571,ls),
(19,571,o),
(13,562,o),
(13,541,cs),
(13,531,ls),
(13,510,o),
(19,501,o),
(33,501,cs)
);
},
{
ref = H;
}
);
};
layerId = "76F17502-367F-435E-B23E-ED9D928E777B";
shapes = (
{
closed = 1;
nodes = (
(567,501,l),
(567,571,l),
(13,571,l),
(13,501,l)
);
},
{
ref = H;
}
);
width = 581;
},
{
background = {
shapes = (
{
closed = 1;
nodes = (
(535,517,ls),
(543,517,o),
(547,521,o),
(547,531,cs),
(547,539,ls),
(547,549,o),
(543,553,o),
(535,553,cs),
(45,553,ls),
(37,553,o),
(33,549,o),
(33,539,cs),
(33,531,ls),
(33,521,o),
(37,517,o),
(45,517,cs)
);
},
{
ref = H;
}
);
};
layerId = "534F5340-05B5-45BC-BA3B-B28DD92592EB";
shapes = (
{
closed = 1;
nodes = (
(547,517,l),
(547,553,l),
(33,553,l),
(33,517,l)
);
},
{
ref = H;
}
);
width = 581;
},
{
background = {
shapes = (
{
closed = 1;
nodes = (
(664,517,ls),
(672,517,o),
(676,521,o),
(676,531,cs),
(676,539,ls),
(676,549,o),
(672,553,o),
(664,553,cs),
(71,553,ls),
(63,553,o),
(59,549,o),
(59,539,cs),
(59,531,ls),
(59,521,o),
(63,517,o),
(71,517,cs)
);
},
{
ref = H;
}
);
};
layerId = "84AA6C20-0662-4373-B7CF-A8F69217EDA9";
shapes = (
{
closed = 1;
nodes = (
(676,517,l),
(676,553,l),
(59,553,l),
(59,517,l)
);
},
{
ref = H;
}
);
width = 733;
},
{
background = {
shapes = (
{
closed = 1;
nodes = (
(588,498,ls),
(609,498,o),
(618,515,o),
(618,553,cs),
(618,568,ls),
(618,606,o),
(609,623,o),
(588,623,cs),
(-6,623,ls),
(-27,623,o),
(-36,606,o),
(-36,568,cs),
(-36,553,ls),
(-36,515,o),
(-27,498,o),
(-6,498,cs)
);
},
{
ref = H;
}
);
};
layerId = "A5A92505-053D-4D0C-ACDC-6F8463E28DE4";
shapes = (
{
closed = 1;
nodes = (
(618,498,l),
(618,623,l),
(-36,623,l),
(-36,498,l)
);
},
{
ref = H;
}
);
width = 581;
},
{
background = {
shapes = (
{
closed = 1;
nodes = (
(715,498,ls),
(736,498,o),
(745,515,o),
(745,553,cs),
(745,568,ls),
(745,606,o),
(736,623,o),
(715,623,cs),
(18,623,ls),
(-3,623,o),
(-12,606,o),
(-12,568,cs),
(-12,553,ls),
(-12,515,o),
(-3,498,o),
(18,498,cs)
);
},
{
ref = H;
}
);
};
layerId = "ACEF5F79-87A6-4D8B-B169-2BFCF1568BF8";
shapes = (
{
closed = 1;
nodes = (
(745,498,l),
(745,623,l),
(-12,623,l),
(-12,498,l)
);
},
{
ref = H;
}
);
width = 733;
},
{
background = {
shapes = (
{
closed = 1;
nodes = (
(829,498,ls),
(850,498,o),
(859,515,o),
(859,553,cs),
(859,568,ls),
(859,606,o),
(850,623,o),
(829,623,cs),
(29,623,ls),
(8,623,o),
(-1,606,o),
(-1,568,cs),
(-1,553,ls),
(-1,515,o),
(8,498,o),
(29,498,cs)
);
},
{
ref = H;
}
);
};
layerId = "2EA36C28-4342-4323-91EA-7DB25AD3237F";
shapes = (
{
closed = 1;
nodes = (
(859,498,l),
(859,623,l),
(-1,623,l),
(-1,498,l)
);
},
{
ref = H;
}
);
width = 858;
},
{
background = {
shapes = (
{
closed = 1;
nodes = (
(789,501,ls),
(803,501,o),
(809,510,o),
(809,531,cs),
(809,541,ls),
(809,562,o),
(803,571,o),
(789,571,cs),
(69,571,ls),
(55,571,o),
(49,562,o),
(49,541,cs),
(49,531,ls),
(49,510,o),
(55,501,o),
(69,501,cs)
);
},
{
ref = H;
}
);
};
layerId = "8ED31224-68B7-412A-B4C3-E53F784CF4E5";
shapes = (
{
closed = 1;
nodes = (
(809,501,l),
(809,571,l),
(49,571,l),
(49,501,l)
);
},
{
ref = H;
}
);
width = 858;
},
{
background = {
shapes = (
{
closed = 1;
nodes = (
(778,517,ls),
(786,517,o),
(790,521,o),
(790,531,cs),
(790,539,ls),
(790,549,o),
(786,553,o),
(778,553,cs),
(82,553,ls),
(74,553,o),
(70,549,o),
(70,539,cs),
(70,531,ls),
(70,521,o),
(74,517,o),
(82,517,cs)
);
},
{
ref = H;
}
);
};
layerId = "79DB91E0-15EF-4446-816D-FE9384315D55";
shapes = (
{
closed = 1;
nodes = (
(790,517,l),
(790,553,l),
(70,553,l),
(70,517,l)
);
},
{
ref = H;
}
);
width = 858;
}
);
unicode = 294;
userData = {
RMXScaler = {
source = Hbar;
};
};
},
{
glyphname = I;
kernLeft = H;
kernRight = H;
layers = (
{
anchors = (
{
name = bottom;
pos = (141,0);
},
{
name = ogonek;
pos = (214,0);
},
{
name = top;
pos = (142,700);
}
);
background = {
anchors = (
{
name = bottom;
pos = (141,0);
},
{
name = ogonek;
pos = (214,0);
},
{
name = top;
pos = (142,700);
}
);
shapes = (
{
closed = 1;
nodes = (
(146,-2,ls),
(176,-2,o),
(187,6,o),
(187,20,cs),
(187,680,ls),
(187,694,o),
(176,702,o),
(146,702,cs),
(138,702,ls),
(108,702,o),
(97,694,o),
(97,680,cs),
(97,20,ls),
(97,6,o),
(108,-2,o),
(138,-2,cs)
);
}
);
};
layerId = UUID0;
shapes = (
{
closed = 1;
nodes = (
(187,0,l),
(187,700,l),
(97,700,l),
(97,0,l)
);
}
);
width = 283;
},
{
anchors = (
{
name = bottom;
pos = (128,0);
},
{
name = ogonek;
pos = (195,0);
},
{
name = top;
pos = (128,700);
}
);
background = {
anchors = (
{
name = bottom;
pos = (128,0);
},
{
name = ogonek;
pos = (195,0);
},
{
name = top;
pos = (128,700);
}
);
shapes = (
{
closed = 1;
nodes = (
(132,-2,ls),
(162,-2,o),
(173,6,o),
(173,20,cs),
(173,680,ls),
(173,694,o),
(162,702,o),
(132,702,cs),
(124,702,ls),
(94,702,o),
(83,694,o),
(83,680,cs),
(83,20,ls),
(83,6,o),
(94,-2,o),
(124,-2,cs)
);
}
);
};
layerId = "76F17502-367F-435E-B23E-ED9D928E777B";
shapes = (
{
closed = 1;
nodes = (
(173,0,l),
(173,700,l),
(83,700,l),
(83,0,l)
);
}
);
width = 255;
},
{
anchors = (
{
name = bottom;
pos = (128,0);
},
{
name = ogonek;
pos = (203,0);
},
{
name = top;
pos = (128,700);
}
);
background = {
anchors = (
{
name = bottom;
pos = (128,0);
},
{
name = ogonek;
pos = (203,0);
},
{
name = top;
pos = (128,700);
}
);
shapes = (
{
closed = 1;
nodes = (
(132,-2,ls),
(143,-2,o),
(148,2,o),
(148,10,cs),
(148,690,ls),
(148,698,o),
(143,702,o),
(132,702,cs),
(124,702,ls),
(113,702,o),
(108,698,o),
(108,690,cs),
(108,10,ls),
(108,2,o),
(113,-2,o),
(124,-2,cs)
);
}
);
};
layerId = "534F5340-05B5-45BC-BA3B-B28DD92592EB";
shapes = (
{
closed = 1;
nodes = (
(148,0,l),
(148,700,l),
(108,700,l),
(108,0,l)
);
}
);
width = 255;
},
{
anchors = (
{
name = bottom;
pos = (142,0);
},
{
name = ogonek;
pos = (225,0);
},
{
name = top;
pos = (142,700);
}
);
background = {
anchors = (
{
name = bottom;
pos = (142,0);
},
{
name = ogonek;
pos = (225,0);
},
{
name = top;
pos = (142,700);
}
);
shapes = (
{
closed = 1;
nodes = (
(146,-2,ls),
(157,-2,o),
(162,2,o),
(162,10,cs),
(162,690,ls),
(162,698,o),
(157,702,o),
(146,702,cs),
(138,702,ls),
(127,702,o),
(122,698,o),
(122,690,cs),
(122,10,ls),
(122,2,o),
(127,-2,o),
(138,-2,cs)
);
}
);
};
layerId = "84AA6C20-0662-4373-B7CF-A8F69217EDA9";
shapes = (
{
closed = 1;
nodes = (
(162,0,l),
(162,700,l),
(122,700,l),
(122,0,l)
);
}
);
width = 283;
},
{
anchors = (
{
name = bottom;
pos = (128,0);
},
{
name = ogonek;
pos = (229,0);
},
{
name = top;
pos = (128,700);
}
);
background = {
anchors = (
{
name = bottom;
pos = (128,0);
},
{
name = ogonek;
pos = (229,0);
},
{
name = top;
pos = (128,700);
}
);
shapes = (
{
closed = 1;
nodes = (
(137,-2,ls),
(193,-2,o),
(217,14,o),
(217,41,cs),
(217,659,ls),
(217,686,o),
(193,702,o),
(137,702,cs),
(118,702,ls),
(62,702,o),
(38,686,o),
(38,659,cs),
(38,41,ls),
(38,14,o),
(62,-2,o),
(118,-2,cs)
);
}
);
};
layerId = "A5A92505-053D-4D0C-ACDC-6F8463E28DE4";
shapes = (
{
closed = 1;
nodes = (
(217,0,l),
(217,700,l),
(38,700,l),
(38,0,l)
);
}
);
width = 255;
},
{
anchors = (
{
name = bottom;
pos = (142,0);
},
{
name = ogonek;
pos = (254,0);
},
{
name = top;
pos = (141,700);
}
);
background = {
anchors = (
{
name = bottom;
pos = (142,0);
},
{
name = ogonek;
pos = (254,0);
},
{
name = top;
pos = (141,700);
}
);
shapes = (
{
closed = 1;
nodes = (
(154,-2,ls),
(210,-2,o),
(234,14,o),
(234,41,cs),
(234,659,ls),
(234,686,o),
(210,702,o),
(154,702,cs),
(129,702,ls),
(73,702,o),
(49,686,o),
(49,659,cs),
(49,41,ls),
(49,14,o),
(73,-2,o),
(129,-2,cs)
);
}
);
};
layerId = "ACEF5F79-87A6-4D8B-B169-2BFCF1568BF8";
shapes = (
{
closed = 1;
nodes = (
(234,0,l),
(234,700,l),
(49,700,l),
(49,0,l)
);
}
);
width = 283;
},
{
anchors = (
{
name = bottom;
pos = (160,0);
},
{
name = ogonek;
pos = (284,0);
},
{
name = top;
pos = (160,700);
}
);
background = {
anchors = (
{
name = bottom;
pos = (160,0);
},
{
name = ogonek;
pos = (284,0);
},
{
name = top;
pos = (160,700);
}
);
shapes = (
{
closed = 1;
nodes = (
(176,-2,ls),
(232,-2,o),
(256,14,o),
(256,41,cs),
(256,659,ls),
(256,686,o),
(232,702,o),
(176,702,cs),
(145,702,ls),
(89,702,o),
(65,686,o),
(65,659,cs),
(65,41,ls),
(65,14,o),
(89,-2,o),
(145,-2,cs)
);
}
);
};
layerId = "2EA36C28-4342-4323-91EA-7DB25AD3237F";
shapes = (
{
closed = 1;
nodes = (
(256,0,l),
(256,700,l),
(65,700,l),
(65,0,l)
);
}
);
width = 320;
},
{
anchors = (
{
name = bottom;
pos = (160,0);
},
{
name = ogonek;
pos = (245,0);
},
{
name = top;
pos = (160,700);
}
);
background = {
anchors = (
{
name = bottom;
pos = (160,0);
},
{
name = ogonek;
pos = (245,0);
},
{
name = top;
pos = (160,700);
}
);
shapes = (
{
closed = 1;
nodes = (
(164,-2,ls),
(194,-2,o),
(205,6,o),
(205,20,cs),
(205,680,ls),
(205,694,o),
(194,702,o),
(164,702,cs),
(156,702,ls),
(126,702,o),
(115,694,o),
(115,680,cs),
(115,20,ls),
(115,6,o),
(126,-2,o),
(156,-2,cs)
);
}
);
};
layerId = "8ED31224-68B7-412A-B4C3-E53F784CF4E5";
shapes = (
{
closed = 1;
nodes = (
(205,0,l),
(205,700,l),
(115,700,l),
(115,0,l)
);
}
);
width = 320;
},
{
anchors = (
{
name = bottom;
pos = (160,0);
},
{
name = ogonek;
pos = (255,0);
},
{
name = top;
pos = (160,700);
}
);
background = {
anchors = (
{
name = bottom;
pos = (160,0);
},
{
name = ogonek;
pos = (255,0);
},
{
name = top;
pos = (160,700);
}
);
shapes = (
{
closed = 1;
nodes = (
(164,-2,ls),
(175,-2,o),
(180,2,o),
(180,10,cs),
(180,690,ls),
(180,698,o),
(175,702,o),
(164,702,cs),
(156,702,ls),
(145,702,o),
(140,698,o),
(140,690,cs),
(140,10,ls),
(140,2,o),
(145,-2,o),
(156,-2,cs)
);
}
);
};
layerId = "79DB91E0-15EF-4446-816D-FE9384315D55";
shapes = (
{
closed = 1;
nodes = (
(180,0,l),
(180,700,l),
(140,700,l),
(140,0,l)
);
}
);
width = 320;
}
);
unicode = 73;
userData = {
RMXScaler = {
source = I;
};
};
},
{
glyphname = J;
kernLeft = J;
kernRight = J;
layers = (
{
anchors = (
{
name = bottom;
pos = (201,0);
},
{
name = top;
pos = (271,700);
}
);
background = {
anchors = (
{
name = bottom;
pos = (201,0);
},
{
name = top;
pos = (271,700);
}
);
shapes = (
{
closed = 1;
nodes = (
(249,-6,o),
(316,62,o),
(316,205,cs),
(316,680,ls),
(316,694,o),
(305,702,o),
(275,702,cs),
(267,702,ls),
(237,702,o),
(226,694,o),
(226,680,cs),
(226,195,ls),
(226,105,o),
(189,72,o),
(117,72,cs),
(67,72,o),
(53,81,o),
(37,81,cs),
(21,81,o),
(15,39,o),
(15,29,cs),
(15,2,o),
(78,-6,o),
(116,-6,cs)
);
}
);
};
guides = (
{
angle = 79.992;
pos = (136,690);
}
);
layerId = UUID0;
shapes = (
{
closed = 1;
nodes = (
(226,-6,o),
(316,40,o),
(316,205,cs),
(316,700,l),
(226,700,l),
(226,195,ls),
(226,97,o),
(179,72,o),
(119,72,cs),
(89,72,o),
(58,79,o),
(29,85,c),
(17,15,l),
(40,3,o),
(78,-6,o),
(118,-6,cs)
);
}
);
width = 402;
},
{
anchors = (
{
name = bottom;
pos = (119,0);
},
{
name = top;
pos = (193,700);
}
);
background = {
anchors = (
{
name = bottom;
pos = (119,0);
},
{
name = top;
pos = (193,700);
}
);
shapes = (
{
closed = 1;
nodes = (
(197,-6,o),
(243,63,o),
(243,165,cs),
(243,680,ls),
(243,694,o),
(232,702,o),
(202,702,cs),
(194,702,ls),
(164,702,o),
(153,694,o),
(153,680,cs),
(153,155,ls),
(153,95,o),
(128,69,o),
(80,69,cs),
(54,69,o),
(36,77,o),
(27,77,cs),
(14,77,o),
(4,41,o),
(4,24,cs),
(4,2,o),
(51,-6,o),
(91,-6,cs)
);
}
);
};
guides = (
{
angle = 79.992;
pos = (126,690);
}
);
layerId = "76F17502-367F-435E-B23E-ED9D928E777B";
shapes = (
{
closed = 1;
nodes = (
(164,-6,o),
(243,30,o),
(243,165,cs),
(243,700,l),
(153,700,l),
(153,155,ls),
(153,88,o),
(120,69,o),
(82,69,cs),
(60,69,o),
(37,75,o),
(17,82,c),
(4,13,l),
(24,3,o),
(57,-6,o),
(93,-6,cs)
);
}
);
width = 320;
},
{
anchors = (
{
name = bottom;
pos = (160,0);
},
{
name = top;
pos = (198,700);
}
);
background = {
anchors = (
{
name = bottom;
pos = (160,0);
},
{
name = top;
pos = (198,700);
}
);
shapes = (
{
closed = 1;
nodes = (
(182,-6,o),
(218,44,o),
(218,125,cs),
(218,690,ls),
(218,698,o),
(213,702,o),
(202,702,cs),
(194,702,ls),
(183,702,o),
(178,698,o),
(178,690,cs),
(178,115,ls),
(178,61,o),
(150,29,o),
(104,29,cs),
(59,29,o),
(37,41,o),
(26,41,cs),
(19,41,o),
(15,22,o),
(15,19,cs),
(15,1,o),
(76,-6,o),
(99,-6,cs)
);
}
);
};
guides = (
{
angle = 79.992;
pos = (137,690);
}
);
layerId = "534F5340-05B5-45BC-BA3B-B28DD92592EB";
shapes = (
{
closed = 1;
nodes = (
(161,-6,o),
(218,23,o),
(218,125,cs),
(218,700,l),
(178,700,l),
(178,115,ls),
(178,48,o),
(139,29,o),
(101,29,cs),
(75,29,o),
(45,36,o),
(23,44,c),
(17,10,l),
(38,2,o),
(66,-6,o),
(99,-6,cs)
);
}
);
width = 320;
},
{
anchors = (
{
name = bottom;
pos = (170,0);
},
{
name = top;
pos = (271,700);
}
);
background = {
anchors = (
{
name = bottom;
pos = (170,0);
},
{
name = top;
pos = (271,700);
}
);
shapes = (
{
closed = 1;
nodes = (
(246,-6,o),
(291,56,o),
(291,155,cs),
(291,690,ls),
(291,698,o),
(286,702,o),
(275,702,cs),
(267,702,ls),
(256,702,o),
(251,698,o),
(251,690,cs),
(251,145,ls),
(251,67,o),
(211,30,o),
(147,30,cs),
(85,30,o),
(54,53,o),
(43,53,cs),
(36,53,o),
(30,33,o),
(30,30,cs),
(30,12,o),
(101,-6,o),
(142,-6,cs)
);
}
);
};
guides = (
{
angle = 79.992;
pos = (152,690);
}
);
layerId = "84AA6C20-0662-4373-B7CF-A8F69217EDA9";
shapes = (
{
closed = 1;
nodes = (
(219,-6,o),
(291,29,o),
(291,155,cs),
(291,700,l),
(251,700,l),
(251,145,ls),
(251,57,o),
(201,30,o),
(147,30,cs),
(111,30,o),
(72,41,o),
(40,54,c),
(34,19,l),
(55,9,o),
(95,-6,o),
(144,-6,cs)
);
}
);
width = 402;
},
{
anchors = (
{
name = bottom;
pos = (160,0);
},
{
name = top;
pos = (198,700);
}
);
background = {
anchors = (
{
name = bottom;
pos = (160,0);
},
{
name = top;
pos = (198,700);
}
);
shapes = (
{
closed = 1;
nodes = (
(236,-8,o),
(289,61,o),
(289,212,cs),
(289,659,ls),
(289,686,o),
(265,702,o),
(209,702,cs),
(190,702,ls),
(134,702,o),
(110,686,o),
(110,659,cs),
(110,202,ls),
(110,162,o),
(97,150,o),
(66,150,cs),
(48,150,o),
(37,155,o),
(23,155,cs),
(3,155,o),
(-11,73,o),
(-11,43,cs),
(-11,14,o),
(62,-8,o),
(112,-8,cs)
);
}
);
};
guides = (
{
angle = 79.992;
pos = (107,690);
}
);
layerId = "A5A92505-053D-4D0C-ACDC-6F8463E28DE4";
shapes = (
{
closed = 1;
nodes = (
(217,-8,o),
(289,39,o),
(289,212,cs),
(289,700,l),
(110,700,l),
(110,202,ls),
(110,162,o),
(96,150,o),
(67,150,cs),
(53,150,o),
(36,153,o),
(14,159,c),
(-11,21,l),
(23,5,o),
(70,-8,o),
(114,-8,cs)
);
}
);
width = 320;
},
{
anchors = (
{
name = bottom;
pos = (196,0);
},
{
name = top;
pos = (265,700);
}
);
background = {
anchors = (
{
name = bottom;
pos = (196,0);
},
{
name = top;
pos = (265,700);
}
);
shapes = (
{
closed = 1;
nodes = (
(284,-8,o),
(358,68,o),
(358,246,cs),
(358,659,ls),
(358,686,o),
(334,702,o),
(278,702,cs),
(253,702,ls),
(197,702,o),
(173,686,o),
(173,659,cs),
(173,236,ls),
(173,173,o),
(155,152,o),
(102,152,cs),
(79,152,o),
(58,160,o),
(44,160,cs),
(13,160,o),
(0,66,o),
(0,42,cs),
(0,15,o),
(58,-8,o),
(139,-8,cs)
);
}
);
};
guides = (
{
angle = 79.992;
pos = (120,690);
}
);
layerId = "ACEF5F79-87A6-4D8B-B169-2BFCF1568BF8";
shapes = (
{
closed = 1;
nodes = (
(257,-8,o),
(358,42,o),
(358,246,cs),
(358,700,l),
(173,700,l),
(173,236,ls),
(173,173,o),
(153,152,o),
(106,152,cs),
(84,152,o),
(59,157,o),
(28,165,c),
(2,22,l),
(30,8,o),
(77,-8,o),
(143,-8,cs)
);
}
);
width = 402;
},
{
anchors = (
{
name = bottom;
pos = (240,0);
},
{
name = top;
pos = (322,700);
}
);
background = {
anchors = (
{
name = bottom;
pos = (240,0);
},
{
name = top;
pos = (322,700);
}
);
shapes = (
{
closed = 1;
nodes = (
(334,-8,o),
(415,65,o),
(415,235,cs),
(415,659,ls),
(415,686,o),
(391,702,o),
(335,702,cs),
(304,702,ls),
(248,702,o),
(224,686,o),
(224,659,cs),
(224,235,ls),
(224,173,o),
(205,152,o),
(149,152,cs),
(110,152,o),
(70,170,o),
(56,170,cs),
(30,170,o),
(5,92,o),
(5,64,cs),
(5,29,o),
(77,-8,o),
(176,-8,cs)
);
}
);
};
guides = (
{
angle = 79.992;
pos = (129,690);
}
);
layerId = "2EA36C28-4342-4323-91EA-7DB25AD3237F";
shapes = (
{
closed = 1;
nodes = (
(318,-9,o),
(415,55,o),
(415,235,cs),
(415,700,l),
(224,700,l),
(224,235,ls),
(224,172,o),
(201,152,o),
(151,152,cs),
(117,152,o),
(77,165,o),
(40,179,c),
(14,30,l),
(66,6,o),
(119,-9,o),
(185,-9,cs)
);
}
);
width = 480;
},
{
anchors = (
{
name = bottom;
pos = (240,0);
},
{
name = top;
pos = (325,700);
}
);
background = {
anchors = (
{
name = bottom;
pos = (240,0);
},
{
name = top;
pos = (325,700);
}
);
shapes = (
{
closed = 1;
nodes = (
(300,-6,o),
(370,62,o),
(370,195,cs),
(370,680,ls),
(370,694,o),
(359,702,o),
(329,702,cs),
(321,702,ls),
(291,702,o),
(280,694,o),
(280,680,cs),
(280,195,ls),
(280,108,o),
(245,72,o),
(161,72,cs),
(93,72,o),
(69,91,o),
(52,91,cs),
(36,91,o),
(25,49,o),
(25,39,cs),
(25,12,o),
(112,-6,o),
(161,-6,cs)
);
}
);
};
guides = (
{
angle = 79.992;
pos = (147,690);
}
);
layerId = "8ED31224-68B7-412A-B4C3-E53F784CF4E5";
shapes = (
{
closed = 1;
nodes = (
(272,-6,o),
(370,39,o),
(370,195,cs),
(370,700,l),
(280,700,l),
(280,195,ls),
(280,100,o),
(236,72,o),
(165,72,cs),
(115,72,o),
(82,83,o),
(43,96,c),
(29,23,l),
(59,7,o),
(108,-6,o),
(164,-6,cs)
);
}
);
width = 480;
},
{
anchors = (
{
name = bottom;
pos = (190,0);
},
{
name = top;
pos = (330,700);
}
);
background = {
anchors = (
{
name = bottom;
pos = (190,0);
},
{
name = top;
pos = (330,700);
}
);
shapes = (
{
closed = 1;
nodes = (
(289,-6,o),
(350,55,o),
(350,175,cs),
(350,690,ls),
(350,698,o),
(345,702,o),
(334,702,cs),
(326,702,ls),
(315,702,o),
(310,698,o),
(310,690,cs),
(310,175,ls),
(310,73,o),
(262,31,o),
(169,31,cs),
(94,31,o),
(58,63,o),
(45,63,cs),
(38,63,o),
(30,43,o),
(30,40,cs),
(30,22,o),
(105,-6,o),
(169,-6,cs)
);
}
);
};
guides = (
{
angle = 79.992;
pos = (166,790);
}
);
layerId = "79DB91E0-15EF-4446-816D-FE9384315D55";
shapes = (
{
closed = 1;
nodes = (
(270,-6,o),
(350,37,o),
(350,175,cs),
(350,700,l),
(310,700,l),
(310,175,ls),
(310,68,o),
(256,31,o),
(172,31,cs),
(122,31,o),
(79,46,o),
(39,67,c),
(32,30,l),
(62,13,o),
(115,-6,o),
(171,-6,cs)
);
}
);
width = 480;
}
);
unicode = 74;
userData = {
RMXScaler = {
source = J;
};
};
},
{
glyphname = K;
kernLeft = H;
kernRight = K;
layers = (
{
anchors = (
{
name = bottom;
pos = (318,0);
},
{
name = top;
pos = (318,700);
}
);
background = {
anchors = (
{
name = bottom;
pos = (318,0);
},
{
name = top;
pos = (318,700);
}
);
shapes = (
{
closed = 1;
nodes = (
(146,-2,ls),
(176,-2,o),
(187,6,o),
(187,20,cs),
(187,323,l),
(191,323,l),
(476,14,ls),
(486,4,o),
(501,-2,o),
(530,-2,cs),
(542,-2,ls),
(573,-2,o),
(586,1,o),
(586,12,cs),
(586,16,o),
(584,20,o),
(577,28,cs),
(250,382,l),
(250,326,l),
(520,662,ls),
(532,677,o),
(532,682,o),
(532,687,cs),
(532,697,o),
(521,702,o),
(499,702,cs),
(489,702,ls),
(455,702,o),
(444,699,o),
(430,682,cs),
(191,384,l),
(187,384,l),
(187,680,ls),
(187,694,o),
(176,702,o),
(146,702,cs),
(138,702,ls),
(108,702,o),
(97,694,o),
(97,680,cs),
(97,20,ls),
(97,6,o),
(108,-2,o),
(138,-2,cs)
);
}
);
};
layerId = UUID0;
shapes = (
{
closed = 1;
nodes = (
(187,0,l),
(187,323,l),
(191,323,l),
(484,0,l),
(598,0,l),
(250,382,l),
(250,326,l),
(546,700,l),
(439,700,l),
(191,384,l),
(187,384,l),
(187,700,l),
(97,700,l),
(97,0,l)
);
}
);
width = 576;
},
{
anchors = (
{
name = bottom;
pos = (269,0);
},
{
name = top;
pos = (269,700);
}
);
background = {
anchors = (
{
name = bottom;
pos = (269,0);
},
{
name = top;
pos = (269,700);
}
);
shapes = (
{
closed = 1;
nodes = (
(131,-2,ls),
(161,-2,o),
(172,6,o),
(172,20,cs),
(172,327,l),
(176,327,l),
(384,14,ls),
(394,-2,o),
(406,-2,o),
(422,-2,cs),
(441,-2,ls),
(468,-2,o),
(480,1,o),
(480,11,cs),
(480,16,o),
(479,20,o),
(474,28,cs),
(234,388,l),
(234,336,l),
(444,661,ls),
(452,673,o),
(456,683,o),
(456,689,cs),
(456,698,o),
(447,702,o),
(422,702,cs),
(414,702,ls),
(382,702,o),
(374,698,o),
(366,685,cs),
(176,388,l),
(172,388,l),
(172,680,ls),
(172,694,o),
(161,702,o),
(131,702,cs),
(123,702,ls),
(93,702,o),
(82,694,o),
(82,680,cs),
(82,20,ls),
(82,6,o),
(93,-2,o),
(123,-2,cs)
);
}
);
};
layerId = "76F17502-367F-435E-B23E-ED9D928E777B";
shapes = (
{
closed = 1;
nodes = (
(172,0,l),
(172,327,l),
(176,327,l),
(393,0,l),
(493,0,l),
(234,388,l),
(234,336,l),
(469,700,l),
(376,700,l),
(176,388,l),
(172,388,l),
(172,700,l),
(82,700,l),
(82,0,l)
);
}
);
width = 490;
},
{
anchors = (
{
name = bottom;
pos = (259,0);
},
{
name = top;
pos = (259,700);
}
);
background = {
anchors = (
{
name = bottom;
pos = (259,0);
},
{
name = top;
pos = (259,700);
}
);
shapes = (
{
closed = 1;
nodes = (
(132,-2,ls),
(143,-2,o),
(148,2,o),
(148,10,cs),
(148,337,l),
(152,337,l),
(402,8,ls),
(408,0,o),
(412,-2,o),
(424,-2,cs),
(431,-2,ls),
(442,-2,o),
(448,0,o),
(448,6,cs),
(448,12,o),
(442,20,o),
(436,28,cs),
(176,369,l),
(177,340,l),
(430,674,ls),
(437,683,o),
(439,687,o),
(439,692,cs),
(439,699,o),
(432,702,o),
(422,702,cs),
(415,702,ls),
(404,702,o),
(400,698,o),
(393,688,cs),
(152,368,l),
(148,368,l),
(148,690,ls),
(148,698,o),
(143,702,o),
(132,702,cs),
(124,702,ls),
(113,702,o),
(108,698,o),
(108,690,cs),
(108,10,ls),
(108,2,o),
(113,-2,o),
(124,-2,cs)
);
}
);
};
guides = (
{
angle = 36.9112;
orientation = center;
pos = (156,45);
showMeasurement = 1;
},
{
orientation = center;
pos = (59,98);
showMeasurement = 1;
},
{
angle = -45.045;
orientation = center;
pos = (111,632);
showMeasurement = 1;
}
);
layerId = "534F5340-05B5-45BC-BA3B-B28DD92592EB";
shapes = (
{
closed = 1;
nodes = (
(148,0,l),
(148,337,l),
(152,337,l),
(408,0,l),
(457,0,l),
(176,369,l),
(177,340,l),
(450,700,l),
(402,700,l),
(152,368,l),
(148,368,l),
(148,700,l),
(108,700,l),
(108,0,l)
);
}
);
width = 490;
},
{
anchors = (
{
name = bottom;
pos = (308,0);
},
{
name = top;
pos = (308,700);
}
);
background = {
anchors = (
{
name = bottom;
pos = (308,0);
},
{
name = top;
pos = (308,700);
}
);
shapes = (
{
closed = 1;
nodes = (
(146,-2,ls),
(157,-2,o),
(162,2,o),
(162,10,cs),
(162,337,l),
(166,337,l),
(492,8,ls),
(499,1,o),
(504,-2,o),
(516,-2,cs),
(525,-2,ls),
(536,-2,o),
(543,2,o),
(543,8,cs),
(543,14,o),
(535,21,o),
(528,28,cs),
(185,373,l),
(185,335,l),
(524,676,ls),
(530,682,o),
(535,688,o),
(535,693,cs),
(535,700,o),
(526,702,o),
(516,702,cs),
(507,702,ls),
(499,702,o),
(495,700,o),
(486,691,cs),
(166,368,l),
(162,368,l),
(162,690,ls),
(162,698,o),
(157,702,o),
(146,702,cs),
(138,702,ls),
(127,702,o),
(122,698,o),
(122,690,cs),
(122,10,ls),
(122,2,o),
(127,-2,o),
(138,-2,cs)
);
}
);
};
layerId = "84AA6C20-0662-4373-B7CF-A8F69217EDA9";
shapes = (
{
closed = 1;
nodes = (
(162,0,l),
(162,337,l),
(166,337,l),
(500,0,l),
(554,0,l),
(185,373,l),
(185,335,l),
(546,700,l),
(495,700,l),
(166,368,l),
(162,368,l),
(162,700,l),
(122,700,l),
(122,0,l)
);
}
);
width = 576;
},
{
anchors = (
{
name = bottom;
pos = (272,0);
},
{
name = top;
pos = (272,700);
}
);
background = {
anchors = (
{
name = bottom;
pos = (272,0);
},
{
name = top;
pos = (272,700);
}
);
shapes = (
{
closed = 1;
nodes = (
(134,-2,ls),
(190,-2,o),
(214,14,o),
(214,41,cs),
(214,290,l),
(220,290,l),
(323,35,ls),
(336,2,o),
(356,-2,o),
(414,-2,cs),
(434,-2,ls),
(489,-2,o),
(507,4,o),
(507,27,cs),
(507,39,o),
(502,55,o),
(493,77,cs),
(352,416,l),
(352,313,l),
(496,649,ls),
(501,662,o),
(504,671,o),
(504,678,cs),
(504,699,o),
(484,702,o),
(453,702,cs),
(401,702,ls),
(354,702,o),
(335,691,o),
(325,668,cs),
(220,422,l),
(214,422,l),
(214,659,ls),
(214,686,o),
(190,702,o),
(134,702,cs),
(115,702,ls),
(59,702,o),
(35,686,o),
(35,659,cs),
(35,41,ls),
(35,14,o),
(59,-2,o),
(115,-2,cs)
);
}
);
};
layerId = "A5A92505-053D-4D0C-ACDC-6F8463E28DE4";
shapes = (
{
closed = 1;
nodes = (
(214,0,l),
(214,290,l),
(220,290,l),
(332,0,l),
(520,0,l),
(352,416,l),
(352,313,l),
(513,700,l),
(334,700,l),
(220,422,l),
(214,422,l),
(214,700,l),
(35,700,l),
(35,0,l)
);
}
);
width = 490;
},
{
anchors = (
{
name = bottom;
pos = (303,0);
},
{
name = top;
pos = (313,700);
}
);
background = {
anchors = (
{
name = bottom;
pos = (303,0);
},
{
name = top;
pos = (313,700);
}
);
shapes = (
{
closed = 1;
nodes = (
(155,-2,ls),
(211,-2,o),
(235,14,o),
(235,41,cs),
(235,290,l),
(239,290,l),
(371,33,ls),
(384,7,o),
(405,-2,o),
(453,-2,cs),
(511,-2,ls),
(555,-2,o),
(576,4,o),
(576,23,cs),
(576,32,o),
(572,43,o),
(564,57,cs),
(368,416,l),
(368,318,l),
(551,628,ls),
(562,647,o),
(568,662,o),
(568,673,cs),
(568,693,o),
(548,702,o),
(504,702,cs),
(451,702,ls),
(404,702,o),
(387,688,o),
(371,659,cs),
(239,422,l),
(235,422,l),
(235,659,ls),
(235,686,o),
(211,702,o),
(155,702,cs),
(130,702,ls),
(74,702,o),
(50,686,o),
(50,659,cs),
(50,41,ls),
(50,14,o),
(74,-2,o),
(130,-2,cs)
);
}
);
};
layerId = "ACEF5F79-87A6-4D8B-B169-2BFCF1568BF8";
shapes = (
{
closed = 1;
nodes = (
(235,0,l),
(235,290,l),
(239,290,l),
(381,0,l),
(588,0,l),
(368,416,l),
(368,318,l),
(586,700,l),
(387,700,l),
(239,422,l),
(235,422,l),
(235,700,l),
(50,700,l),
(50,0,l)
);
}
);
width = 576;
},
{
anchors = (
{
name = bottom;
pos = (356,0);
},
{
name = top;
pos = (346,700);
}
);
background = {
anchors = (
{
name = bottom;
pos = (356,0);
},
{
name = top;
pos = (346,700);
}
);
shapes = (
{
closed = 1;
nodes = (
(179,-2,ls),
(235,-2,o),
(259,14,o),
(259,41,cs),
(259,290,l),
(263,290,l),
(448,39,ls),
(474,4,o),
(500,-2,o),
(561,-2,cs),
(606,-2,ls),
(654,-2,o),
(680,6,o),
(680,27,cs),
(680,36,o),
(676,48,o),
(664,63,cs),
(383,426,l),
(383,305,l),
(659,628,ls),
(672,643,o),
(682,660,o),
(682,671,cs),
(682,691,o),
(658,702,o),
(612,702,cs),
(553,702,ls),
(494,702,o),
(476,688,o),
(453,659,cs),
(263,422,l),
(259,422,l),
(259,659,ls),
(259,686,o),
(235,702,o),
(179,702,cs),
(148,702,ls),
(92,702,o),
(68,686,o),
(68,659,cs),
(68,41,ls),
(68,14,o),
(92,-2,o),
(148,-2,cs)
);
}
);
};
layerId = "2EA36C28-4342-4323-91EA-7DB25AD3237F";
shapes = (
{
closed = 1;
nodes = (
(259,0,l),
(259,290,l),
(263,290,l),
(462,0,l),
(698,0,l),
(383,426,l),
(383,305,l),
(705,700,l),
(471,700,l),
(263,422,l),
(259,422,l),
(259,700,l),
(68,700,l),
(68,0,l)
);
}
);
width = 670;
},
{
anchors = (
{
name = bottom;
pos = (366,0);
},
{
name = top;
pos = (356,700);
}
);
background = {
anchors = (
{
name = bottom;
pos = (366,0);
},
{
name = top;
pos = (356,700);
}
);
shapes = (
{
closed = 1;
nodes = (
(164,-2,ls),
(194,-2,o),
(205,6,o),
(205,20,cs),
(205,323,l),
(209,323,l),
(563,18,ls),
(583,1,o),
(594,-2,o),
(622,-2,cs),
(640,-2,ls),
(671,-2,o),
(684,1,o),
(684,12,cs),
(684,16,o),
(683,21,o),
(665,36,cs),
(279,368,l),
(279,345,l),
(617,662,ls),
(631,675,o),
(632,682,o),
(632,687,cs),
(632,697,o),
(618,702,o),
(596,702,cs),
(583,702,ls),
(553,702,o),
(543,700,o),
(524,682,cs),
(209,384,l),
(205,384,l),
(205,680,ls),
(205,694,o),
(194,702,o),
(164,702,cs),
(156,702,ls),
(126,702,o),
(115,694,o),
(115,680,cs),
(115,20,ls),
(115,6,o),
(126,-2,o),
(156,-2,cs)
);
}
);
};
layerId = "8ED31224-68B7-412A-B4C3-E53F784CF4E5";
shapes = (
{
closed = 1;
nodes = (
(205,0,l),
(205,323,l),
(209,323,l),
(577,0,l),
(700,0,l),
(279,368,l),
(279,345,l),
(651,700,l),
(536,700,l),
(209,384,l),
(205,384,l),
(205,700,l),
(115,700,l),
(115,0,l)
);
}
);
width = 670;
},
{
anchors = (
{
name = bottom;
pos = (356,0);
},
{
name = top;
pos = (356,700);
}
);
background = {
anchors = (
{
name = bottom;
pos = (356,0);
},
{
name = top;
pos = (356,700);
}
);
shapes = (
{
closed = 1;
nodes = (
(164,-2,ls),
(175,-2,o),
(180,2,o),
(180,10,cs),
(180,337,l),
(184,337,l),
(588,8,ls),
(597,1,o),
(604,-2,o),
(617,-2,cs),
(622,-2,ls),
(634,-2,o),
(641,2,o),
(641,8,cs),
(641,14,o),
(632,22,o),
(624,28,cs),
(202,371,l),
(202,336,l),
(620,676,ls),
(627,681,o),
(633,688,o),
(633,693,cs),
(633,700,o),
(624,702,o),
(613,702,cs),
(606,702,ls),
(597,702,o),
(589,700,o),
(578,691,cs),
(184,368,l),
(180,368,l),
(180,690,ls),
(180,698,o),
(175,702,o),
(164,702,cs),
(156,702,ls),
(145,702,o),
(140,698,o),
(140,690,cs),
(140,10,ls),
(140,2,o),
(145,-2,o),
(156,-2,cs)
);
}
);
};
layerId = "79DB91E0-15EF-4446-816D-FE9384315D55";
shapes = (
{
closed = 1;
nodes = (
(180,0,l),
(180,337,l),
(184,337,l),
(598,0,l),
(656,0,l),
(202,371,l),
(202,336,l),
(647,700,l),
(589,700,l),
(184,368,l),
(180,368,l),
(180,700,l),
(140,700,l),
(140,0,l)
);
}
);
width = 670;
}
);
unicode = 75;
userData = {
RMXScaler = {
source = K;
};
};
},
{
glyphname = L;
kernLeft = H;
kernRight = L;
layers = (
{
anchors = (
{
name = bottom;
pos = (293,0);
},
{
name = center;
pos = (381,335);
},
{
name = top;
pos = (142,700);
},
{
name = topright;
pos = (277,700);
}
);
background = {
anchors = (
{
name = bottom;
pos = (293,0);
},
{
name = center;
pos = (381,335);
},
{
name = top;
pos = (142,700);
},
{
name = topright;
pos = (277,700);
}
);
shapes = (
{
closed = 1;
nodes = (
(461,0,ls),
(475,0,o),
(481,9,o),
(481,30,cs),
(481,46,ls),
(481,67,o),
(475,76,o),
(461,76,cs),
(187,76,l),
(187,680,ls),
(187,694,o),
(176,702,o),
(146,702,cs),
(138,702,ls),
(108,702,o),
(97,694,o),
(97,680,cs),
(97,30,ls),
(97,9,o),
(106,0,o),
(128,0,cs)
);
}
);
};
layerId = UUID0;
shapes = (
{
closed = 1;
nodes = (
(481,0,l),
(481,76,l),
(187,76,l),
(187,700,l),
(97,700,l),
(97,0,l)
);
}
);
width = 484;
},
{
anchors = (
{
name = bottom;
pos = (230,0);
},
{
name = center;
pos = (320,335);
},
{
name = top;
pos = (128,700);
},
{
name = topright;
pos = (242,700);
}
);
background = {
anchors = (
{
name = bottom;
pos = (230,0);
},
{
name = center;
pos = (320,335);
},
{
name = top;
pos = (128,700);
},
{
name = topright;
pos = (242,700);
}
);
shapes = (
{
closed = 1;
nodes = (
(359,0,ls),
(373,0,o),
(379,9,o),
(379,30,cs),
(379,46,ls),
(379,67,o),
(373,76,o),
(359,76,cs),
(172,76,l),
(172,680,ls),
(172,694,o),
(161,702,o),
(131,702,cs),
(123,702,ls),
(93,702,o),
(82,694,o),
(82,680,cs),
(82,30,ls),
(82,9,o),
(91,0,o),
(113,0,cs)
);
}
);
};
layerId = "76F17502-367F-435E-B23E-ED9D928E777B";
shapes = (
{
closed = 1;
nodes = (
(379,0,l),
(379,76,l),
(172,76,l),
(172,700,l),
(82,700,l),
(82,0,l)
);
}
);
width = 387;
},
{
anchors = (
{
name = bottom;
pos = (248,0);
},
{
name = center;
pos = (320,335);
},
{
name = top;
pos = (129,700);
},
{
name = topright;
pos = (248,700);
}
);
background = {
anchors = (
{
name = bottom;
pos = (248,0);
},
{
name = center;
pos = (320,335);
},
{
name = top;
pos = (129,700);
},
{
name = topright;
pos = (248,700);
}
);
shapes = (
{
closed = 1;
nodes = (
(365,0,ls),
(373,0,o),
(377,4,o),
(377,14,cs),
(377,22,ls),
(377,32,o),
(373,36,o),
(365,36,cs),
(148,36,l),
(148,690,ls),
(148,698,o),
(143,702,o),
(132,702,cs),
(124,702,ls),
(113,702,o),
(108,698,o),
(108,690,cs),
(108,14,ls),
(108,4,o),
(113,0,o),
(124,0,cs)
);
}
);
};
layerId = "534F5340-05B5-45BC-BA3B-B28DD92592EB";
shapes = (
{
closed = 1;
nodes = (
(377,0,l),
(377,36,l),
(148,36,l),
(148,700,l),
(108,700,l),
(108,0,l)
);
}
);
width = 387;
},
{
anchors = (
{
name = bottom;
pos = (308,0);
},
{
name = center;
pos = (382,335);
},
{
name = top;
pos = (142,700);
},
{
name = topright;
pos = (282,700);
}
);
background = {
anchors = (
{
name = bottom;
pos = (308,0);
},
{
name = center;
pos = (382,335);
},
{
name = top;
pos = (142,700);
},
{
name = topright;
pos = (282,700);
}
);
shapes = (
{
closed = 1;
nodes = (
(469,0,ls),
(477,0,o),
(481,4,o),
(481,14,cs),
(481,22,ls),
(481,32,o),
(477,36,o),
(469,36,cs),
(162,36,l),
(162,690,ls),
(162,698,o),
(157,702,o),
(146,702,cs),
(138,702,ls),
(127,702,o),
(122,698,o),
(122,690,cs),
(122,14,ls),
(122,4,o),
(127,0,o),
(138,0,cs)
);
}
);
};
layerId = "84AA6C20-0662-4373-B7CF-A8F69217EDA9";
shapes = (
{
closed = 1;
nodes = (
(481,0,l),
(481,36,l),
(162,36,l),
(162,700,l),
(122,700,l),
(122,0,l)
);
}
);
width = 484;
},
{
anchors = (
{
name = bottom;
pos = (210,0);
},
{
name = center;
pos = (321,335);
},
{
name = top;
pos = (130,700);
},
{
name = topright;
pos = (250,700);
}
);
background = {
anchors = (
{
name = bottom;
pos = (210,0);
},
{
name = center;
pos = (321,335);
},
{
name = top;
pos = (130,700);
},
{
name = topright;
pos = (250,700);
}
);
shapes = (
{
closed = 1;
nodes = (
(333,0,ls),
(361,0,o),
(373,18,o),
(373,60,cs),
(373,111,ls),
(373,153,o),
(361,171,o),
(333,171,cs),
(214,171,l),
(214,659,ls),
(214,686,o),
(190,702,o),
(134,702,cs),
(115,702,ls),
(59,702,o),
(35,686,o),
(35,659,cs),
(35,40,ls),
(35,12,o),
(53,0,o),
(95,0,cs)
);
}
);
};
layerId = "A5A92505-053D-4D0C-ACDC-6F8463E28DE4";
shapes = (
{
closed = 1;
nodes = (
(373,0,l),
(373,171,l),
(214,171,l),
(214,700,l),
(35,700,l),
(35,0,l)
);
}
);
width = 387;
},
{
anchors = (
{
name = bottom;
pos = (266,0);
},
{
name = center;
pos = (384,335);
},
{
name = top;
pos = (146,700);
},
{
name = topright;
pos = (285,700);
}
);
background = {
anchors = (
{
name = bottom;
pos = (266,0);
},
{
name = center;
pos = (384,335);
},
{
name = top;
pos = (146,700);
},
{
name = topright;
pos = (285,700);
}
);
shapes = (
{
closed = 1;
nodes = (
(425,0,ls),
(453,0,o),
(465,18,o),
(465,60,cs),
(465,111,ls),
(465,153,o),
(453,171,o),
(425,171,cs),
(235,171,l),
(235,659,ls),
(235,686,o),
(211,702,o),
(155,702,cs),
(130,702,ls),
(74,702,o),
(50,686,o),
(50,659,cs),
(50,40,ls),
(50,12,o),
(68,0,o),
(110,0,cs)
);
}
);
};
layerId = "ACEF5F79-87A6-4D8B-B169-2BFCF1568BF8";
shapes = (
{
closed = 1;
nodes = (
(465,0,l),
(465,171,l),
(235,171,l),
(235,700,l),
(50,700,l),
(50,0,l)
);
}
);
width = 484;
},
{
anchors = (
{
name = bottom;
pos = (325,0);
},
{
name = center;
pos = (447,335);
},
{
name = top;
pos = (163,700);
},
{
name = topright;
pos = (323,700);
}
);
background = {
anchors = (
{
name = bottom;
pos = (325,0);
},
{
name = center;
pos = (447,335);
},
{
name = top;
pos = (163,700);
},
{
name = topright;
pos = (323,700);
}
);
shapes = (
{
closed = 1;
nodes = (
(530,0,ls),
(558,0,o),
(570,18,o),
(570,60,cs),
(570,111,ls),
(570,153,o),
(558,171,o),
(530,171,cs),
(259,171,l),
(259,659,ls),
(259,686,o),
(235,702,o),
(179,702,cs),
(148,702,ls),
(92,702,o),
(68,686,o),
(68,659,cs),
(68,40,ls),
(68,12,o),
(86,0,o),
(128,0,cs)
);
}
);
};
layerId = "2EA36C28-4342-4323-91EA-7DB25AD3237F";
shapes = (
{
closed = 1;
nodes = (
(570,0,l),
(570,171,l),
(259,171,l),
(259,700,l),
(68,700,l),
(68,0,l)
);
}
);
width = 580;
},
{
anchors = (
{
name = bottom;
pos = (351,0);
},
{
name = center;
pos = (449,335);
},
{
name = top;
pos = (160,700);
},
{
name = topright;
pos = (325,700);
}
);
background = {
anchors = (
{
name = bottom;
pos = (351,0);
},
{
name = center;
pos = (449,335);
},
{
name = top;
pos = (160,700);
},
{
name = topright;
pos = (325,700);
}
);
shapes = (
{
closed = 1;
nodes = (
(550,0,ls),
(564,0,o),
(570,9,o),
(570,30,cs),
(570,46,ls),
(570,67,o),
(564,76,o),
(550,76,cs),
(205,76,l),
(205,680,ls),
(205,694,o),
(194,702,o),
(164,702,cs),
(156,702,ls),
(126,702,o),
(115,694,o),
(115,680,cs),
(115,30,ls),
(115,9,o),
(124,0,o),
(146,0,cs)
);
}
);
};
layerId = "8ED31224-68B7-412A-B4C3-E53F784CF4E5";
shapes = (
{
closed = 1;
nodes = (
(570,0,l),
(570,76,l),
(205,76,l),
(205,700,l),
(115,700,l),
(115,0,l)
);
}
);
width = 580;
},
{
anchors = (
{
name = bottom;
pos = (360,0);
},
{
name = center;
pos = (450,335);
},
{
name = top;
pos = (160,700);
},
{
name = topright;
pos = (320,700);
}
);
background = {
anchors = (
{
name = bottom;
pos = (360,0);
},
{
name = center;
pos = (450,335);
},
{
name = top;
pos = (160,700);
},
{
name = topright;
pos = (320,700);
}
);
shapes = (
{
closed = 1;
nodes = (
(558,0,ls),
(566,0,o),
(570,4,o),
(570,14,cs),
(570,22,ls),
(570,32,o),
(566,36,o),
(558,36,cs),
(180,36,l),
(180,690,ls),
(180,698,o),
(175,702,o),
(164,702,cs),
(156,702,ls),
(145,702,o),
(140,698,o),
(140,690,cs),
(140,14,ls),
(140,4,o),
(145,0,o),
(156,0,cs)
);
}
);
};
layerId = "79DB91E0-15EF-4446-816D-FE9384315D55";
shapes = (
{
closed = 1;
nodes = (
(570,0,l),
(570,36,l),
(180,36,l),
(180,700,l),
(140,700,l),
(140,0,l)
);
}
);
width = 580;
}
);
unicode = 76;
userData = {
RMXScaler = {
source = L;
};
};
},
{
glyphname = LJ;
kernLeft = H;
kernRight = J;
layers = (
{
background = {
shapes = (
{
closed = 1;
nodes = (
(566,-180,o),
(633,-112,o),
(633,31,cs),
(633,680,ls),
(633,694,o),
(622,702,o),
(592,702,cs),
(584,702,ls),
(554,702,o),
(543,694,o),
(543,680,cs),
(543,21,ls),
(543,-69,o),
(506,-102,o),
(434,-102,cs),
(384,-102,o),
(370,-93,o),
(354,-93,cs),
(338,-93,o),
(332,-135,o),
(332,-145,cs),
(332,-172,o),
(395,-180,o),
(433,-180,cs)
);
},
{
closed = 1;
nodes = (
(391,0,ls),
(405,0,o),
(411,9,o),
(411,30,cs),
(411,46,ls),
(411,67,o),
(405,76,o),
(391,76,cs),
(187,76,l),
(187,680,ls),
(187,694,o),
(176,702,o),
(146,702,cs),
(138,702,ls),
(108,702,o),
(97,694,o),
(97,680,cs),
(97,30,ls),
(97,9,o),
(106,0,o),
(128,0,cs)
);
}
);
};
layerId = UUID0;
shapes = (
{
closed = 1;
nodes = (
(411,0,l),
(411,76,l),
(187,76,l),
(187,700,l),
(97,700,l),
(97,0,l)
);
},
{
closed = 1;
nodes = (
(543,-180,o),
(633,-134,o),
(633,31,cs),
(633,700,l),
(543,700,l),
(543,21,ls),
(543,-77,o),
(496,-102,o),
(436,-102,cs),
(406,-102,o),
(375,-95,o),
(346,-89,c),
(334,-159,l),
(357,-171,o),
(395,-180,o),
(435,-180,cs)
);
}
);
width = 725;
},
{
background = {
shapes = (
{
closed = 1;
nodes = (
(457,-180,o),
(503,-111,o),
(503,-9,cs),
(503,680,ls),
(503,694,o),
(492,702,o),
(462,702,cs),
(454,702,ls),
(424,702,o),
(413,694,o),
(413,680,cs),
(413,-19,ls),
(413,-79,o),
(388,-105,o),
(340,-105,cs),
(314,-105,o),
(296,-97,o),
(287,-97,cs),
(274,-97,o),
(264,-133,o),
(264,-150,cs),
(264,-172,o),
(311,-180,o),
(351,-180,cs)
);
},
{
closed = 1;
nodes = (
(289,0,ls),
(303,0,o),
(309,9,o),
(309,30,cs),
(309,46,ls),
(309,67,o),
(303,76,o),
(289,76,cs),
(172,76,l),
(172,680,ls),
(172,694,o),
(161,702,o),
(131,702,cs),
(123,702,ls),
(93,702,o),
(82,694,o),
(82,680,cs),
(82,30,ls),
(82,9,o),
(91,0,o),
(113,0,cs)
);
}
);
};
layerId = "76F17502-367F-435E-B23E-ED9D928E777B";
shapes = (
{
closed = 1;
nodes = (
(309,0,l),
(309,76,l),
(172,76,l),
(172,700,l),
(82,700,l),
(82,0,l)
);
},
{
closed = 1;
nodes = (
(424,-180,o),
(503,-144,o),
(503,-9,cs),
(503,700,l),
(413,700,l),
(413,-19,ls),
(413,-86,o),
(380,-105,o),
(342,-105,cs),
(320,-105,o),
(297,-99,o),
(277,-92,c),
(264,-161,l),
(284,-171,o),
(317,-180,o),
(353,-180,cs)
);
}
);
width = 580;
},
{
background = {
shapes = (
{
closed = 1;
nodes = (
(441,-180,o),
(477,-130,o),
(477,-49,cs),
(477,690,ls),
(477,698,o),
(472,702,o),
(461,702,cs),
(453,702,ls),
(442,702,o),
(437,698,o),
(437,690,cs),
(437,-59,ls),
(437,-113,o),
(409,-145,o),
(363,-145,cs),
(318,-145,o),
(296,-133,o),
(285,-133,cs),
(278,-133,o),
(274,-152,o),
(274,-155,cs),
(274,-173,o),
(335,-180,o),
(358,-180,cs)
);
},
{
closed = 1;
nodes = (
(295,0,ls),
(303,0,o),
(307,4,o),
(307,14,cs),
(307,22,ls),
(307,32,o),
(303,36,o),
(295,36,cs),
(148,36,l),
(148,690,ls),
(148,698,o),
(143,702,o),
(132,702,cs),
(124,702,ls),
(113,702,o),
(108,698,o),
(108,690,cs),
(108,14,ls),
(108,4,o),
(113,0,o),
(124,0,cs)
);
}
);
};
layerId = "534F5340-05B5-45BC-BA3B-B28DD92592EB";
shapes = (
{
closed = 1;
nodes = (
(307,0,l),
(307,36,l),
(148,36,l),
(148,700,l),
(108,700,l),
(108,0,l)
);
},
{
closed = 1;
nodes = (
(420,-180,o),
(477,-151,o),
(477,-49,cs),
(477,700,l),
(437,700,l),
(437,-59,ls),
(437,-126,o),
(398,-145,o),
(360,-145,cs),
(334,-145,o),
(304,-138,o),
(282,-130,c),
(276,-164,l),
(297,-172,o),
(325,-180,o),
(358,-180,cs)
);
}
);
width = 580;
},
{
background = {
shapes = (
{
closed = 1;
nodes = (
(563,-180,o),
(608,-118,o),
(608,-19,cs),
(608,690,ls),
(608,698,o),
(603,702,o),
(592,702,cs),
(584,702,ls),
(573,702,o),
(568,698,o),
(568,690,cs),
(568,-29,ls),
(568,-107,o),
(528,-144,o),
(464,-144,cs),
(402,-144,o),
(371,-121,o),
(360,-121,cs),
(353,-121,o),
(347,-141,o),
(347,-144,cs),
(347,-162,o),
(418,-180,o),
(459,-180,cs)
);
},
{
closed = 1;
nodes = (
(399,0,ls),
(407,0,o),
(411,4,o),
(411,14,cs),
(411,22,ls),
(411,32,o),
(407,36,o),
(399,36,cs),
(162,36,l),
(162,690,ls),
(162,698,o),
(157,702,o),
(146,702,cs),
(138,702,ls),
(127,702,o),
(122,698,o),
(122,690,cs),
(122,14,ls),
(122,4,o),
(127,0,o),
(138,0,cs)
);
}
);
};
layerId = "84AA6C20-0662-4373-B7CF-A8F69217EDA9";
shapes = (
{
closed = 1;
nodes = (
(411,0,l),
(411,36,l),
(162,36,l),
(162,700,l),
(122,700,l),
(122,0,l)
);
},
{
closed = 1;
nodes = (
(536,-180,o),
(608,-145,o),
(608,-19,cs),
(608,700,l),
(568,700,l),
(568,-29,ls),
(568,-117,o),
(518,-144,o),
(464,-144,cs),
(428,-144,o),
(389,-133,o),
(357,-120,c),
(351,-155,l),
(372,-165,o),
(412,-180,o),
(461,-180,cs)
);
}
);
width = 725;
},
{
background = {
shapes = (
{
closed = 1;
nodes = (
(497,-180,o),
(550,-111,o),
(550,40,cs),
(550,659,ls),
(550,686,o),
(526,702,o),
(470,702,cs),
(451,702,ls),
(395,702,o),
(371,686,o),
(371,659,cs),
(371,30,ls),
(371,-10,o),
(355,-22,o),
(324,-22,cs),
(306,-22,o),
(298,-17,o),
(284,-17,cs),
(264,-17,o),
(250,-99,o),
(250,-129,cs),
(250,-158,o),
(323,-180,o),
(373,-180,cs)
);
},
{
closed = 1;
nodes = (
(273,0,ls),
(301,0,o),
(313,18,o),
(313,60,cs),
(313,111,ls),
(313,153,o),
(301,171,o),
(273,171,cs),
(214,171,l),
(214,659,ls),
(214,686,o),
(190,702,o),
(134,702,cs),
(115,702,ls),
(59,702,o),
(35,686,o),
(35,659,cs),
(35,40,ls),
(35,12,o),
(53,0,o),
(95,0,cs)
);
}
);
};
layerId = "A5A92505-053D-4D0C-ACDC-6F8463E28DE4";
shapes = (
{
closed = 1;
nodes = (
(313,0,l),
(313,171,l),
(214,171,l),
(214,700,l),
(35,700,l),
(35,0,l)
);
},
{
closed = 1;
nodes = (
(478,-180,o),
(550,-133,o),
(550,40,cs),
(550,700,l),
(371,700,l),
(371,30,ls),
(371,-10,o),
(357,-22,o),
(328,-22,cs),
(314,-22,o),
(297,-19,o),
(275,-13,c),
(250,-151,l),
(284,-167,o),
(331,-180,o),
(375,-180,cs)
);
}
);
width = 580;
},
{
background = {
shapes = (
{
closed = 1;
nodes = (
(606,-180,o),
(680,-104,o),
(680,74,cs),
(680,659,ls),
(680,686,o),
(656,702,o),
(600,702,cs),
(575,702,ls),
(519,702,o),
(495,686,o),
(495,659,cs),
(495,64,ls),
(495,1,o),
(477,-20,o),
(424,-20,cs),
(401,-20,o),
(380,-12,o),
(366,-12,cs),
(335,-12,o),
(322,-106,o),
(322,-130,cs),
(322,-157,o),
(380,-180,o),
(461,-180,cs)
);
},
{
closed = 1;
nodes = (
(355,0,ls),
(383,0,o),
(395,18,o),
(395,60,cs),
(395,111,ls),
(395,153,o),
(383,171,o),
(355,171,cs),
(235,171,l),
(235,659,ls),
(235,686,o),
(211,702,o),
(155,702,cs),
(130,702,ls),
(74,702,o),
(50,686,o),
(50,659,cs),
(50,40,ls),
(50,12,o),
(68,0,o),
(110,0,cs)
);
}
);
};
layerId = "ACEF5F79-87A6-4D8B-B169-2BFCF1568BF8";
shapes = (
{
closed = 1;
nodes = (
(395,0,l),
(395,171,l),
(235,171,l),
(235,700,l),
(50,700,l),
(50,0,l)
);
},
{
closed = 1;
nodes = (
(579,-180,o),
(680,-130,o),
(680,74,cs),
(680,700,l),
(495,700,l),
(495,64,ls),
(495,1,o),
(475,-20,o),
(428,-20,cs),
(406,-20,o),
(381,-15,o),
(350,-7,c),
(324,-150,l),
(352,-164,o),
(399,-180,o),
(465,-180,cs)
);
}
);
width = 725;
},
{
annotations = (
{
pos = (512.514,803.883);
text = "Ojo con la colisión";
type = Text;
}
);
background = {
shapes = (
{
closed = 1;
nodes = (
(726,-180,o),
(807,-107,o),
(807,63,cs),
(807,659,ls),
(807,686,o),
(783,702,o),
(727,702,cs),
(696,702,ls),
(640,702,o),
(616,686,o),
(616,659,cs),
(616,63,ls),
(616,1,o),
(597,-20,o),
(541,-20,cs),
(515,-20,o),
(487,-14,o),
(478,-14,cs),
(452,-14,o),
(427,-88,o),
(427,-114,cs),
(427,-146,o),
(486,-180,o),
(568,-180,cs)
);
},
{
closed = 1;
nodes = (
(460,0,ls),
(488,0,o),
(500,18,o),
(500,60,cs),
(500,111,ls),
(500,153,o),
(488,171,o),
(460,171,cs),
(259,171,l),
(259,659,ls),
(259,686,o),
(235,702,o),
(179,702,cs),
(148,702,ls),
(92,702,o),
(68,686,o),
(68,659,cs),
(68,40,ls),
(68,12,o),
(86,0,o),
(128,0,cs)
);
}
);
};
layerId = "2EA36C28-4342-4323-91EA-7DB25AD3237F";
shapes = (
{
closed = 1;
nodes = (
(500,0,l),
(500,171,l),
(259,171,l),
(259,700,l),
(68,700,l),
(68,0,l)
);
},
{
closed = 1;
nodes = (
(710,-180,o),
(807,-117,o),
(807,63,cs),
(807,700,l),
(616,700,l),
(616,63,ls),
(616,0,o),
(593,-20,o),
(543,-20,cs),
(523,-20,o),
(501,-18,o),
(479,-13,c),
(448,-158,l),
(487,-172,o),
(529,-180,o),
(577,-180,cs)
);
}
);
width = 870;
},
{
background = {
shapes = (
{
closed = 1;
nodes = (
(690,-180,o),
(760,-112,o),
(760,21,cs),
(760,680,ls),
(760,694,o),
(749,702,o),
(719,702,cs),
(711,702,ls),
(681,702,o),
(670,694,o),
(670,680,cs),
(670,21,ls),
(670,-66,o),
(635,-102,o),
(551,-102,cs),
(483,-102,o),
(459,-83,o),
(442,-83,cs),
(426,-83,o),
(415,-125,o),
(415,-135,cs),
(415,-162,o),
(502,-180,o),
(551,-180,cs)
);
},
{
closed = 1;
nodes = (
(480,0,ls),
(494,0,o),
(500,9,o),
(500,30,cs),
(500,46,ls),
(500,67,o),
(494,76,o),
(480,76,cs),
(205,76,l),
(205,680,ls),
(205,694,o),
(194,702,o),
(164,702,cs),
(156,702,ls),
(126,702,o),
(115,694,o),
(115,680,cs),
(115,30,ls),
(115,9,o),
(124,0,o),
(146,0,cs)
);
}
);
};
layerId = "8ED31224-68B7-412A-B4C3-E53F784CF4E5";
shapes = (
{
closed = 1;
nodes = (
(500,0,l),
(500,76,l),
(205,76,l),
(205,700,l),
(115,700,l),
(115,0,l)
);
},
{
closed = 1;
nodes = (
(662,-180,o),
(760,-135,o),
(760,21,cs),
(760,700,l),
(670,700,l),
(670,21,ls),
(670,-74,o),
(626,-102,o),
(555,-102,cs),
(505,-102,o),
(472,-91,o),
(433,-78,c),
(419,-151,l),
(449,-167,o),
(498,-180,o),
(554,-180,cs)
);
}
);
width = 870;
},
{
background = {
shapes = (
{
closed = 1;
nodes = (
(674,-180,o),
(735,-119,o),
(735,1,cs),
(735,690,ls),
(735,698,o),
(730,702,o),
(719,702,cs),
(711,702,ls),
(700,702,o),
(695,698,o),
(695,690,cs),
(695,1,ls),
(695,-101,o),
(647,-143,o),
(554,-143,cs),
(479,-143,o),
(443,-111,o),
(430,-111,cs),
(423,-111,o),
(415,-131,o),
(415,-134,cs),
(415,-152,o),
(490,-180,o),
(554,-180,cs)
);
},
{
closed = 1;
nodes = (
(488,0,ls),
(496,0,o),
(500,4,o),
(500,14,cs),
(500,22,ls),
(500,32,o),
(496,36,o),
(488,36,cs),
(180,36,l),
(180,690,ls),
(180,698,o),
(175,702,o),
(164,702,cs),
(156,702,ls),
(145,702,o),
(140,698,o),
(140,690,cs),
(140,14,ls),
(140,4,o),
(145,0,o),
(156,0,cs)
);
}
);
};
layerId = "79DB91E0-15EF-4446-816D-FE9384315D55";
shapes = (
{
closed = 1;
nodes = (
(500,0,l),
(500,36,l),
(180,36,l),
(180,700,l),
(140,700,l),
(140,0,l)
);
},
{
closed = 1;
nodes = (
(655,-180,o),
(735,-137,o),
(735,1,cs),
(735,700,l),
(695,700,l),
(695,1,ls),
(695,-106,o),
(641,-143,o),
(557,-143,cs),
(507,-143,o),
(464,-128,o),
(424,-107,c),
(417,-144,l),
(447,-161,o),
(500,-180,o),
(556,-180,cs)
);
}
);
width = 870;
}
);
metricLeft = L;
unicode = 455;
userData = {
RMXScaler = {
source = LJ;
};
};
},
{
glyphname = Lslash;
kernLeft = H;
kernRight = L;
layers = (
{
background = {
shapes = (
{
closed = 1;
nodes = (
(11,253,o),
(15,254,o),
(26,259,cs),
(306,390,ls),
(323,398,o),
(325,407,o),
(325,423,cs),
(325,438,o),
(321,444,o),
(317,444,cs),
(314,444,o),
(310,443,o),
(299,438,cs),
(19,307,ls),
(2,299,o),
(0,291,o),
(0,274,cs),
(0,259,o),
(4,253,o),
(8,253,cs)
);
},
{
ref = L;
}
);
};
layerId = UUID0;
shapes = (
{
closed = 1;
nodes = (
(325,399,l),
(325,450,l),
(0,298,l),
(0,247,l)
);
},
{
ref = L;
}
);
width = 484;
},
{
background = {
shapes = (
{
closed = 1;
nodes = (
(11,252,o),
(15,253,o),
(26,259,cs),
(266,390,ls),
(283,399,o),
(285,407,o),
(285,423,cs),
(285,438,o),
(281,445,o),
(277,445,cs),
(274,445,o),
(270,444,o),
(259,438,cs),
(19,307,ls),
(2,298,o),
(0,291,o),
(0,274,cs),
(0,259,o),
(4,252,o),
(8,252,cs)
);
},
{
ref = L;
}
);
};
layerId = "76F17502-367F-435E-B23E-ED9D928E777B";
shapes = (
{
closed = 1;
nodes = (
(285,400,l),
(285,452,l),
(0,297,l),
(0,245,l)
);
},
{
ref = L;
}
);
width = 387;
},
{
background = {
shapes = (
{
closed = 1;
nodes = (
(11,256,o),
(13,257,o),
(26,264,cs),
(266,395,ls),
(282,404,o),
(285,409,o),
(285,423,cs),
(285,438,o),
(281,441,o),
(277,441,cs),
(274,441,o),
(272,440,o),
(259,433,cs),
(19,302,ls),
(3,293,o),
(0,288,o),
(0,274,cs),
(0,259,o),
(4,256,o),
(8,256,cs)
);
},
{
ref = L;
}
);
};
layerId = "534F5340-05B5-45BC-BA3B-B28DD92592EB";
shapes = (
{
closed = 1;
nodes = (
(285,405,l),
(285,447,l),
(0,292,l),
(0,250,l)
);
},
{
ref = L;
}
);
width = 387;
},
{
background = {
shapes = (
{
closed = 1;
nodes = (
(11,257,o),
(13,257,o),
(26,263,cs),
(306,396,ls),
(322,404,o),
(325,410,o),
(325,423,cs),
(325,438,o),
(321,440,o),
(317,440,cs),
(314,440,o),
(312,440,o),
(299,434,cs),
(19,301,ls),
(3,293,o),
(0,288,o),
(0,274,cs),
(0,259,o),
(4,257,o),
(8,257,cs)
);
},
{
ref = L;
}
);
};
layerId = "84AA6C20-0662-4373-B7CF-A8F69217EDA9";
shapes = (
{
closed = 1;
nodes = (
(325,405,l),
(325,446,l),
(0,292,l),
(0,251,l)
);
},
{
ref = L;
}
);
width = 484;
},
{
background = {
shapes = (
{
closed = 1;
nodes = (
(16,234,o),
(21,235,o),
(28,239,cs),
(268,370,ls),
(287,381,o),
(289,397,o),
(289,423,cs),
(289,445,o),
(289,463,o),
(276,463,cs),
(273,463,o),
(268,462,o),
(261,458,cs),
(21,327,ls),
(2,316,o),
(0,301,o),
(0,274,cs),
(0,252,o),
(0,234,o),
(13,234,cs)
);
},
{
ref = L;
}
);
};
layerId = "A5A92505-053D-4D0C-ACDC-6F8463E28DE4";
shapes = (
{
closed = 1;
nodes = (
(289,382,l),
(289,474,l),
(0,315,l),
(0,224,l)
);
},
{
ref = L;
}
);
width = 387;
},
{
background = {
shapes = (
{
closed = 1;
nodes = (
(16,234,o),
(21,236,o),
(28,239,cs),
(308,370,ls),
(327,379,o),
(329,397,o),
(329,423,cs),
(329,445,o),
(329,463,o),
(316,463,cs),
(313,463,o),
(308,461,o),
(301,458,cs),
(21,327,ls),
(2,318,o),
(0,301,o),
(0,274,cs),
(0,252,o),
(0,234,o),
(13,234,cs)
);
},
{
ref = L;
}
);
};
layerId = "ACEF5F79-87A6-4D8B-B169-2BFCF1568BF8";
shapes = (
{
closed = 1;
nodes = (
(329,380,l),
(329,471,l),
(0,317,l),
(0,226,l)
);
},
{
ref = L;
}
);
width = 484;
},
{
background = {
shapes = (
{
closed = 1;
nodes = (
(16,234,o),
(21,236,o),
(29,239,cs),
(348,370,ls),
(367,378,o),
(369,397,o),
(369,423,cs),
(369,451,o),
(368,463,o),
(357,463,cs),
(353,463,o),
(348,461,o),
(340,458,cs),
(21,327,ls),
(2,319,o),
(0,301,o),
(0,274,cs),
(0,246,o),
(1,234,o),
(12,234,cs)
);
},
{
ref = L;
}
);
};
layerId = "2EA36C28-4342-4323-91EA-7DB25AD3237F";
shapes = (
{
closed = 1;
nodes = (
(369,379,l),
(369,470,l),
(0,318,l),
(0,227,l)
);
},
{
ref = L;
}
);
width = 580;
},
{
background = {
shapes = (
{
closed = 1;
nodes = (
(11,253,o),
(15,254,o),
(26,259,cs),
(346,390,ls),
(363,397,o),
(365,407,o),
(365,423,cs),
(365,438,o),
(361,444,o),
(357,444,cs),
(354,444,o),
(350,443,o),
(339,438,cs),
(19,307,ls),
(2,300,o),
(0,291,o),
(0,274,cs),
(0,259,o),
(4,253,o),
(8,253,cs)
);
},
{
ref = L;
}
);
};
layerId = "8ED31224-68B7-412A-B4C3-E53F784CF4E5";
shapes = (
{
closed = 1;
nodes = (
(365,398,l),
(365,449,l),
(0,299,l),
(0,248,l)
);
},
{
ref = L;
}
);
width = 580;
},
{
background = {
shapes = (
{
closed = 1;
nodes = (
(11,258,o),
(13,259,o),
(26,264,cs),
(346,397,ls),
(362,404,o),
(365,410,o),
(365,423,cs),
(365,438,o),
(361,439,o),
(357,439,cs),
(354,439,o),
(352,438,o),
(339,433,cs),
(19,300,ls),
(3,293,o),
(0,287,o),
(0,274,cs),
(0,259,o),
(4,258,o),
(8,258,cs)
);
},
{
ref = L;
}
);
};
layerId = "79DB91E0-15EF-4446-816D-FE9384315D55";
shapes = (
{
closed = 1;
nodes = (
(365,405,l),
(365,444,l),
(0,292,l),
(0,253,l)
);
},
{
ref = L;
}
);
width = 580;
}
);
unicode = 321;
userData = {
RMXScaler = {
source = Lslash;
};
};
},
{
glyphname = M;
kernLeft = H;
kernRight = H;
layers = (
{
anchors = (
{
name = bottom;
pos = (422,0);
},
{
name = top;
pos = (422,700);
}
);
background = {
shapes = (
{
closed = 1;
nodes = (
(187,0,l),
(187,507,ls),
(187,526,o),
(187,544,o),
(186,562,c),
(190,563,l),
(198,547,o),
(205,533,o),
(213,518,cs),
(381,195,l),
(466,195,l),
(630,512,ls),
(638,527,o),
(645,541,o),
(653,557,c),
(657,556,l),
(656,538,o),
(656,520,o),
(656,501,cs),
(656,0,l),
(746,0,l),
(746,700,l),
(630,700,l),
(454,352,ls),
(446,336,o),
(430,308,o),
(423,286,c),
(418,307,o),
(406,332,o),
(397,349,cs),
(217,700,l),
(97,700,l),
(97,0,l)
);
}
);
};
layerId = UUID0;
shapes = (
{
closed = 1;
nodes = (
(187,0,l),
(187,517,ls),
(187,536,o),
(187,560,o),
(186,578,c),
(190,579,l),
(197,560,o),
(202,544,o),
(207,528,cs),
(363,0,l),
(484,0,l),
(636,522,ls),
(641,538,o),
(646,554,o),
(653,573,c),
(657,572,l),
(656,554,o),
(656,530,o),
(656,511,cs),
(656,0,l),
(746,0,l),
(746,700,l),
(605,700,l),
(444,151,ls),
(439,133,o),
(430,108,o),
(423,78,c),
(418,107,o),
(411,131,o),
(405,151,cs),
(242,700,l),
(97,700,l),
(97,0,l)
);
}
);
width = 843;
},
{
anchors = (
{
name = bottom;
pos = (335,0);
},
{
name = top;
pos = (335,700);
}
);
background = {
shapes = (
{
closed = 1;
nodes = (
(172,0,l),
(172,458,ls),
(172,482,o),
(170,505,o),
(167,529,c),
(171,531,l),
(180,508,o),
(187,486,o),
(197,462,cs),
(287,239,l),
(382,239,l),
(473,462,ls),
(483,486,o),
(490,508,o),
(499,531,c),
(503,529,l),
(500,505,o),
(498,482,o),
(498,458,cs),
(498,0,l),
(588,0,l),
(588,700,l),
(481,700,l),
(351,371,ls),
(345,355,o),
(338,339,o),
(335,323,c),
(332,339,o),
(325,355,o),
(319,371,cs),
(189,700,l),
(82,700,l),
(82,0,l)
);
}
);
};
layerId = "76F17502-367F-435E-B23E-ED9D928E777B";
shapes = (
{
closed = 1;
nodes = (
(172,0,l),
(172,478,ls),
(172,502,o),
(171,525,o),
(168,549,c),
(173,551,l),
(179,528,o),
(184,497,o),
(188,472,cs),
(270,0,l),
(399,0,l),
(481,472,ls),
(485,497,o),
(491,528,o),
(497,551,c),
(502,549,l),
(499,525,o),
(498,502,o),
(498,478,cs),
(498,0,l),
(588,0,l),
(588,700,l),
(443,700,l),
(348,143,ls),
(345,127,o),
(338,89,o),
(335,65,c),
(332,89,o),
(325,127,o),
(322,143,cs),
(227,700,l),
(82,700,l),
(82,0,l)
);
}
);
width = 670;
},
{
anchors = (
{
name = bottom;
pos = (335,0);
},
{
name = top;
pos = (335,700);
}
);
background = {
shapes = (
{
closed = 1;
nodes = (
(148,0,l),
(148,547,ls),
(148,571,o),
(148,594,o),
(145,618,c),
(149,620,l),
(158,597,o),
(168,573,o),
(177,551,cs),
(318,219,l),
(354,219,l),
(493,551,ls),
(502,573,o),
(511,597,o),
(521,620,c),
(525,618,l),
(522,594,o),
(522,571,o),
(522,547,cs),
(522,0,l),
(562,0,l),
(562,700,l),
(515,700,l),
(352,306,ls),
(345,290,o),
(338,269,o),
(336,258,c),
(333,274,o),
(327,290,o),
(320,306,cs),
(155,700,l),
(108,700,l),
(108,0,l)
);
}
);
};
guides = (
{
angle = 75.5202;
pos = (394,273);
}
);
layerId = "534F5340-05B5-45BC-BA3B-B28DD92592EB";
shapes = (
{
closed = 1;
nodes = (
(148,0,l),
(148,542,ls),
(148,566,o),
(148,589,o),
(145,613,c),
(149,615,l),
(158,592,o),
(163,569,o),
(169,546,cs),
(312,0,l),
(360,0,l),
(501,546,ls),
(507,569,o),
(511,592,o),
(521,615,c),
(525,613,l),
(522,589,o),
(522,566,o),
(522,542,cs),
(522,0,l),
(562,0,l),
(562,700,l),
(504,700,l),
(347,92,ls),
(343,75,o),
(338,55,o),
(336,44,c),
(333,60,o),
(329,75,o),
(325,92,cs),
(166,700,l),
(108,700,l),
(108,0,l)
);
}
);
width = 670;
},
{
anchors = (
{
name = bottom;
pos = (422,0);
},
{
name = top;
pos = (422,700);
}
);
background = {
shapes = (
{
closed = 1;
nodes = (
(162,0,l),
(162,553,ls),
(162,577,o),
(162,600,o),
(160,624,c),
(164,626,l),
(174,608,o),
(181,596,o),
(191,579,cs),
(409,230,l),
(437,230,l),
(651,577,ls),
(659,591,o),
(672,611,o),
(679,626,c),
(683,624,l),
(681,600,o),
(681,577,o),
(681,553,cs),
(681,0,l),
(721,0,l),
(721,700,l),
(683,700,l),
(452,320,ls),
(442,304,o),
(430,283,o),
(423,269,c),
(416,282,o),
(405,302,o),
(394,320,cs),
(160,700,l),
(122,700,l),
(122,0,l)
);
}
);
};
guides = (
{
angle = -69.4548;
pos = (328,290);
}
);
layerId = "84AA6C20-0662-4373-B7CF-A8F69217EDA9";
shapes = (
{
closed = 1;
nodes = (
(162,0,l),
(162,553,ls),
(162,577,o),
(162,600,o),
(160,624,c),
(164,626,l),
(170,608,o),
(175,598,o),
(182,579,cs),
(396,0,l),
(450,0,l),
(660,577,ls),
(666,592,o),
(673,611,o),
(679,626,c),
(683,624,l),
(681,600,o),
(681,577,o),
(681,553,cs),
(681,0,l),
(721,0,l),
(721,700,l),
(665,700,l),
(443,90,ls),
(437,73,o),
(430,53,o),
(423,36,c),
(416,52,o),
(410,71,o),
(403,90,cs),
(177,700,l),
(122,700,l),
(122,0,l)
);
}
);
width = 843;
},
{
anchors = (
{
name = bottom;
pos = (335,0);
},
{
name = top;
pos = (335,700);
}
);
background = {
shapes = (
{
closed = 1;
nodes = (
(209,0,l),
(209,251,ls),
(209,274,o),
(207,305,o),
(204,326,c),
(208,327,l),
(213,311,o),
(219,297,o),
(225,280,cs),
(274,153,l),
(395,153,l),
(445,280,ls),
(451,296,o),
(457,311,o),
(462,327,c),
(466,326,l),
(462,308,o),
(461,276,o),
(461,251,cs),
(461,0,l),
(635,0,l),
(635,700,l),
(440,700,l),
(353,439,ls),
(348,425,o),
(339,400,o),
(335,381,c),
(329,403,o),
(320,427,o),
(316,439,cs),
(228,700,l),
(35,700,l),
(35,0,l)
);
}
);
};
layerId = "A5A92505-053D-4D0C-ACDC-6F8463E28DE4";
shapes = (
{
closed = 1;
nodes = (
(194,0,l),
(194,411,ls),
(194,434,o),
(194,465,o),
(192,486,c),
(198,487,l),
(203,460,o),
(208,420,o),
(210,403,cs),
(257,0,l),
(412,0,l),
(460,403,ls),
(462,419,o),
(467,460,o),
(472,487,c),
(478,486,l),
(475,468,o),
(476,436,o),
(476,411,cs),
(476,0,l),
(635,0,l),
(635,700,l),
(392,700,l),
(345,283,ls),
(343,262,o),
(338,233,o),
(335,188,c),
(330,233,o),
(326,264,o),
(324,283,cs),
(278,700,l),
(35,700,l),
(35,0,l)
);
}
);
width = 670;
},
{
anchors = (
{
name = bottom;
pos = (422,0);
},
{
name = top;
pos = (422,700);
}
);
background = {
shapes = (
{
closed = 1;
nodes = (
(224,0,l),
(224,303,ls),
(224,339,o),
(222,380,o),
(219,402,c),
(223,403,l),
(229,389,o),
(242,367,o),
(250,354,cs),
(366,167,l),
(479,167,l),
(593,354,ls),
(601,367,o),
(614,389,o),
(620,403,c),
(624,402,l),
(621,380,o),
(619,339,o),
(619,303,cs),
(619,0,l),
(793,0,l),
(793,700,l),
(610,700,l),
(451,420,ls),
(442,405,o),
(430,382,o),
(421,364,c),
(414,379,o),
(402,401,o),
(391,419,cs),
(228,700,l),
(50,700,l),
(50,0,l)
);
}
);
};
layerId = "ACEF5F79-87A6-4D8B-B169-2BFCF1568BF8";
shapes = (
{
closed = 1;
nodes = (
(219,0,l),
(219,321,ls),
(219,357,o),
(217,398,o),
(214,440,c),
(218,441,l),
(224,417,o),
(236,365,o),
(245,334,cs),
(339,0,l),
(506,0,l),
(598,334,ls),
(607,365,o),
(619,417,o),
(625,441,c),
(629,440,l),
(626,398,o),
(624,357,o),
(624,321,cs),
(624,0,l),
(793,0,l),
(793,700,l),
(549,700,l),
(443,302,ls),
(438,285,o),
(430,245,o),
(421,204,c),
(414,242,o),
(405,281,o),
(399,301,cs),
(290,700,l),
(50,700,l),
(50,0,l)
);
}
);
width = 843;
},
{
anchors = (
{
name = bottom;
pos = (500,0);
},
{
name = top;
pos = (500,700);
}
);
background = {
anchors = (
{
name = bottom;
pos = (500,0);
},
{
name = top;
pos = (500,700);
}
);
shapes = (
{
closed = 1;
nodes = (
(169,-2,ls),
(225,-2,o),
(249,14,o),
(249,41,cs),
(249,338,ls),
(249,370,o),
(246,411,o),
(241,437,c),
(245,438,l),
(251,423,o),
(265,404,o),
(275,389,cs),
(406,202,ls),
(424,176,o),
(445,167,o),
(484,167,cs),
(525,167,ls),
(566,167,o),
(587,175,o),
(604,202,cs),
(725,389,ls),
(736,405,o),
(750,426,o),
(755,438,c),
(759,437,l),
(754,411,o),
(751,370,o),
(751,338,cs),
(751,41,ls),
(751,14,o),
(775,-2,o),
(831,-2,cs),
(852,-2,ls),
(908,-2,o),
(932,14,o),
(932,41,cs),
(932,659,ls),
(932,686,o),
(908,702,o),
(852,702,cs),
(802,702,ls),
(742,702,o),
(713,692,o),
(692,660,cs),
(535,414,ls),
(523,396,o),
(510,377,o),
(504,361,c),
(498,378,o),
(484,398,o),
(473,414,cs),
(301,661,ls),
(279,692,o),
(252,702,o),
(198,702,cs),
(148,702,ls),
(92,702,o),
(68,686,o),
(68,659,cs),
(68,41,ls),
(68,14,o),
(92,-2,o),
(148,-2,cs)
);
}
);
};
layerId = "2EA36C28-4342-4323-91EA-7DB25AD3237F";
shapes = (
{
closed = 1;
nodes = (
(249,0,l),
(249,338,ls),
(249,370,o),
(246,431,o),
(241,467,c),
(245,468,l),
(251,453,o),
(259,429,o),
(268,399,cs),
(391,0,l),
(621,0,l),
(732,399,ls),
(740,429,o),
(750,456,o),
(755,468,c),
(759,467,l),
(754,431,o),
(751,370,o),
(751,338,cs),
(751,0,l),
(932,0,l),
(932,700,l),
(648,700,l),
(527,264,ls),
(522,245,o),
(509,201,o),
(503,176,c),
(498,201,o),
(486,245,o),
(480,264,cs),
(345,700,l),
(68,700,l),
(68,0,l)
);
}
);
width = 1000;
},
{
anchors = (
{
name = bottom;
pos = (500,0);
},
{
name = top;
pos = (500,700);
}
);
background = {
shapes = (
{
closed = 1;
nodes = (
(205,0,l),
(205,517,ls),
(205,546,o),
(204,564,o),
(203,582,c),
(207,583,l),
(212,571,o),
(225,549,o),
(237,531,cs),
(464,195,l),
(538,195,l),
(762,525,ls),
(773,542,o),
(787,564,o),
(793,577,c),
(797,576,l),
(796,558,o),
(795,540,o),
(795,521,cs),
(795,0,l),
(885,0,l),
(885,700,l),
(782,700,l),
(532,332,ls),
(520,314,o),
(507,293,o),
(502,282,c),
(497,294,o),
(485,314,o),
(475,329,cs),
(225,700,l),
(115,700,l),
(115,0,l)
);
}
);
};
layerId = "8ED31224-68B7-412A-B4C3-E53F784CF4E5";
shapes = (
{
closed = 1;
nodes = (
(205,0,l),
(205,517,ls),
(205,546,o),
(204,564,o),
(203,582,c),
(207,583,l),
(212,571,o),
(229,532,o),
(237,512,cs),
(447,0,l),
(555,0,l),
(762,506,ls),
(770,525,o),
(787,564,o),
(793,577,c),
(797,576,l),
(796,558,o),
(795,540,o),
(795,521,cs),
(795,0,l),
(885,0,l),
(885,700,l),
(758,700,l),
(533,150,ls),
(524,127,o),
(510,95,o),
(502,77,c),
(494,95,o),
(481,127,o),
(473,147,cs),
(247,700,l),
(115,700,l),
(115,0,l)
);
}
);
width = 1000;
},
{
anchors = (
{
name = bottom;
pos = (500,0);
},
{
name = top;
pos = (500,700);
}
);
background = {
shapes = (
{
closed = 1;
nodes = (
(180,0,l),
(180,573,ls),
(180,595,o),
(179,618,o),
(177,640,c),
(181,642,l),
(192,623,o),
(205,604,o),
(218,586,cs),
(484,235,l),
(520,235,l),
(780,584,ls),
(794,603,o),
(807,623,o),
(819,642,c),
(823,640,l),
(821,618,o),
(820,595,o),
(820,573,cs),
(820,0,l),
(860,0,l),
(860,700,l),
(819,700,l),
(532,315,ls),
(522,301,o),
(511,288,o),
(501,274,c),
(491,288,o),
(482,302,o),
(471,316,cs),
(180,700,l),
(140,700,l),
(140,0,l)
);
}
);
};
layerId = "79DB91E0-15EF-4446-816D-FE9384315D55";
shapes = (
{
closed = 1;
nodes = (
(180,0,l),
(180,573,ls),
(180,595,o),
(179,618,o),
(177,640,c),
(181,642,l),
(190,623,o),
(199,606,o),
(208,586,cs),
(475,0,l),
(529,0,l),
(790,584,ls),
(799,605,o),
(809,623,o),
(819,642,c),
(823,640,l),
(821,618,o),
(820,595,o),
(820,573,cs),
(820,0,l),
(860,0,l),
(860,700,l),
(802,700,l),
(524,80,ls),
(517,64,o),
(511,50,o),
(501,31,c),
(491,50,o),
(486,65,o),
(479,81,cs),
(196,700,l),
(140,700,l),
(140,0,l)
);
}
);
width = 1000;
}
);
unicode = 77;
userData = {
RMXScaler = {
source = M;
};
};
},
{
glyphname = N;
kernLeft = H;
kernRight = H;
layers = (
{
anchors = (
{
name = bottom;
pos = (367,0);
},
{
name = top;
pos = (367,700);
}
);
background = {
anchors = (
{
name = bottom;
pos = (367,0);
},
{
name = top;
pos = (367,700);
}
);
shapes = (
{
closed = 1;
nodes = (
(146,-2,ls),
(176,-2,o),
(187,6,o),
(187,20,cs),
(187,489,ls),
(187,518,o),
(187,534,o),
(185,557,c),
(189,558,l),
(199,537,o),
(209,518,o),
(222,498,cs),
(536,12,ls),
(542,3,o),
(552,-2,o),
(571,-2,cs),
(595,-2,ls),
(625,-2,o),
(636,6,o),
(636,20,cs),
(636,680,ls),
(636,694,o),
(625,702,o),
(595,702,cs),
(587,702,ls),
(557,702,o),
(546,694,o),
(546,680,cs),
(546,218,ls),
(546,189,o),
(546,173,o),
(548,150,c),
(544,149,l),
(534,170,o),
(524,189,o),
(511,209,cs),
(205,683,ls),
(196,697,o),
(185,702,o),
(163,702,cs),
(138,702,ls),
(108,702,o),
(97,694,o),
(97,680,cs),
(97,20,ls),
(97,6,o),
(108,-2,o),
(138,-2,cs)
);
}
);
};
layerId = UUID0;
shapes = (
{
closed = 1;
nodes = (
(187,0,l),
(187,489,ls),
(187,518,o),
(187,534,o),
(185,557,c),
(189,558,l),
(199,537,o),
(209,518,o),
(222,498,cs),
(544,0,l),
(636,0,l),
(636,700,l),
(546,700,l),
(546,218,ls),
(546,189,o),
(546,173,o),
(548,150,c),
(544,149,l),
(534,170,o),
(524,189,o),
(511,209,cs),
(194,700,l),
(97,700,l),
(97,0,l)
);
}
);
width = 719;
},
{
anchors = (
{
name = bottom;
pos = (295,0);
},
{
name = top;
pos = (295,700);
}
);
background = {
anchors = (
{
name = bottom;
pos = (295,0);
},
{
name = top;
pos = (295,700);
}
);
shapes = (
{
closed = 1;
nodes = (
(131,-2,ls),
(161,-2,o),
(172,6,o),
(172,20,cs),
(172,455,ls),
(172,477,o),
(170,505,o),
(168,523,c),
(172,524,l),
(178,501,o),
(188,473,o),
(196,456,cs),
(405,16,ls),
(412,2,o),
(422,-2,o),
(443,-2,cs),
(468,-2,ls),
(496,-2,o),
(508,6,o),
(508,20,cs),
(508,680,ls),
(508,694,o),
(497,702,o),
(467,702,cs),
(459,702,ls),
(429,702,o),
(418,694,o),
(418,680,cs),
(418,245,ls),
(418,219,o),
(420,190,o),
(422,177,c),
(418,176,l),
(412,197,o),
(402,226,o),
(393,244,cs),
(185,683,ls),
(178,698,o),
(165,702,o),
(143,702,cs),
(122,702,ls),
(94,702,o),
(82,694,o),
(82,680,cs),
(82,20,ls),
(82,6,o),
(93,-2,o),
(123,-2,cs)
);
}
);
};
layerId = "76F17502-367F-435E-B23E-ED9D928E777B";
shapes = (
{
closed = 1;
nodes = (
(172,0,l),
(172,455,ls),
(172,477,o),
(170,505,o),
(168,523,c),
(172,524,l),
(178,501,o),
(188,473,o),
(196,456,cs),
(413,0,l),
(508,0,l),
(508,700,l),
(418,700,l),
(418,245,ls),
(418,219,o),
(420,190,o),
(422,177,c),
(418,176,l),
(412,197,o),
(401,226,o),
(393,244,cs),
(177,700,l),
(82,700,l),
(82,0,l)
);
}
);
width = 590;
},
{
anchors = (
{
name = bottom;
pos = (295,0);
},
{
name = top;
pos = (295,700);
}
);
background = {
anchors = (
{
name = bottom;
pos = (295,0);
},
{
name = top;
pos = (295,700);
}
);
shapes = (
{
closed = 1;
nodes = (
(132,-2,ls),
(143,-2,o),
(148,2,o),
(148,10,cs),
(148,561,ls),
(148,590,o),
(148,606,o),
(146,629,c),
(150,630,l),
(157,609,o),
(164,592,o),
(174,570,cs),
(426,10,ls),
(431,0,o),
(437,-2,o),
(452,-2,cs),
(466,-2,ls),
(477,-2,o),
(482,2,o),
(482,10,cs),
(482,690,ls),
(482,698,o),
(477,702,o),
(466,702,cs),
(458,702,ls),
(447,702,o),
(442,698,o),
(442,690,cs),
(442,138,ls),
(442,110,o),
(442,94,o),
(444,71,c),
(440,70,l),
(431,96,o),
(426,109,o),
(416,130,cs),
(164,690,ls),
(160,699,o),
(157,702,o),
(133,702,cs),
(124,702,ls),
(113,702,o),
(108,698,o),
(108,690,cs),
(108,10,ls),
(108,2,o),
(113,-2,o),
(124,-2,cs)
);
}
);
};
layerId = "534F5340-05B5-45BC-BA3B-B28DD92592EB";
shapes = (
{
closed = 1;
nodes = (
(148,0,l),
(148,561,ls),
(148,590,o),
(148,606,o),
(146,629,c),
(150,630,l),
(157,609,o),
(164,592,o),
(174,570,cs),
(430,0,l),
(482,0,l),
(482,700,l),
(442,700,l),
(442,138,ls),
(442,110,o),
(442,94,o),
(444,71,c),
(440,70,l),
(431,96,o),
(425,109,o),
(416,130,cs),
(160,700,l),
(108,700,l),
(108,0,l)
);
}
);
width = 590;
},
{
anchors = (
{
name = bottom;
pos = (360,0);
},
{
name = top;
pos = (360,700);
}
);
background = {
anchors = (
{
name = bottom;
pos = (360,0);
},
{
name = top;
pos = (360,700);
}
);
shapes = (
{
closed = 1;
nodes = (
(146,-2,ls),
(157,-2,o),
(162,2,o),
(162,10,cs),
(162,561,ls),
(162,590,o),
(162,606,o),
(160,629,c),
(164,630,l),
(176,604,o),
(188,585,o),
(197,570,cs),
(550,10,ls),
(556,0,o),
(561,-2,o),
(573,-2,cs),
(581,-2,ls),
(592,-2,o),
(597,2,o),
(597,10,cs),
(597,690,ls),
(597,698,o),
(592,702,o),
(581,702,cs),
(573,702,ls),
(562,702,o),
(557,698,o),
(557,690,cs),
(557,138,ls),
(557,110,o),
(557,94,o),
(559,71,c),
(555,70,l),
(543,96,o),
(531,115,o),
(522,130,cs),
(169,690,ls),
(163,700,o),
(158,702,o),
(146,702,cs),
(138,702,ls),
(127,702,o),
(122,698,o),
(122,690,cs),
(122,10,ls),
(122,2,o),
(127,-2,o),
(138,-2,cs)
);
}
);
};
layerId = "84AA6C20-0662-4373-B7CF-A8F69217EDA9";
shapes = (
{
closed = 1;
nodes = (
(162,0,l),
(162,561,ls),
(162,590,o),
(162,606,o),
(160,629,c),
(164,630,l),
(176,604,o),
(188,585,o),
(197,570,cs),
(557,0,l),
(597,0,l),
(597,700,l),
(557,700,l),
(557,138,ls),
(557,110,o),
(557,94,o),
(559,71,c),
(555,70,l),
(543,96,o),
(531,115,o),
(522,130,cs),
(163,700,l),
(122,700,l),
(122,0,l)
);
}
);
width = 719;
},
{
anchors = (
{
name = bottom;
pos = (295,0);
},
{
name = top;
pos = (295,700);
}
);
background = {
anchors = (
{
name = bottom;
pos = (295,0);
},
{
name = top;
pos = (295,700);
}
);
shapes = (
{
closed = 1;
nodes = (
(129,-2,ls),
(185,-2,o),
(209,14,o),
(209,41,cs),
(209,267,ls),
(209,289,o),
(208,310,o),
(205,329,c),
(210,330,l),
(217,311,o),
(222,293,o),
(235,267,cs),
(343,50,ls),
(367,3,o),
(384,-2,o),
(448,-2,cs),
(475,-2,ls),
(531,-2,o),
(555,14,o),
(555,41,cs),
(555,659,ls),
(555,686,o),
(531,702,o),
(475,702,cs),
(461,702,ls),
(405,702,o),
(381,686,o),
(381,659,cs),
(381,413,ls),
(381,392,o),
(382,371,o),
(385,351,c),
(381,350,l),
(374,369,o),
(369,386,o),
(357,413,cs),
(250,649,ls),
(228,697,o),
(210,702,o),
(148,702,cs),
(115,702,ls),
(59,702,o),
(35,686,o),
(35,659,cs),
(35,41,ls),
(35,14,o),
(59,-2,o),
(115,-2,cs)
);
}
);
};
layerId = "A5A92505-053D-4D0C-ACDC-6F8463E28DE4";
shapes = (
{
closed = 1;
nodes = (
(209,0,l),
(209,267,ls),
(209,289,o),
(208,310,o),
(205,329,c),
(210,330,l),
(217,311,o),
(222,292,o),
(235,267,cs),
(368,0,l),
(555,0,l),
(555,700,l),
(381,700,l),
(381,413,ls),
(381,392,o),
(382,371,o),
(385,351,c),
(381,350,l),
(374,369,o),
(369,386,o),
(357,413,cs),
(227,700,l),
(35,700,l),
(35,0,l)
);
}
);
width = 590;
},
{
anchors = (
{
name = bottom;
pos = (360,0);
},
{
name = top;
pos = (360,700);
}
);
background = {
anchors = (
{
name = bottom;
pos = (360,0);
},
{
name = top;
pos = (360,700);
}
);
shapes = (
{
closed = 1;
nodes = (
(144,-2,ls),
(200,-2,o),
(224,14,o),
(224,41,cs),
(224,280,ls),
(224,323,o),
(221,376,o),
(217,403,c),
(221,404,l),
(232,379,o),
(263,329,o),
(294,284,cs),
(471,39,ls),
(495,4,o),
(512,-2,o),
(565,-2,cs),
(589,-2,ls),
(645,-2,o),
(669,14,o),
(669,41,cs),
(669,659,ls),
(669,686,o),
(645,702,o),
(589,702,cs),
(575,702,ls),
(519,702,o),
(495,687,o),
(495,659,cs),
(495,419,ls),
(495,376,o),
(498,323,o),
(502,296,c),
(498,295,l),
(487,321,o),
(455,372,o),
(426,414,cs),
(248,661,ls),
(224,696,o),
(207,702,o),
(154,702,cs),
(130,702,ls),
(74,702,o),
(50,688,o),
(50,660,cs),
(50,41,ls),
(50,14,o),
(74,-2,o),
(130,-2,cs)
);
}
);
};
layerId = "ACEF5F79-87A6-4D8B-B169-2BFCF1568BF8";
shapes = (
{
closed = 1;
nodes = (
(224,0,l),
(224,280,ls),
(224,323,o),
(221,376,o),
(217,403,c),
(221,404,l),
(232,379,o),
(263,326,o),
(294,284,cs),
(499,0,l),
(669,0,l),
(669,700,l),
(495,700,l),
(495,419,ls),
(495,376,o),
(498,323,o),
(502,296,c),
(498,295,l),
(487,321,o),
(455,374,o),
(426,414,cs),
(220,700,l),
(50,700,l),
(50,0,l)
);
}
);
width = 719;
},
{
anchors = (
{
name = bottom;
pos = (425,0);
},
{
name = top;
pos = (425,700);
}
);
background = {
anchors = (
{
name = bottom;
pos = (425,0);
},
{
name = top;
pos = (425,700);
}
);
shapes = (
{
closed = 1;
nodes = (
(172,-2,ls),
(228,-2,o),
(252,14,o),
(252,41,cs),
(252,310,ls),
(252,349,o),
(249,398,o),
(245,423,c),
(249,424,l),
(260,404,o),
(288,366,o),
(320,329,cs),
(568,39,ls),
(597,6,o),
(613,-2,o),
(672,-2,cs),
(702,-2,ls),
(758,-2,o),
(782,14,o),
(782,41,cs),
(782,659,ls),
(782,686,o),
(758,702,o),
(702,702,cs),
(678,702,ls),
(622,702,o),
(598,687,o),
(598,659,cs),
(598,389,ls),
(598,350,o),
(601,301,o),
(605,276,c),
(601,275,l),
(590,296,o),
(559,335,o),
(530,369,cs),
(282,661,ls),
(253,695,o),
(237,702,o),
(178,702,cs),
(148,702,ls),
(92,702,o),
(68,688,o),
(68,660,cs),
(68,41,ls),
(68,14,o),
(92,-2,o),
(148,-2,cs)
);
}
);
};
layerId = "2EA36C28-4342-4323-91EA-7DB25AD3237F";
shapes = (
{
closed = 1;
nodes = (
(252,0,l),
(252,310,ls),
(252,349,o),
(249,398,o),
(245,423,c),
(249,424,l),
(260,404,o),
(288,367,o),
(320,329,cs),
(603,0,l),
(782,0,l),
(782,700,l),
(598,700,l),
(598,389,ls),
(598,350,o),
(601,301,o),
(605,276,c),
(601,275,l),
(590,296,o),
(559,335,o),
(530,369,cs),
(249,700,l),
(68,700,l),
(68,0,l)
);
}
);
width = 850;
},
{
anchors = (
{
name = bottom;
pos = (425,0);
},
{
name = top;
pos = (425,700);
}
);
background = {
anchors = (
{
name = bottom;
pos = (425,0);
},
{
name = top;
pos = (425,700);
}
);
shapes = (
{
closed = 1;
nodes = (
(164,-2,ls),
(194,-2,o),
(205,6,o),
(205,20,cs),
(205,526,ls),
(205,540,o),
(203,560,o),
(201,574,c),
(205,575,l),
(211,562,o),
(222,546,o),
(229,537,cs),
(620,16,ls),
(630,3,o),
(641,-2,o),
(670,-2,cs),
(694,-2,ls),
(724,-2,o),
(735,6,o),
(735,20,cs),
(735,680,ls),
(735,694,o),
(724,702,o),
(694,702,cs),
(686,702,ls),
(656,702,o),
(645,694,o),
(645,680,cs),
(645,174,ls),
(645,156,o),
(645,136,o),
(647,126,c),
(643,125,l),
(636,139,o),
(624,157,o),
(615,169,cs),
(230,683,ls),
(219,697,o),
(206,702,o),
(181,702,cs),
(156,702,ls),
(126,702,o),
(115,694,o),
(115,680,cs),
(115,20,ls),
(115,6,o),
(126,-2,o),
(156,-2,cs)
);
}
);
};
layerId = "8ED31224-68B7-412A-B4C3-E53F784CF4E5";
shapes = (
{
closed = 1;
nodes = (
(205,0,l),
(205,526,ls),
(205,540,o),
(203,560,o),
(201,574,c),
(205,575,l),
(211,562,o),
(222,546,o),
(229,537,cs),
(632,0,l),
(735,0,l),
(735,700,l),
(645,700,l),
(645,174,ls),
(645,156,o),
(645,136,o),
(647,126,c),
(643,125,l),
(636,139,o),
(624,157,o),
(615,169,cs),
(217,700,l),
(115,700,l),
(115,0,l)
);
}
);
width = 850;
},
{
anchors = (
{
name = bottom;
pos = (425,0);
},
{
name = top;
pos = (425,700);
}
);
background = {
anchors = (
{
name = bottom;
pos = (425,0);
},
{
name = top;
pos = (425,700);
}
);
shapes = (
{
closed = 1;
nodes = (
(164,-2,ls),
(175,-2,o),
(180,2,o),
(180,10,cs),
(180,561,ls),
(180,590,o),
(180,606,o),
(178,629,c),
(182,630,l),
(197,610,o),
(210,590,o),
(226,570,cs),
(664,8,ls),
(671,-1,o),
(674,-2,o),
(682,-2,cs),
(694,-2,ls),
(705,-2,o),
(710,2,o),
(710,10,cs),
(710,690,ls),
(710,698,o),
(705,702,o),
(694,702,cs),
(686,702,ls),
(675,702,o),
(670,698,o),
(670,690,cs),
(670,138,ls),
(670,110,o),
(670,94,o),
(672,71,c),
(668,70,l),
(652,89,o),
(636,108,o),
(620,127,cs),
(181,690,ls),
(174,700,o),
(171,702,o),
(162,702,cs),
(156,702,ls),
(145,702,o),
(140,698,o),
(140,690,cs),
(140,10,ls),
(140,2,o),
(145,-2,o),
(156,-2,cs)
);
}
);
};
layerId = "79DB91E0-15EF-4446-816D-FE9384315D55";
shapes = (
{
closed = 1;
nodes = (
(180,0,l),
(180,561,ls),
(180,590,o),
(180,606,o),
(178,629,c),
(182,630,l),
(197,610,o),
(210,590,o),
(226,570,cs),
(670,0,l),
(710,0,l),
(710,700,l),
(670,700,l),
(670,138,ls),
(670,110,o),
(670,94,o),
(672,71,c),
(668,70,l),
(652,89,o),
(635,107,o),
(620,127,cs),
(173,700,l),
(140,700,l),
(140,0,l)
);
}
);
width = 850;
}
);
unicode = 78;
userData = {
RMXScaler = {
source = N;
};
};
},
{
glyphname = Nhookleft;
kernLeft = H;
kernRight = H;
layers = (
{
anchors = (
{
name = bottom;
pos = (367,0);
},
{
name = top;
pos = (367,700);
}
);
background = {
shapes = (
{
closed = 1;
nodes = (
(146,-212,o),
(187,-167,o),
(187,-80,cs),
(187,489,ls),
(187,518,o),
(187,534,o),
(185,557,c),
(189,558,l),
(199,537,o),
(209,518,o),
(222,498,cs),
(536,12,ls),
(542,3,o),
(552,-2,o),
(571,-2,cs),
(595,-2,ls),
(625,-2,o),
(636,6,o),
(636,20,cs),
(636,680,ls),
(636,694,o),
(625,702,o),
(595,702,cs),
(587,702,ls),
(557,702,o),
(546,694,o),
(546,680,cs),
(546,218,ls),
(546,189,o),
(546,173,o),
(548,150,c),
(544,149,l),
(534,170,o),
(524,189,o),
(511,209,cs),
(205,683,ls),
(196,697,o),
(185,702,o),
(163,702,cs),
(138,702,ls),
(108,702,o),
(97,694,o),
(97,680,cs),
(97,-80,ls),
(97,-125,o),
(85,-138,o),
(50,-138,cs),
(20,-138,o),
(9,-128,o),
(0,-128,cs),
(-14,-128,o),
(-16,-169,o),
(-16,-178,cs),
(-16,-199,o),
(33,-212,o),
(63,-212,cs)
);
}
);
};
layerId = UUID0;
shapes = (
{
closed = 1;
nodes = (
(135,-212,o),
(187,-177,o),
(187,-80,cs),
(187,489,ls),
(187,518,o),
(187,534,o),
(185,557,c),
(189,558,l),
(199,537,o),
(209,518,o),
(222,498,cs),
(544,0,l),
(636,0,l),
(636,700,l),
(546,700,l),
(546,218,ls),
(546,189,o),
(546,173,o),
(548,150,c),
(544,149,l),
(534,170,o),
(524,189,o),
(511,209,cs),
(194,700,l),
(97,700,l),
(97,-80,ls),
(97,-125,o),
(87,-138,o),
(55,-138,cs),
(34,-138,o),
(15,-131,o),
(0,-125,c),
(-13,-191,l),
(12,-204,o),
(42,-212,o),
(71,-212,cs)
);
}
);
width = 719;
},
{
anchors = (
{
name = bottom;
pos = (295,0);
},
{
name = top;
pos = (295,700);
}
);
background = {
shapes = (
{
closed = 1;
nodes = (
(102,-212,o),
(172,-193,o),
(172,-90,cs),
(172,455,ls),
(172,477,o),
(170,505,o),
(168,523,c),
(172,524,l),
(178,501,o),
(188,473,o),
(196,456,cs),
(405,16,ls),
(412,2,o),
(422,-2,o),
(443,-2,cs),
(468,-2,ls),
(496,-2,o),
(508,6,o),
(508,20,cs),
(508,680,ls),
(508,694,o),
(497,702,o),
(467,702,cs),
(459,702,ls),
(429,702,o),
(418,694,o),
(418,680,cs),
(418,245,ls),
(418,219,o),
(420,190,o),
(422,177,c),
(418,176,l),
(412,197,o),
(402,226,o),
(393,244,cs),
(185,683,ls),
(178,698,o),
(165,702,o),
(143,702,cs),
(122,702,ls),
(94,702,o),
(82,694,o),
(82,680,cs),
(82,-80,ls),
(82,-127,o),
(74,-140,o),
(45,-140,cs),
(21,-140,o),
(12,-135,o),
(5,-135,cs),
(-9,-135,o),
(-11,-174,o),
(-11,-183,cs),
(-11,-204,o),
(32,-212,o),
(58,-212,cs)
);
}
);
};
layerId = "76F17502-367F-435E-B23E-ED9D928E777B";
shapes = (
{
closed = 1;
nodes = (
(119,-212,o),
(172,-180,o),
(172,-90,cs),
(172,455,ls),
(172,477,o),
(170,505,o),
(168,523,c),
(172,524,l),
(178,501,o),
(188,473,o),
(196,456,cs),
(413,0,l),
(508,0,l),
(508,700,l),
(418,700,l),
(418,245,ls),
(418,219,o),
(420,190,o),
(422,177,c),
(418,176,l),
(412,197,o),
(401,226,o),
(393,244,cs),
(177,700,l),
(82,700,l),
(82,-80,ls),
(82,-127,o),
(77,-140,o),
(49,-140,cs),
(36,-140,o),
(21,-136,o),
(3,-131,c),
(-9,-194,l),
(11,-205,o),
(36,-212,o),
(61,-212,cs)
);
}
);
width = 590;
},
{
anchors = (
{
name = bottom;
pos = (295,0);
},
{
name = top;
pos = (295,700);
}
);
background = {
shapes = (
{
closed = 1;
nodes = (
(118,-212,o),
(148,-176,o),
(148,-90,cs),
(148,561,ls),
(148,590,o),
(148,606,o),
(146,629,c),
(150,630,l),
(157,609,o),
(164,592,o),
(174,570,cs),
(426,10,ls),
(431,0,o),
(437,-2,o),
(452,-2,cs),
(466,-2,ls),
(477,-2,o),
(482,2,o),
(482,10,cs),
(482,690,ls),
(482,698,o),
(477,702,o),
(466,702,cs),
(458,702,ls),
(447,702,o),
(442,698,o),
(442,690,cs),
(442,138,ls),
(442,110,o),
(442,94,o),
(444,71,c),
(440,70,l),
(431,96,o),
(426,109,o),
(416,130,cs),
(164,690,ls),
(160,699,o),
(157,702,o),
(133,702,cs),
(124,702,ls),
(113,702,o),
(108,698,o),
(108,690,cs),
(108,-80,ls),
(108,-155,o),
(92,-178,o),
(47,-178,cs),
(22,-178,o),
(16,-171,o),
(9,-171,cs),
(3,-171,o),
(0,-185,o),
(0,-192,cs),
(0,-205,o),
(33,-212,o),
(57,-212,cs)
);
}
);
};
layerId = "534F5340-05B5-45BC-BA3B-B28DD92592EB";
shapes = (
{
closed = 1;
nodes = (
(111,-212,o),
(148,-186,o),
(148,-90,cs),
(148,561,ls),
(148,590,o),
(148,606,o),
(146,629,c),
(150,630,l),
(157,609,o),
(164,592,o),
(174,570,cs),
(430,0,l),
(482,0,l),
(482,700,l),
(442,700,l),
(442,138,ls),
(442,110,o),
(442,94,o),
(444,71,c),
(440,70,l),
(431,96,o),
(425,109,o),
(416,130,cs),
(160,700,l),
(108,700,l),
(108,-80,ls),
(108,-149,o),
(96,-178,o),
(52,-178,cs),
(37,-178,o),
(25,-175,o),
(8,-170,c),
(2,-201,l),
(20,-207,o),
(37,-212,o),
(59,-212,cs)
);
}
);
width = 590;
},
{
anchors = (
{
name = bottom;
pos = (360,0);
},
{
name = top;
pos = (360,700);
}
);
background = {
shapes = (
{
closed = 1;
nodes = (
(125,-212,o),
(162,-174,o),
(162,-85,cs),
(162,561,ls),
(162,590,o),
(162,606,o),
(160,629,c),
(164,630,l),
(176,604,o),
(188,585,o),
(197,570,cs),
(550,10,ls),
(556,0,o),
(561,-2,o),
(573,-2,cs),
(581,-2,ls),
(592,-2,o),
(597,2,o),
(597,10,cs),
(597,690,ls),
(597,698,o),
(592,702,o),
(581,702,cs),
(573,702,ls),
(562,702,o),
(557,698,o),
(557,690,cs),
(557,138,ls),
(557,110,o),
(557,94,o),
(559,71,c),
(555,70,l),
(543,96,o),
(531,115,o),
(522,130,cs),
(169,690,ls),
(163,700,o),
(158,702,o),
(146,702,cs),
(138,702,ls),
(127,702,o),
(122,698,o),
(122,690,cs),
(122,-85,ls),
(122,-156,o),
(102,-178,o),
(53,-178,cs),
(15,-178,o),
(-2,-166,o),
(-12,-166,cs),
(-18,-166,o),
(-21,-181,o),
(-21,-188,cs),
(-21,-201,o),
(22,-212,o),
(54,-212,cs)
);
}
);
};
layerId = "84AA6C20-0662-4373-B7CF-A8F69217EDA9";
shapes = (
{
closed = 1;
nodes = (
(117,-212,o),
(162,-183,o),
(162,-85,cs),
(162,561,ls),
(162,590,o),
(162,606,o),
(160,629,c),
(164,630,l),
(176,604,o),
(188,585,o),
(197,570,cs),
(557,0,l),
(597,0,l),
(597,700,l),
(557,700,l),
(557,138,ls),
(557,110,o),
(557,94,o),
(559,71,c),
(555,70,l),
(543,96,o),
(531,115,o),
(522,130,cs),
(163,700,l),
(122,700,l),
(122,-85,ls),
(122,-150,o),
(109,-178,o),
(55,-178,cs),
(36,-178,o),
(13,-173,o),
(-13,-163,c),
(-19,-195,l),
(3,-204,o),
(28,-212,o),
(58,-212,cs)
);
}
);
width = 719;
},
{
anchors = (
{
name = bottom;
pos = (295,0);
},
{
name = top;
pos = (295,700);
}
);
background = {
shapes = (
{
closed = 1;
nodes = (
(155,-212,o),
(209,-150,o),
(209,-48,cs),
(209,267,ls),
(209,289,o),
(208,310,o),
(205,329,c),
(210,330,l),
(217,311,o),
(222,293,o),
(235,267,cs),
(343,50,ls),
(367,3,o),
(384,-2,o),
(448,-2,cs),
(475,-2,ls),
(531,-2,o),
(555,14,o),
(555,41,cs),
(555,659,ls),
(555,686,o),
(531,702,o),
(475,702,cs),
(460,702,ls),
(404,702,o),
(381,686,o),
(381,659,cs),
(381,413,ls),
(381,392,o),
(382,371,o),
(385,351,c),
(381,350,l),
(374,369,o),
(369,386,o),
(357,413,cs),
(250,649,ls),
(228,698,o),
(210,702,o),
(148,702,cs),
(115,702,ls),
(59,702,o),
(35,686,o),
(35,659,cs),
(35,-28,ls),
(35,-53,o),
(29,-65,o),
(11,-65,cs),
(0,-65,o),
(-11,-60,o),
(-17,-60,cs),
(-36,-60,o),
(-52,-132,o),
(-52,-155,cs),
(-52,-177,o),
(-4,-212,o),
(67,-212,cs)
);
}
);
};
layerId = "A5A92505-053D-4D0C-ACDC-6F8463E28DE4";
shapes = (
{
closed = 1;
nodes = (
(135,-212,o),
(209,-169,o),
(209,-48,cs),
(209,267,ls),
(209,289,o),
(208,310,o),
(205,329,c),
(210,330,l),
(217,311,o),
(222,292,o),
(235,267,cs),
(368,0,l),
(555,0,l),
(555,700,l),
(381,700,l),
(381,413,ls),
(381,392,o),
(382,371,o),
(385,351,c),
(381,350,l),
(374,369,o),
(369,386,o),
(357,413,cs),
(227,700,l),
(35,700,l),
(35,-28,ls),
(35,-57,o),
(25,-65,o),
(5,-65,cs),
(-9,-65,o),
(-24,-60,o),
(-37,-57,c),
(-59,-180,l),
(-27,-199,o),
(12,-212,o),
(59,-212,cs)
);
}
);
width = 590;
},
{
anchors = (
{
name = bottom;
pos = (360,0);
},
{
name = top;
pos = (360,700);
}
);
background = {
shapes = (
{
closed = 1;
nodes = (
(173,-212,o),
(235,-150,o),
(235,-48,cs),
(235,280,ls),
(235,316,o),
(232,360,o),
(228,383,c),
(232,384,l),
(241,363,o),
(266,321,o),
(292,284,cs),
(465,39,ls),
(489,4,o),
(506,-2,o),
(559,-2,cs),
(589,-2,ls),
(645,-2,o),
(669,14,o),
(669,41,cs),
(669,659,ls),
(669,686,o),
(645,702,o),
(589,702,cs),
(564,702,ls),
(508,702,o),
(484,687,o),
(484,659,cs),
(484,419,ls),
(484,383,o),
(487,339,o),
(491,316,c),
(487,315,l),
(478,337,o),
(452,379,o),
(428,414,cs),
(254,661,ls),
(230,696,o),
(213,702,o),
(160,702,cs),
(130,702,ls),
(74,702,o),
(50,688,o),
(50,660,cs),
(50,-28,ls),
(50,-53,o),
(42,-63,o),
(19,-63,cs),
(1,-63,o),
(-14,-54,o),
(-22,-54,cs),
(-41,-54,o),
(-57,-135,o),
(-57,-148,cs),
(-57,-183,o),
(6,-212,o),
(72,-212,cs)
);
}
);
};
layerId = "ACEF5F79-87A6-4D8B-B169-2BFCF1568BF8";
shapes = (
{
closed = 1;
nodes = (
(152,-212,o),
(224,-167,o),
(224,-48,cs),
(224,280,ls),
(224,323,o),
(221,376,o),
(217,403,c),
(221,404,l),
(232,379,o),
(263,326,o),
(294,284,cs),
(499,0,l),
(669,0,l),
(669,700,l),
(495,700,l),
(495,419,ls),
(495,376,o),
(498,323,o),
(502,296,c),
(498,295,l),
(487,321,o),
(455,374,o),
(426,414,cs),
(220,700,l),
(50,700,l),
(50,-28,ls),
(50,-53,o),
(41,-63,o),
(18,-63,cs),
(3,-63,o),
(-16,-57,o),
(-35,-50,c),
(-57,-175,l),
(-24,-196,o),
(23,-212,o),
(72,-212,cs)
);
}
);
width = 719;
},
{
anchors = (
{
name = bottom;
pos = (425,0);
},
{
name = top;
pos = (425,700);
}
);
layerId = "2EA36C28-4342-4323-91EA-7DB25AD3237F";
shapes = (
{
closed = 1;
nodes = (
(184,-212,o),
(252,-157,o),
(252,-28,cs),
(252,310,ls),
(252,349,o),
(249,398,o),
(245,423,c),
(249,424,l),
(260,404,o),
(288,367,o),
(320,329,cs),
(603,0,l),
(782,0,l),
(782,700,l),
(598,700,l),
(598,389,ls),
(598,350,o),
(601,301,o),
(605,276,c),
(601,275,l),
(590,296,o),
(559,335,o),
(530,369,cs),
(249,700,l),
(68,700,l),
(68,-18,ls),
(68,-49,o),
(54,-59,o),
(24,-59,cs),
(1,-59,o),
(-29,-51,o),
(-53,-43,c),
(-75,-177,l),
(-24,-200,o),
(28,-212,o),
(75,-212,cs)
);
}
);
width = 850;
},
{
anchors = (
{
name = bottom;
pos = (425,0);
},
{
name = top;
pos = (425,700);
}
);
background = {
shapes = (
{
closed = 1;
nodes = (
(153,-212,o),
(205,-166,o),
(205,-78,cs),
(205,526,ls),
(205,540,o),
(203,560,o),
(201,574,c),
(205,575,l),
(211,562,o),
(222,546,o),
(229,537,cs),
(620,16,ls),
(630,3,o),
(641,-2,o),
(670,-2,cs),
(694,-2,ls),
(724,-2,o),
(735,6,o),
(735,20,cs),
(735,680,ls),
(735,694,o),
(724,702,o),
(694,702,cs),
(686,702,ls),
(656,702,o),
(645,694,o),
(645,680,cs),
(645,174,ls),
(645,156,o),
(645,136,o),
(647,126,c),
(643,125,l),
(636,139,o),
(624,157,o),
(615,169,cs),
(230,683,ls),
(219,697,o),
(206,702,o),
(181,702,cs),
(156,702,ls),
(126,702,o),
(115,694,o),
(115,680,cs),
(115,-68,ls),
(115,-123,o),
(94,-136,o),
(43,-136,cs),
(2,-136,o),
(-29,-121,o),
(-40,-121,cs),
(-54,-121,o),
(-58,-160,o),
(-58,-171,cs),
(-58,-194,o),
(9,-212,o),
(61,-212,cs)
);
}
);
};
layerId = "8ED31224-68B7-412A-B4C3-E53F784CF4E5";
shapes = (
{
closed = 1;
nodes = (
(145,-212,o),
(205,-174,o),
(205,-78,cs),
(205,526,ls),
(205,540,o),
(203,560,o),
(201,574,c),
(205,575,l),
(211,562,o),
(222,546,o),
(229,537,cs),
(632,0,l),
(735,0,l),
(735,700,l),
(645,700,l),
(645,174,ls),
(645,156,o),
(645,136,o),
(647,126,c),
(643,125,l),
(636,139,o),
(624,157,o),
(615,169,cs),
(217,700,l),
(115,700,l),
(115,-68,ls),
(115,-119,o),
(100,-136,o),
(53,-136,cs),
(17,-136,o),
(-10,-127,o),
(-44,-116,c),
(-57,-183,l),
(-19,-201,o),
(22,-212,o),
(65,-212,cs)
);
}
);
width = 850;
},
{
anchors = (
{
name = bottom;
pos = (425,0);
},
{
name = top;
pos = (425,700);
}
);
background = {
shapes = (
{
closed = 1;
nodes = (
(141,-212,o),
(180,-173,o),
(180,-80,cs),
(180,561,ls),
(180,590,o),
(180,606,o),
(178,629,c),
(182,630,l),
(197,610,o),
(210,590,o),
(226,570,cs),
(664,8,ls),
(671,-1,o),
(674,-2,o),
(682,-2,cs),
(694,-2,ls),
(705,-2,o),
(710,2,o),
(710,10,cs),
(710,690,ls),
(710,698,o),
(705,702,o),
(694,702,cs),
(686,702,ls),
(675,702,o),
(670,698,o),
(670,690,cs),
(670,138,ls),
(670,110,o),
(670,94,o),
(672,71,c),
(668,70,l),
(652,89,o),
(635,107,o),
(620,127,cs),
(181,690,ls),
(173,700,o),
(171,702,o),
(162,702,cs),
(156,702,ls),
(145,702,o),
(140,698,o),
(140,690,cs),
(140,-80,ls),
(140,-153,o),
(115,-178,o),
(46,-178,cs),
(-8,-178,o),
(-30,-161,o),
(-38,-161,cs),
(-44,-161,o),
(-48,-175,o),
(-48,-183,cs),
(-48,-196,o),
(3,-212,o),
(49,-212,cs)
);
}
);
};
layerId = "79DB91E0-15EF-4446-816D-FE9384315D55";
shapes = (
{
closed = 1;
nodes = (
(136,-212,o),
(180,-178,o),
(180,-80,cs),
(180,561,ls),
(180,590,o),
(180,606,o),
(178,629,c),
(182,630,l),
(197,610,o),
(210,590,o),
(226,570,cs),
(670,0,l),
(710,0,l),
(710,700,l),
(670,700,l),
(670,138,ls),
(670,110,o),
(670,94,o),
(672,71,c),
(668,70,l),
(652,89,o),
(635,107,o),
(620,127,cs),
(173,700,l),
(140,700,l),
(140,-80,ls),
(140,-154,o),
(114,-178,o),
(53,-178,cs),
(18,-178,o),
(-9,-171,o),
(-38,-159,c),
(-44,-192,l),
(-14,-205,o),
(15,-212,o),
(54,-212,cs)
);
}
);
width = 850;
}
);
unicode = 413;
},
